<svg height="512" viewBox="0 0 512 512" width="512" xmlns="http://www.w3.org/2000/svg"><g id="filled_outline" data-name="filled outline"><g fill="#fbd699"><path d="m410 64h-50a8 8 0 0 1 0-16h50a8 8 0 0 1 0 16z"/><path d="m408 96h-48a8 8 0 0 1 0-16h48a8 8 0 0 1 0 16z"/><path d="m408 128h-48a8 8 0 0 1 0-16h48a8 8 0 0 1 0 16z"/><path d="m408 160h-48a8 8 0 0 1 0-16h48a8 8 0 0 1 0 16z"/><path d="m408 192h-48a8 8 0 0 1 0-16h48a8 8 0 0 1 0 16z"/><path d="m408 224h-48a8 8 0 0 1 0-16h48a8 8 0 0 1 0 16z"/><path d="m408 256h-48a8 8 0 0 1 0-16h48a8 8 0 0 1 0 16z"/><path d="m408 288h-48a8 8 0 0 1 0-16h48a8 8 0 0 1 0 16z"/></g><path d="m392 48h24v16h-24z" fill="#eac88f"/><path d="m392 80h24v16h-24z" fill="#eac88f"/><path d="m392 112h24v16h-24z" fill="#eac88f"/><path d="m392 144h24v16h-24z" fill="#eac88f"/><path d="m392 176h24v16h-24z" fill="#eac88f"/><path d="m392 208h24v16h-24z" fill="#eac88f"/><path d="m392 240h24v16h-24z" fill="#eac88f"/><path d="m392 272h24v16h-24z" fill="#eac88f"/><path d="m254.069 376a21.72 21.72 0 0 1 -21.612-23.881l5.612-56.119-8-48h48l-8 48 5.612 56.119a21.72 21.72 0 0 1 -21.612 23.881z" fill="#c38325"/><path d="m144 328-23.98 26.98-8.45 9.5-31.57 35.52h-24l33.16-59.68 6.84-12.32z" fill="#cdcdcd"/><path d="m184 400h-24l-64-72v-170.334a227.334 227.334 0 0 1 24-101.666 227.334 227.334 0 0 1 24 101.666v170.334z" fill="#dbdbdb"/><path d="m112 288h16v16h-16z" fill="#c3c3c3"/><path d="m176 392a48 48 0 1 0 48 48 48 48 0 0 0 -48-48zm0 64a16 16 0 1 1 16-16 16 16 0 0 1 -16 16z" fill="#428dc5"/><path d="m72 392a48 48 0 1 0 48 48 48 48 0 0 0 -48-48zm0 64a16 16 0 1 1 16-16 16 16 0 0 1 -16 16z" fill="#3775a4"/><ellipse cx="254.069" cy="156" fill="#ea9d2d" rx="62.069" ry="100"/><path d="m230.069 160h16v16h-16z" fill="#c38325"/><path d="m230.069 192h16v16h-16z" fill="#c38325"/><path d="m230.069 96h16v16h-16z" fill="#c38325"/><path d="m230.069 128h16v16h-16z" fill="#c38325"/><path d="m262.069 96h16v16h-16z" fill="#c38325"/><path d="m262.069 128h16v16h-16z" fill="#c38325"/><path d="m262.069 192h16v16h-16z" fill="#c38325"/><path d="m262.069 160h16v16h-16z" fill="#c38325"/><path d="m440 328h-32a8 8 0 0 1 -8-8v-272h24a24 24 0 0 1 24 24v248a8 8 0 0 1 -8 8z" fill="#fbd699"/><path d="m120.02 354.98-8.45 9.5-22.41-24.16 6.84-12.32h.22z" fill="#a8a8a8"/><circle cx="400" cy="400" fill="#fbb540" r="88"/><path d="m416 448a16 16 0 0 0 0-32 16 16 0 0 0 -32 0v.012a16 16 0 1 0 .31 31.988z" fill="#c38325"/><circle cx="400" cy="363.997" fill="#c38325" r="12"/><circle cx="356" cy="387.997" fill="#c38325" r="12"/><circle cx="444" cy="387.997" fill="#c38325" r="12"/><path d="m400 496a96 96 0 1 1 96-96 96.108 96.108 0 0 1 -96 96zm0-176a80 80 0 1 0 80 80 80.091 80.091 0 0 0 -80-80z" fill="#c38325"/><path d="m112 288h16v16h-16z"/><path d="m176 464a24 24 0 1 0 -24-24 24.027 24.027 0 0 0 24 24zm0-32a8 8 0 1 1 -8 8 8.009 8.009 0 0 1 8-8z"/><path d="m72 464a24 24 0 1 0 -24-24 24.027 24.027 0 0 0 24 24zm0-32a8 8 0 1 1 -8 8 8.009 8.009 0 0 1 8-8z"/><path d="m72 496a56.077 56.077 0 0 0 52-35.255 55.994 55.994 0 1 0 60.63-76.078l-32.63-58.74v-168.257a236.028 236.028 0 0 0 -6.294-54.068 235.817 235.817 0 0 0 -18.551-51.18 8 8 0 0 0 -14.311 0 236.608 236.608 0 0 0 -24.844 105.248v168.258l-33.9 61.023a55.993 55.993 0 0 0 17.9 109.049zm26.828-105.141 21.172-23.817 24.021 27.026a56.293 56.293 0 0 0 -20.021 25.187 56.328 56.328 0 0 0 -25.172-28.396zm117.172 49.141a40 40 0 1 1 -40-40 40.045 40.045 0 0 1 40 40zm-112-282.33a220.647 220.647 0 0 1 16-82.221 219.8 219.8 0 0 1 10.128 31.826 220.014 220.014 0 0 1 5.872 50.395v170.33a8.016 8.016 0 0 0 1.006 3.885l29.416 52.951a55.43 55.43 0 0 0 -7.552 1.854l-54.87-61.732zm-6.485 184.076 11.785 13.254-26.691 30.021a55.919 55.919 0 0 0 -8.6-.97zm-25.515 58.254a40 40 0 1 1 -40 40 40.045 40.045 0 0 1 40-40z"/><path d="m304.755 230.93c12.5-20.138 19.383-46.748 19.383-74.93s-6.884-54.792-19.383-74.93c-13.236-21.325-31.237-33.07-50.686-33.07s-37.45 11.745-50.687 33.07c-12.499 20.138-19.382 46.748-19.382 74.93s6.883 54.792 19.382 74.93a80.883 80.883 0 0 0 19.4 21.972l7.218 43.362-5.5 55.059a29.718 29.718 0 1 0 59.141 0l-5.5-55.06 7.219-43.363a80.879 80.879 0 0 0 19.395-21.97zm-40.512 132.557a13.718 13.718 0 0 1 -23.823-10.571l5.61-56.12a7.975 7.975 0 0 0 -.069-2.11l-5.439-32.647a47.78 47.78 0 0 0 27.1 0l-5.439 32.647a7.976 7.976 0 0 0 -.07 2.11l5.611 56.121a13.56 13.56 0 0 1 -3.481 10.57zm-10.174-115.487c-13.71 0-26.882-9.059-37.092-25.508-10.948-17.638-16.977-41.252-16.977-66.492s6.029-48.854 16.977-66.492c10.21-16.449 23.382-25.508 37.092-25.508s26.882 9.059 37.092 25.508c10.947 17.638 16.977 41.252 16.977 66.492s-6.03 48.854-16.977 66.492c-10.21 16.449-23.383 25.508-37.092 25.508z"/><path d="m230.069 160h16v16h-16z"/><path d="m230.069 192h16v16h-16z"/><path d="m230.069 96h16v16h-16z"/><path d="m230.069 128h16v16h-16z"/><path d="m262.069 96h16v16h-16z"/><path d="m262.069 128h16v16h-16z"/><path d="m262.069 192h16v16h-16z"/><path d="m262.069 160h16v16h-16z"/><path d="m448 316.887v-244.887a24.028 24.028 0 0 0 -24-24h-64a8 8 0 0 0 0 16h40v16h-40a8 8 0 0 0 0 16h40v16h-40a8 8 0 0 0 0 16h40v16h-40a8 8 0 0 0 0 16h40v16h-40a8 8 0 0 0 0 16h40v16h-40a8 8 0 0 0 0 16h40v16h-40a8 8 0 0 0 0 16h40v16h-40a8 8 0 0 0 0 16h40v16a96.06 96.06 0 1 0 48 12.887zm-32-252.887h8a8.009 8.009 0 0 1 8 8v237.491a95.133 95.133 0 0 0 -16-4.15zm-16 416a80 80 0 1 1 80-80 80.091 80.091 0 0 1 -80 80z"/><path d="m422.969 409.027a24 24 0 0 0 -45.939 0 24 24 0 0 0 6.97 46.973h.383 31.617a24 24 0 0 0 6.969-46.969zm-6.969 30.973h-31.69-.16a8.054 8.054 0 0 1 -3.762-.865 7.991 7.991 0 0 1 3.619-15.125 8 8 0 0 0 7.993-8v-.069a8 8 0 0 1 16 .059 8 8 0 0 0 8 8 8 8 0 0 1 0 16z"/><path d="m400 384a20 20 0 1 0 -20-20 20.023 20.023 0 0 0 20 20zm0-24a4 4 0 1 1 -4 4 4 4 0 0 1 4-4z"/><path d="m376 388a20 20 0 1 0 -20 20 20.023 20.023 0 0 0 20-20zm-20 4a4 4 0 1 1 4-4 4 4 0 0 1 -4 4z"/><path d="m424 388a20 20 0 1 0 20-20 20.023 20.023 0 0 0 -20 20zm24 0a4 4 0 1 1 -4-4 4 4 0 0 1 4 4z"/></g></svg>