<svg height="512" viewBox="0 0 512 512" width="512" xmlns="http://www.w3.org/2000/svg"><g id="filled_outline" data-name="filled outline"><path d="m466.31 256a63.99 63.99 0 1 0 -105.794-56h-209.032a63.992 63.992 0 1 0 -105.794 56 63.99 63.99 0 1 0 105.794 56h209.032a63.992 63.992 0 1 0 105.794-56z" fill="#eaeae8"/><g fill="#dbdbdb"><path d="m88 280a72.081 72.081 0 0 1 -72-72 8 8 0 0 1 16 0 56.063 56.063 0 0 0 56 56 8 8 0 0 1 0 16z"/><path d="m488 312a8 8 0 0 1 -8-8 56.063 56.063 0 0 0 -56-56 8 8 0 0 1 0-16 72.081 72.081 0 0 1 72 72 8 8 0 0 1 -8 8z"/><path d="m160 272h16v16h-16z"/><path d="m192 272h16v16h-16z"/><path d="m224 272h48v16h-48z"/></g><path d="m424 136a72.089 72.089 0 0 0 -70.194 56h-195.612a71.995 71.995 0 1 0 -123.838 64 71.991 71.991 0 1 0 123.838 64h195.612a71.995 71.995 0 1 0 123.838-64 71.983 71.983 0 0 0 -53.644-120zm0 112a55.936 55.936 0 0 1 36.872 13.856c.05.047.094.1.146.143a55.99 55.99 0 1 1 -92.564 49.01 8 8 0 0 0 -7.938-7.009h-209.032a8 8 0 0 0 -7.938 7.009 55.991 55.991 0 1 1 -97.254-44.334 71.927 71.927 0 0 0 41.708 13.325 8 8 0 0 0 0-16 55.936 55.936 0 0 1 -36.872-13.856c-.05-.047-.094-.1-.146-.143a55.99 55.99 0 1 1 92.564-49.01 8 8 0 0 0 7.938 7.009h209.032a8 8 0 0 0 7.938-7.009 55.991 55.991 0 1 1 97.254 44.334 71.927 71.927 0 0 0 -41.708-13.325 8 8 0 0 0 0 16z"/><path d="m160 272h16v16h-16z"/><path d="m192 272h16v16h-16z"/><path d="m224 272h48v16h-48z"/></g></svg>