<svg height="512" viewBox="0 0 512 512" width="512" xmlns="http://www.w3.org/2000/svg"><g id="filled_outline" data-name="filled outline"><path d="m24 80h464a0 0 0 0 1 0 0v368a16 16 0 0 1 -16 16h-432a16 16 0 0 1 -16-16v-368a0 0 0 0 1 0 0z" fill="#ebebeb"/><path d="m24 80h464v64h-464z" fill="#428dc5"/><path d="m205.27 231.98a80.734 80.734 0 0 1 -12.14 16 80.037 80.037 0 1 1 12.14-16z" fill="#8dc79d"/><path d="m198.318 227.967a72.639 72.639 0 0 1 -10.918 14.395 72.008 72.008 0 1 1 10.922-14.395z" fill="#aae5c8"/><path d="m205.27 231.98a80.734 80.734 0 0 1 -12.14 16h-41.15a24.025 24.025 0 0 1 -24-24v-16h16v16a8 8 0 0 0 8 8z" fill="#428dc5"/><circle cx="128" cy="328" fill="#dbdbdb" r="24"/><circle cx="128" cy="408" fill="#dbdbdb" r="24"/><path d="m128 336a7.984 7.984 0 0 1 -5.659-2.343l-16-16a8 8 0 0 1 11.314-11.314l10.937 10.937 34.408-27.527a8 8 0 0 1 10 12.494l-40 32a7.977 7.977 0 0 1 -5 1.753z" fill="#dc4d41"/><path d="m200 304h16v16h-16z" fill="#dbdbdb"/><path d="m232 304h88v16h-88z" fill="#dbdbdb"/><path d="m200 336h48v16h-48z" fill="#dbdbdb"/><path d="m264 336h48v16h-48z" fill="#dbdbdb"/><circle cx="272" cy="224" fill="#dbdbdb" r="24"/><path d="m272 232a7.984 7.984 0 0 1 -5.659-2.343l-16-16a8 8 0 0 1 11.314-11.314l10.937 10.937 34.408-27.527a8 8 0 1 1 10 12.494l-40 32a7.977 7.977 0 0 1 -5 1.753z" fill="#dc4d41"/><g fill="#dbdbdb"><path d="m344 200h16v16h-16z"/><path d="m376 200h72v16h-72z"/><path d="m344 232h64v16h-64z"/><path d="m424 232h24v16h-24z"/><path d="m200 384h16v16h-16z"/><path d="m232 384h88v16h-88z"/><path d="m200 416h56v16h-56z"/><path d="m272 416h104v16h-104z"/><rect height="64" rx="16" width="32" x="192" y="48"/><rect height="64" rx="16" width="32" x="96" y="48"/><rect height="64" rx="16" width="32" x="288" y="48"/><rect height="64" rx="16" width="32" x="384" y="48"/></g><path d="m453.37 372.49a80.038 80.038 0 1 1 1.04-36.4 80.008 80.008 0 0 1 -1.04 36.4z" fill="#fbb540"/><path d="m453.37 372.49a80.174 80.174 0 0 1 -75.22 59.51h-2.15l-16-48h-18.88a15.99 15.99 0 0 1 -15.69-12.86l-5.43-27.14 24-8 16-24h48z" fill="#da922a"/><path d="m432 344v32a16 16 0 0 1 -16 16 16 16 0 0 1 -16-16v-64h8z" fill="#834b10"/><path d="m360 344h16v16h-16z" fill="#834b10"/><path d="m135.984 215.984a32.037 32.037 0 0 1 -32-32v-16a8 8 0 0 1 4.422-7.155l16-8 7.156 14.311-11.578 5.789v11.055a16 16 0 1 0 32 0v-11.055l-11.578-5.789 7.156-14.311 16 8a8 8 0 0 1 4.422 7.155v16a32.036 32.036 0 0 1 -32 32z" fill="#4799cf"/><path d="m488 72h-64v-8a24 24 0 0 0 -48 0v8h-48v-8a24 24 0 0 0 -48 0v8h-48v-8a24 24 0 0 0 -48 0v8h-48v-8a24 24 0 0 0 -48 0v8h-64a8 8 0 0 0 -8 8v368a24.028 24.028 0 0 0 24 24h432a24.028 24.028 0 0 0 24-24v-368a8 8 0 0 0 -8-8zm-96-8a8 8 0 0 1 16 0v32a8 8 0 0 1 -16 0zm-96 0a8 8 0 0 1 16 0v32a8 8 0 0 1 -16 0zm-96 0a8 8 0 0 1 16 0v32a8 8 0 0 1 -16 0zm6.543 113.652a71.522 71.522 0 0 1 -10.531 54.09c-.055.083-.115.16-.169.242h-43.859a8.009 8.009 0 0 1 -8-8v-9.012a32.058 32.058 0 0 0 24-30.988v-16a8 8 0 0 0 -4.422-7.155l-16-8-7.156 14.311 11.578 5.789v11.055a16 16 0 1 1 -32 0v-11.055l11.578-5.789-7.156-14.311-16 8a8 8 0 0 0 -4.422 7.155v16a32.059 32.059 0 0 0 24 30.988v9.012a24.027 24.027 0 0 0 24 24h29.288a72.015 72.015 0 1 1 25.271-70.332zm-102.543-113.652a8 8 0 0 1 16 0v32a8 8 0 0 1 -16 0zm-72 24h56v8a23.938 23.938 0 0 0 7.8 17.688 87.849 87.849 0 0 0 -27.655 22.312h-36.145zm448 360a8.009 8.009 0 0 1 -8 8h-432a8.009 8.009 0 0 1 -8-8v-296h25.639a87.969 87.969 0 1 0 156.742 0h265.619zm0-312h-276.144a88.271 88.271 0 0 0 -69.229-32.009 23.889 23.889 0 0 0 1.373-7.991v-8h48v8a24 24 0 0 0 48 0v-8h48v8a24 24 0 0 0 48 0v-8h48v8a24 24 0 0 0 48 0v-8h56z"/><path d="m289.453 336h-25.453v16h23.994a88.537 88.537 0 0 0 6.042 32h-62.036v16h70.268a87.922 87.922 0 0 0 13.391 16h-43.659v16h67.4a87.576 87.576 0 0 0 36.59 8.025q1.019 0 2.041-.025h.12a88 88 0 1 0 -75.5-136.577c-.126.19-.238.387-.363.578h-70.288v16h62.038a87.033 87.033 0 0 0 -4.585 15.999zm100.9 86.575a72.469 72.469 0 0 1 -8.656 1.2l-14.1-42.306a8 8 0 0 0 -7.597-5.469h-18.88a8.015 8.015 0 0 1 -7.846-6.43l-4.044-20.214 17.3-5.766a8 8 0 0 0 4.126-3.152l13.625-20.438h27.719v56a24 24 0 0 0 48 0v-8l4.532 6.043a72.04 72.04 0 0 1 -54.184 48.532zm17.647-46.575v-50.667l.193.258 15.807 21.076v29.333a8 8 0 0 1 -16 0zm-92.012-63.742a72.008 72.008 0 0 1 132.032 39.766l-33.62-44.824a8 8 0 0 0 -5.464-3.145 8.082 8.082 0 0 0 -.936-.055h-48a8 8 0 0 0 -6.656 3.562l-14.478 21.716-21.4 7.132a8 8 0 0 0 -5.315 9.159l5.429 27.134a24.053 24.053 0 0 0 23.54 19.297h13.114l10.366 31.1a71.991 71.991 0 0 1 -48.611-110.837z"/><path d="m128 376a32 32 0 1 0 32 32 32.036 32.036 0 0 0 -32-32zm0 48a16 16 0 1 1 16-16 16.019 16.019 0 0 1 -16 16z"/><path d="m163 289.753-15.817 12.653a32.034 32.034 0 1 0 10 12.492l15.817-12.651a8 8 0 0 0 -10-12.494zm-35 22.247a15.89 15.89 0 0 1 5.809 1.108l-5.215 4.172-4.721-4.721a15.925 15.925 0 0 1 4.127-.559zm0 32a15.941 15.941 0 0 1 -15.441-20.126l9.784 9.783a8 8 0 0 0 10.654.59l10.8-8.643a15.887 15.887 0 0 1 -15.797 18.396z"/><path d="m360 344h16v16h-16z"/><path d="m200 304h16v16h-16z"/><path d="m200 336h48v16h-48z"/><path d="m272 256a31.978 31.978 0 0 0 29.183-45.1l15.817-12.653a8 8 0 1 0 -10-12.494l-15.817 12.653a31.995 31.995 0 1 0 -19.183 57.594zm0-48a15.89 15.89 0 0 1 5.809 1.108l-5.215 4.172-4.721-4.721a15.925 15.925 0 0 1 4.127-.559zm-15.441 11.874 9.784 9.783a8 8 0 0 0 10.654.59l10.8-8.643a16 16 0 1 1 -31.242-1.73z"/><path d="m344 200h16v16h-16z"/><path d="m376 200h72v16h-72z"/><path d="m344 232h64v16h-64z"/><path d="m424 232h24v16h-24z"/><path d="m200 384h16v16h-16z"/><path d="m200 416h56v16h-56z"/></g></svg>