<svg height="512" viewBox="0 0 512 512" width="512" xmlns="http://www.w3.org/2000/svg"><g id="filled_outline" data-name="filled outline"><path d="m152 80h32v56h-32z" fill="#e4e4e2"/><path d="m328 80h32v56h-32z" fill="#e4e4e2"/><path d="m192 168h-48v-22.874a32 32 0 0 1 14.25-26.626l9.75-6.5 9.75 6.5a32 32 0 0 1 14.25 26.626z" fill="#c7463b"/><path d="m368 168h-48v-22.874a32 32 0 0 1 14.25-26.626l9.75-6.5 9.75 6.5a32 32 0 0 1 14.25 26.626z" fill="#c7463b"/><rect fill="#f55648" height="320" rx="64" width="432" x="40" y="160"/><circle cx="256" cy="296" fill="#eaeae8" r="88"/><circle cx="256" cy="296" fill="#f9f9f9" r="79"/><g fill="#e08122"><path d="m272 344a16 16 0 0 0 0-32 16 16 0 0 0 -32 0v.012a16 16 0 1 0 .31 31.988z"/><circle cx="256" cy="259.997" r="12"/><circle cx="212" cy="283.997" r="12"/><circle cx="300" cy="283.997" r="12"/></g><rect fill="#c7463b" height="32" rx="16" width="240" x="136" y="48"/><path d="m392 356h-28v-28h-32v28h-28v32h28v28h32v-28h28z" fill="#c7463b"/><path d="m112 456h-8a40.045 40.045 0 0 1 -40-40v-8a8 8 0 0 1 16 0v8a24.028 24.028 0 0 0 24 24h8a8 8 0 0 1 0 16z" fill="#ff8e82"/><path d="m152 456h-8a8 8 0 0 1 0-16h8a8 8 0 0 1 0 16z" fill="#ff8e82"/><path d="m384 356h-28v-28h-32v28h-28v32h28v28h32v-28h28z" fill="#85bc94"/><path d="m278.969 305.027a24 24 0 0 0 -45.939 0 24 24 0 0 0 6.97 46.973h.383 31.617a24 24 0 0 0 6.969-46.969zm-6.969 30.973h-31.69-.161a7.854 7.854 0 0 1 -3.761-.865 7.991 7.991 0 0 1 3.62-15.125 8 8 0 0 0 7.993-8c0-.031 0-.063 0-.094a8 8 0 0 1 15.999.084 8 8 0 0 0 8 8 8 8 0 0 1 0 16z"/><path d="m256 280a20 20 0 1 0 -20-20 20.023 20.023 0 0 0 20 20zm0-24a4 4 0 1 1 -4 4 4 4 0 0 1 4-4z"/><path d="m232 284a20 20 0 1 0 -20 20 20.023 20.023 0 0 0 20-20zm-20 4a4 4 0 1 1 4-4 4 4 0 0 1 -4 4z"/><path d="m300 264a20 20 0 1 0 20 20 20.023 20.023 0 0 0 -20-20zm0 24a4 4 0 1 1 4-4 4 4 0 0 1 -4 4z"/><path d="m408 152h-32v-6.874a39.9 39.9 0 0 0 -8-23.983v-34.519a24 24 0 0 0 -8-46.624h-208a24 24 0 0 0 -8 46.624v34.519a39.91 39.91 0 0 0 -8 23.983v6.874h-32a72.081 72.081 0 0 0 -72 72v192a72.081 72.081 0 0 0 72 72h304a72.081 72.081 0 0 0 72-72v-192a72.081 72.081 0 0 0 -72-72zm-256-96h208a8 8 0 0 1 0 16h-208a8 8 0 0 1 0-16zm186.688 69.156 5.312-3.541 5.312 3.541a23.953 23.953 0 0 1 10.688 19.97v6.874h-32v-6.874a23.953 23.953 0 0 1 10.688-19.97zm-2.688-17.437v-19.719h16v19.719l-3.562-2.375a8 8 0 0 0 -8.876 0zm-144 13.424v-33.143h128v33.143a39.9 39.9 0 0 0 -8 23.983v6.874h-112v-6.874a39.91 39.91 0 0 0 -8-23.983zm-29.312 4.013 5.312-3.541 5.312 3.541a23.953 23.953 0 0 1 10.688 19.97v6.874h-32v-6.874a23.953 23.953 0 0 1 10.688-19.97zm-2.688-17.437v-19.719h16v19.719l-3.562-2.375a8 8 0 0 0 -8.876 0zm304 308.281a56.063 56.063 0 0 1 -56 56h-304a56.063 56.063 0 0 1 -56-56v-192a56.063 56.063 0 0 1 56-56h304a56.063 56.063 0 0 1 56 56z"/><path d="m384 348h-20v-20a8 8 0 0 0 -8-8h-7.052a95.992 95.992 0 1 0 -60.948 66.51v1.49a8 8 0 0 0 8 8h20v20a8 8 0 0 0 8 8h32a8 8 0 0 0 8-8v-20h20a8 8 0 0 0 8-8v-32a8 8 0 0 0 -8-8zm-96 8v13.345a79.083 79.083 0 0 1 -32 6.655 80 80 0 1 1 76.316-56h-8.316a8 8 0 0 0 -8 8v20h-20a8 8 0 0 0 -8 8zm88 24h-20a8 8 0 0 0 -8 8v20h-16v-20a8 8 0 0 0 -8-8h-20v-16h20a8 8 0 0 0 8-8v-20h16v20a8 8 0 0 0 8 8h20z"/><path d="m112 440h-8a24.028 24.028 0 0 1 -24-24v-8a8 8 0 0 0 -16 0v8a40.045 40.045 0 0 0 40 40h8a8 8 0 0 0 0-16z"/><path d="m152 440h-8a8 8 0 0 0 0 16h8a8 8 0 0 0 0-16z"/></g></svg>