<svg height="512" viewBox="0 0 512 512" width="512" xmlns="http://www.w3.org/2000/svg"><g id="filled_outline" data-name="filled outline"><path d="m328 144v56h-32v-56a16 16 0 1 1 32 0z" fill="#c7bfa1"/><path d="m328 144v16h-144v-16a16 16 0 0 1 16-16h112a15.979 15.979 0 0 1 16 16z" fill="#e8dfbc"/><path d="m296 160h32v8h-32z" fill="#b6af94"/><path d="m216 144v56h-32v-56a16 16 0 1 1 32 0z" fill="#c7bfa1"/><path d="m251 288-32 96h-163l-32-96 21.33-64h185.34z" fill="#2d6087"/><path d="m248 288-32-96h224l32 96z" fill="#e8dfbc"/><path d="m48 224h16v136h-16z" fill="#878787"/><path d="m80 216h16v144h-16z" fill="#878787"/><path d="m112 216h16v144h-16z" fill="#878787"/><path d="m144 216h16v144h-16z" fill="#878787"/><path d="m176 216h16v144h-16z" fill="#878787"/><path d="m208 224h16v128h-16z" fill="#878787"/><path d="m45.33 224h181.34l-10.67-32h-160z" fill="#f0e7c3"/><path d="m56 384h160l10.67-32h-181.34z" fill="#4799cf"/><path d="m248 280v16h-221.33l-2.67-8 2.67-8z" fill="#a8a8a8"/><path d="m248 312v16h-210.67l-5.33-16z" fill="#a8a8a8"/><path d="m472 288-5.33 16-2.67 8-24 72h-224l24-72 2.67-8 5.33-16z" fill="#3775a4"/><path d="m288 280a8 8 0 0 1 -7.431-5.031l-16-40a8 8 0 1 1 14.856-5.942l16 40a8 8 0 0 1 -7.425 10.973z" fill="#c1b99c"/><path d="m336 279.989a8 8 0 0 1 -7.417-5l-16.217-40a8 8 0 1 1 14.828-6.012l16.217 40a8 8 0 0 1 -7.411 11.012z" fill="#c1b99c"/><path d="m384 280a8 8 0 0 1 -7.431-5.031l-16-40a8 8 0 1 1 14.856-5.942l16 40a8 8 0 0 1 -7.425 10.973z" fill="#c1b99c"/><path d="m424 280a8 8 0 0 1 -7.431-5.031l-16-40a8 8 0 1 1 14.856-5.942l16 40a8 8 0 0 1 -7.425 10.973z" fill="#c1b99c"/><path d="m264 328h16v32h-16z" fill="#2d6087"/><path d="m264 328h8v32h-8z" fill="#244d6c"/><path d="m312 328h16v32h-16z" fill="#2d6087"/><path d="m360 328h16v32h-16z" fill="#2d6087"/><path d="m408 328h16v32h-16z" fill="#2d6087"/><path d="m480 272v32h-237.33l5.33-16-5.33-16z" fill="#428dc5"/><path d="m466.67 304-2.67 8h-224l2.67-8z" fill="#2d6087"/><g fill="#6f7478"><path d="m48 264h16v8h-16z"/><path d="m80 264h16v8h-16z"/><path d="m112 264h16v8h-16z"/><path d="m144 264h16v8h-16z"/><path d="m176 264h16v8h-16z"/><path d="m208 264h16v8h-16z"/><path d="m48 224h16v8h-16z"/><path d="m80 224h16v8h-16z"/><path d="m112 224h16v8h-16z"/><path d="m144 224h16v8h-16z"/><path d="m176 224h16v8h-16z"/><path d="m208 224h16v8h-16z"/><path d="m48 296h16v8h-16z"/><path d="m80 296h16v8h-16z"/><path d="m112 296h16v8h-16z"/><path d="m144 296h16v8h-16z"/><path d="m176 296h16v8h-16z"/><path d="m208 296h16v8h-16z"/><path d="m48 328h16v8h-16z"/><path d="m80 328h16v8h-16z"/><path d="m112 328h16v8h-16z"/><path d="m144 328h16v8h-16z"/><path d="m176 328h16v8h-16z"/><path d="m208 328h16v8h-16z"/></g><path d="m240 264h-208l5.33-16h197.34z" fill="#a8a8a8"/><path d="m312 328h8v32h-8z" fill="#244d6c"/><path d="m360 328h8v32h-8z" fill="#244d6c"/><path d="m408 328h8v32h-8z" fill="#244d6c"/><path d="m264 328h16v32h-16z"/><path d="m312 328h16v32h-16z"/><path d="m360 328h16v32h-16z"/><path d="m408 328h16v32h-16z"/><path d="m328.967 127.013a23.888 23.888 0 0 0 -16.967-7.013h-112a24.028 24.028 0 0 0 -24 24v40h-120a8 8 0 0 0 -7.59 5.47l-32 96a8.006 8.006 0 0 0 0 5.06l32 96a8 8 0 0 0 7.59 5.47h384a8 8 0 0 0 7.59-5.47l24.846-74.53h7.564a8 8 0 0 0 8-8v-32a8 8 0 0 0 -8-8h-7.564l-24.846-74.53a8 8 0 0 0 -7.59-5.47h-104v-40a23.9 23.9 0 0 0 -7.033-16.987zm-280.967 207.687-2.234-6.7h2.234zm0-22.7h-7.567l-5.333-16h12.9zm0-32h-12.9l5.334-16h7.566zm0-32h-2.234l2.234-6.7zm144-104a8 8 0 0 1 16 0v40h-16zm18.234 232h-148.468l-5.334-16h159.136zm-130.234-112v16h-16v-16zm-16-16v-16h16v16zm16 48v16h-16v-16zm0 32v16h-16v-16zm32-64v16h-16v-16zm-16-16v-16h16v16zm16 48v16h-16v-16zm0 32v16h-16v-16zm32-64v16h-16v-16zm-16-16v-16h16v16zm16 48v16h-16v-16zm0 32v16h-16v-16zm32-64v16h-16v-16zm-16-16v-16h16v16zm16 48v16h-16v-16zm0 32v16h-16v-16zm32-64v16h-16v-16zm-16-16v-16h16v16zm16 48v16h-16v-16zm0 32v16h-16v-16zm-151.568-112 5.334-16h148.468l5.334 16zm255.568-80a7.979 7.979 0 0 1 8 8v8h-96v-8a23.889 23.889 0 0 0 -1.376-8zm8 32v16h-16v-16zm-96 112v-16h7.567l5.334 16zm12.9 16-5.334 16h-7.566v-16zm-12.9-48v-6.7l2.234 6.7zm0-64v-16h64v16zm0 150.7v-6.7h2.234zm210.234 41.3h-207.134l21.333-64h207.137zm37.766-80h-218.234l1.824-5.47a8.006 8.006 0 0 0 0-5.06l-1.824-5.47h218.234zm-37.766-96 21.336 64h-26.154l-13.988-34.971a8 8 0 1 0 -14.856 5.942l11.612 29.029h-22.768l-13.988-34.971a8 8 0 1 0 -14.856 5.942l11.612 29.029h-30.784l-14.2-35.019a8 8 0 1 0 -14.828 6.012l11.757 29.007h-30.713l-13.988-34.971a8 8 0 1 0 -14.856 5.942l11.612 29.029h-27.751l-21.333-64z"/></g></svg>