<svg height="512" viewBox="0 0 512 512" width="512" xmlns="http://www.w3.org/2000/svg"><g id="filled_outline" data-name="filled outline"><path d="m88 136h384v320h-384z" fill="#787d82"/><path d="m110.868 359.919-56-8a8 8 0 0 1 -6.868-7.919v-40h16v33.062l49.132 7.019z" fill="#3775a4"/><path d="m456 496a8 8 0 0 1 -8-8v-32a8 8 0 0 1 16 0v32a8 8 0 0 1 -8 8z" fill="#c3c3c3"/><path d="m104 496a8 8 0 0 1 -8-8v-32a8 8 0 0 1 16 0v32a8 8 0 0 1 -8 8z" fill="#c3c3c3"/><path d="m88 104h384v32h-384z" fill="#da922a"/><path d="m88 104h384v16h-384z" fill="#c38325"/><g fill="#c3c3c3"><path d="m400 176h72v16h-72z"/><path d="m400 224h72v16h-72z"/><path d="m400 272h72v16h-72z"/><path d="m88 320h232v16h-232z"/><path d="m88 368h216v16h-216z"/><path d="m88 176h72v16h-72z"/><path d="m88 224h72v16h-72z"/><path d="m88 272h72v16h-72z"/></g><path d="m24 184h64v96h-64z" fill="#6cbae5"/><path d="m56 152a32 32 0 0 1 32 32 0 0 0 0 1 0 0h-64a0 0 0 0 1 0 0 32 32 0 0 1 32-32z" fill="#428dc5"/><path d="m64 312h-16l-24-32h64z" fill="#428dc5"/><path d="m24 208h32v16h-32z" fill="#428dc5"/><path d="m24 240h32v16h-32z" fill="#428dc5"/><path d="m440 424h-112l8-48h96z" fill="#fbb540"/><path d="m416 376a16 16 0 1 0 -16.913-27.147 15.98 15.98 0 0 0 -30.174 0 16 16 0 1 0 -16.913 27.147z" fill="#8f563b"/><path d="m88 128h104v16h-104z" fill="#c3c3c3"/><path d="m368 128h104v16h-104z" fill="#c3c3c3"/><path d="m88 424h384v32h-384z" fill="#da922a"/><path d="m88 434.471h384v20.946h-384z" fill="#c38325"/><path d="m240 128h80v16h-80z" fill="#c3c3c3"/><path d="m128 136h16v288h-16z" fill="#dbdbdb"/><path d="m176 304h16v120h-16z" fill="#dbdbdb"/><path d="m224 304h16v120h-16z" fill="#dbdbdb"/><path d="m272 304h16v120h-16z" fill="#dbdbdb"/><path d="m416 136h16v168h-16z" fill="#dbdbdb"/><path d="m472 464h-384a8 8 0 0 1 -8-8v-352a8 8 0 0 1 8-8h384a8 8 0 0 1 8 8v352a8 8 0 0 1 -8 8zm-376-16h368v-336h-368z" fill="#c3c3c3"/><path d="m224 168h-16v-80a8 8 0 0 0 -16 0v8h-16v-8a24 24 0 0 1 48 0z" fill="#6cbae5"/><path d="m352 168h-16v-80a8 8 0 0 0 -16 0v8h-16v-8a24 24 0 0 1 48 0z" fill="#6cbae5"/><path d="m365.155 216a32 32 0 1 0 -53.155-24h-64a32 32 0 1 0 -53.155 24 32 32 0 1 0 53.155 24h64a32 32 0 1 0 53.155-24z" fill="#ebebeb"/><path d="m216 232a40.045 40.045 0 0 1 -40-40h16a24.027 24.027 0 0 0 24 24z" fill="#dbdbdb"/><path d="m384 240h-16a24.027 24.027 0 0 0 -24-24v-16a40.045 40.045 0 0 1 40 40z" fill="#dbdbdb"/><path d="m17.6 284.8 24 32a8 8 0 0 0 6.4 3.2v24a8 8 0 0 0 6.868 7.919l25.132 3.591v100.49a8 8 0 0 0 8 8h8v24a8 8 0 0 0 16 0v-24h336v24a8 8 0 0 0 16 0v-24h8a8 8 0 0 0 8-8v-352a8 8 0 0 0 -8-8h-120v-8a24 24 0 0 0 -48 0v8h-80v-8a24 24 0 0 0 -48 0v8h-88a8 8 0 0 0 -8 8v48.022a39.978 39.978 0 0 0 -64 31.978v96h.017a7.979 7.979 0 0 0 1.583 4.8zm446.4-12.8h-32v-32h32zm0-48h-32v-32h32zm0-48h-32v-32h32zm-144-88a8 8 0 0 1 16 0v8h-16zm-96 24h112v40.813a40.118 40.118 0 0 0 -31.2 31.187h-49.6a40.118 40.118 0 0 0 -31.2-31.187zm16 80a8 8 0 0 0 8 8h64a8 8 0 0 0 8-8 24 24 0 1 1 43.941 13.333 39.967 39.967 0 0 0 -19.941-5.333v16a23.968 23.968 0 0 1 15.8 5.941c.02.019.038.04.059.059a24 24 0 1 1 -39.859 18 8 8 0 0 0 -8-8h-64a8 8 0 0 0 -8 8 24 24 0 1 1 -43.941-13.333 39.967 39.967 0 0 0 19.941 5.333v-16a23.968 23.968 0 0 1 -15.8-5.941c-.02-.019-.038-.04-.059-.059a24 24 0 1 1 39.859-18zm-48-104a8 8 0 0 1 16 0v8h-16zm-96 24h112v40.805a39.99 39.99 0 0 0 -23.989 63.195 40 40 0 1 0 71.189 32h49.6a40 40 0 1 0 71.185-32 39.99 39.99 0 0 0 -23.985-63.195v-40.805h112v16h-96v16h48v32h-16v16h16v32h-16v16h16v32h-16v16h16v16h16v-16h32v128h-17.222l-6.886-41.315a8 8 0 0 0 -7.892-6.685h-.742a24 24 0 0 0 -28.826-29.208 23.961 23.961 0 0 0 -36.864 0 23.958 23.958 0 0 0 -28.826 29.208h-.742a8 8 0 0 0 -7.892 6.685l-6.886 41.315h-33.222v-32h16v-16h-16v-32h32v-16h-32v-16h-16v16h-32v-16h-16v16h-32v-16h-16v16h-32v-32h16v-16h-16v-32h16v-16h-16v-32h16v-16h-16v-32h48v-16h-96zm329.223 272 5.334 32h-93.114l5.334-32zm-73.223-21.859a8 8 0 0 1 12.451-6.648 8 8 0 0 0 12.012-3.993 7.98 7.98 0 0 1 15.074 0 8 8 0 0 0 12.012 3.993 7.991 7.991 0 0 1 9.875 12.507h-58.848a8.021 8.021 0 0 1 -2.576-5.859zm-112 5.859v-32h32v32zm32 16v32h-32v-32zm-80-16v-32h32v32zm32 16v32h-32v-32zm-80-16v-32h32v32zm32 16v32h-32v-32zm-80-240h32v32h-32zm0 48h32v32h-32zm0 48h32v32h-32zm0 48h32v32h-32zm0 69.8 14.868 2.124 2.264-15.838-17.132-2.453v-5.633h32v32h-32zm0 26.2h32v32h-32zm0 48h368v16h-368zm-44-128-12-16h32l-12 16zm28 35.347-16-2.285v-17.062a8 8 0 0 0 6.4-3.2l9.6-12.8zm-24-179.347a24.042 24.042 0 0 1 22.629 16h-45.258a24.042 24.042 0 0 1 22.629-16zm-24 96h24v-16h-24v-16h24v-16h-24v-16h48v80h-48z"/><path d="m240 128h80v16h-80z"/></g></svg>