<svg height="512" viewBox="0 0 512 512" width="512" xmlns="http://www.w3.org/2000/svg"><g id="filled_outline" data-name="filled outline"><path d="m24.004 24h464v104h-464z" fill="#f9adb1"/><path d="m452 88a36 36 0 0 0 -36 36v4a40 40 0 0 0 -80 0l-73.27 7.327 1.27-3.127-80.7-27.24a39.812 39.812 0 0 0 -7.3 23.04 40 40 0 0 0 -80 0v-4a36 36 0 0 0 -72 0 357.394 357.394 0 0 0 10.672 86.686l21.328 85.314 33.957-108.663a132.762 132.762 0 0 0 6.043-39.596v4.144a38.906 38.906 0 0 0 11.4 27.515l27.22 27.22a1.959 1.959 0 0 0 2.77 0l27.22-27.22a38.906 38.906 0 0 0 11.4-27.51 38.906 38.906 0 0 0 11.39 27.5l27.22 27.22a1.962 1.962 0 0 0 2.78 0l27.22-27.22a38.906 38.906 0 0 0 11.38-27.5 38.906 38.906 0 0 0 11.39 27.5l27.22 27.22a1.962 1.962 0 0 0 2.78 0l27.22-27.22a38.906 38.906 0 0 0 11.39-27.5 38.906 38.906 0 0 0 11.4 27.51l27.22 27.22a1.959 1.959 0 0 0 2.77 0l27.22-27.22a38.906 38.906 0 0 0 11.39-27.515v-4.144a132.762 132.762 0 0 0 6.043 39.6l33.957 108.659 21.328-85.314a357.394 357.394 0 0 0 10.672-86.686 36 36 0 0 0 -36-36z" fill="#e4e4e2"/><path d="m325.826 72a7.956 7.956 0 0 1 -4.16-1.173 46.613 46.613 0 0 0 -24.293-6.827h-2.745a46.32 46.32 0 0 0 -19.315 4.188 8 8 0 0 1 -6.626-14.563 62.215 62.215 0 0 1 25.941-5.625h2.745a62.61 62.61 0 0 1 32.627 9.172 8 8 0 0 1 -4.174 14.828z" fill="#eea5a9"/><path d="m368 224h16v16h-16z" fill="#c0f5f9"/><path d="m368 256h16v32h-16z" fill="#c0f5f9"/><path d="m256 128v8l-17.23 5.44a32.787 32.787 0 0 1 -32-6.72c-.38-.35-.76-.71-1.13-1.08l-16.64-16.64a19.806 19.806 0 0 1 -5.7-12.043 40 40 0 0 1 72.7 23.043z" fill="#fbb540"/><circle cx="224" cy="120" fill="#da922a" r="8"/><path d="m336 128h-14.2a18.3 18.3 0 0 0 -15.23 8.15 23.464 23.464 0 0 1 -28.25 8.78l-22.32-8.93v-8a40.012 40.012 0 0 1 34.91-39.68c.33-.04.67-.08 1-.11s.68-.07 1.01-.09c.63-.05 1.25-.08 1.87-.1.41-.01.81-.02 1.21-.02a40.8 40.8 0 0 1 6.09.46c.66.1 1.32.22 1.97.35a41.692 41.692 0 0 1 5.69 1.62c.61.22 1.22.46 1.81.71a40.077 40.077 0 0 1 24.44 36.86z" fill="#fbb540"/><circle cx="288" cy="120" fill="#da922a" r="8"/><path d="m344 320a8 8 0 0 1 -8-8v-152a8 8 0 0 1 3.922-6.883l19.838-11.756a4 4 0 0 0 -3.76-5.361h-44a8 8 0 0 1 0-16h44a20 20 0 0 1 16 32 8.017 8.017 0 0 1 -2.321 2.081l-17.679 10.478v147.441a8 8 0 0 1 -8 8z" fill="#6cbae5"/><path d="m344 312a24 24 0 0 1 24 24v152a0 0 0 0 1 0 0h-48a0 0 0 0 1 0 0v-152a24 24 0 0 1 24-24z" fill="#428dc5"/><g fill="#3775a4"><path d="m344 384h24v16h-24z"/><path d="m344 416h24v16h-24z"/><path d="m344 448h24v16h-24z"/></g><path d="m320 360h48v-24a24 24 0 0 0 -24-24 24 24 0 0 0 -24 24z" fill="#4799cf"/><path d="m368 224h16v16h-16z"/><path d="m368 256h16v32h-16z"/><path d="m488 16h-464a8 8 0 0 0 -8 8v104c0 .241.015.478.036.713a365.763 365.763 0 0 0 10.875 83.914l21.328 85.313a8 8 0 0 0 7.53 6.06h.233a8 8 0 0 0 7.634-5.614l33.957-108.662c.726-2.322 1.367-4.665 1.971-7.015.7.8 1.416 1.585 2.173 2.343l27.221 27.22a9.968 9.968 0 0 0 14.084 0l27.221-27.22a47.407 47.407 0 0 0 5.753-6.974 46.4 46.4 0 0 0 5.717 6.97l27.219 27.219a9.98 9.98 0 0 0 14.1 0l27.219-27.219a46.406 46.406 0 0 0 5.729-6.993 46.406 46.406 0 0 0 5.733 6.993l27.219 27.219a9.98 9.98 0 0 0 14.1 0l27.219-27.219a46.4 46.4 0 0 0 5.717-6.97l.016.023v126.912a32.057 32.057 0 0 0 -24.004 30.987v152a8 8 0 0 0 8 8h48a8 8 0 0 0 8-8v-152a32.057 32.057 0 0 0 -24-30.987v-109.7l16.958 16.958a9.968 9.968 0 0 0 14.084 0l27.221-27.22c.757-.758 1.475-1.544 2.173-2.343.6 2.35 1.245 4.693 1.971 7.015l33.957 108.663a8 8 0 0 0 7.636 5.614h.233a8 8 0 0 0 7.53-6.057l21.328-85.313a365.729 365.729 0 0 0 10.875-83.91c.021-.237.036-.475.036-.717v-104.003a8 8 0 0 0 -8.002-8zm-8 16v58.084a43.934 43.934 0 0 0 -64.944 10.063 47.941 47.941 0 0 0 -79.039 1.333 48.6 48.6 0 0 0 -6.08-7.418 47.965 47.965 0 0 0 -73.92 7.418 48.6 48.6 0 0 0 -6.08-7.418 48 48 0 0 0 -73.174 6.287c-.029.041-.056.083-.085.124l-.043.064c-.22.316-.433.634-.645.953a47.942 47.942 0 0 0 -79.046-1.343 43.934 43.934 0 0 0 -64.944-10.063v-58.084zm-120 108a4.009 4.009 0 0 1 -.24 1.361l-15.76 9.339v-14.7h12a4 4 0 0 1 4 4zm-48-20a8 8 0 0 0 -7.908 6.848 26.429 26.429 0 0 0 -4.183 4.867 15.539 15.539 0 0 1 -18.623 5.783l-17.286-6.914v-2.484c0-.033 0-.064 0-.1s0-.042 0-.064a32.006 32.006 0 0 1 62.992-7.936zm-64 10.136-11.635 3.674a24.783 24.783 0 0 1 -24.171-4.97c-.3-.278-.6-.563-.9-.857l-19.62-19.619-.1-1.025a32 32 0 0 1 56.426 20.661zm-165.679 54.815-25.465 81.488-14.423-57.693a349.712 349.712 0 0 1 -10.433-84.746 28 28 0 0 1 56 0v23.741a124.566 124.566 0 0 1 -5.679 37.209zm53.679 11.736-22.948-22.95a30.7 30.7 0 0 1 -9.052-21.851v-23.886a32 32 0 0 1 64 0v23.886a30.7 30.7 0 0 1 -9.052 21.851zm102.952-22.954-22.952 22.954-22.952-22.954a31.1 31.1 0 0 1 -9.048-21.842v-23.891a32.4 32.4 0 0 1 .312-4.373l15.671 15.673c.446.444.905.88 1.382 1.32a40.188 40.188 0 0 0 27.183 10.4 42.039 42.039 0 0 0 12.63-1.948l6.822-2.157v4.976a31.1 31.1 0 0 1 -9.048 21.842zm89.048-21.842a31.1 31.1 0 0 1 -9.048 21.842l-22.952 22.954-22.952-22.954a31.1 31.1 0 0 1 -9.048-21.842v-4.075l11.344 4.538a31.2 31.2 0 0 0 11.594 2.229 31.624 31.624 0 0 0 26.284-13.993 10.287 10.287 0 0 1 8.578-4.59h6.2zm0 328.109v-112h32v16h-16v16h16v16h-16v16h16v16h-16v16h16v16zm32-144v16h-32v-16a16 16 0 0 1 32 0zm48-184.114a30.7 30.7 0 0 1 -9.052 21.851l-22.948 22.95-22.948-22.95q-.542-.541-1.052-1.1v-8.074l17.678-10.476a8.017 8.017 0 0 0 2.322-2.087 19.981 19.981 0 0 0 -15.18-31.96 7.906 7.906 0 0 0 -.82-.04h-10.987a32 32 0 0 1 62.987 8zm47.144 114.553-25.465-81.488a124.566 124.566 0 0 1 -5.679-37.21v-23.741a28 28 0 0 1 56 0 349.712 349.712 0 0 1 -10.433 84.746z"/><path d="m275.313 68.188a46.32 46.32 0 0 1 19.315-4.188h2.745a46.613 46.613 0 0 1 24.293 6.828 8 8 0 0 0 8.334-13.656 62.61 62.61 0 0 0 -32.627-9.172h-2.745a62.215 62.215 0 0 0 -25.941 5.625 8 8 0 0 0 6.626 14.563z"/><circle cx="224" cy="120" r="8"/><circle cx="288" cy="120" r="8"/></g></svg>