<svg height="512" viewBox="0 0 512 512" width="512" xmlns="http://www.w3.org/2000/svg"><g id="filled_outline" data-name="filled outline"><path d="m112 408v48c0 17.67 64.47 32 144 32s144-14.33 144-32v-48zm80 28.67q7.74.855 16 1.51z" fill="#cbcbcb"/><path d="m192 293.49v-8.49h16v9.61q-8.13-.48-16-1.12zm-136-45.49 2.83 8.1 53.17 151.9c0 12.56 32.58 23.43 80 28.67q7.74.855 16 1.51c15.01 1.18 31.17 1.82 48 1.82 79.53 0 144-14.33 144-32l53.17-151.9 2.83-8.1z" fill="#eaeae8"/><path d="m456 248a13.956 13.956 0 0 1 -2.83 8.1c-10.91 15.42-52.5 28.34-109.17 35.02a762.3 762.3 0 0 1 -88 4.88c-16.55 0-32.63-.48-48-1.39l-16-1.12q-12.39-1-24-2.38c-56.67-6.67-98.25-19.58-109.17-35.01a13.956 13.956 0 0 1 -2.83-8.1c0-26.51 89.54-48 200-48s200 21.49 200 48z" fill="#a8a8a8"/><rect fill="#fbd699" height="224" rx="52" width="240" x="136" y="56"/><g fill="#dbdbdb"><path d="m208 294.61v143.57q-8.25-.645-16-1.51v-143.18q7.86.63 16 1.12z"/><path d="m162.621 304h16v16h-16z"/><path d="m162.621 336h16v16h-16z"/><path d="m162.621 368h16v16h-16z"/><path d="m162.621 400h16v16h-16z"/></g><circle cx="192" cy="168" fill="#744630" r="16"/><circle cx="320" cy="168" fill="#744630" r="16"/><path d="m187.5 87.529-45.321 84.971a8 8 0 0 1 -13.612.823l-34.782-49.693a32 32 0 0 1 1.227-38.341l7.424-9.279a32 32 0 0 1 24.988-12.01h45.953a16 16 0 0 1 14.123 23.529z" fill="#744630"/><path d="m324.505 87.529 45.316 84.971a8 8 0 0 0 13.612.823l34.782-49.689a32 32 0 0 0 -1.227-38.341l-7.424-9.279a32 32 0 0 0 -24.988-12.014h-45.953a16 16 0 0 0 -14.118 23.529z" fill="#744630"/><path d="m240 152h-16a24.027 24.027 0 0 0 -24-24v-16a40.045 40.045 0 0 1 40 40z" fill="#e2c18a"/><path d="m288 152h-16a40.045 40.045 0 0 1 40-40v16a24.027 24.027 0 0 0 -24 24z" fill="#e2c18a"/><path d="m274 56h-16-4-16l-20.4 27.2 12.8 9.6 25.6-34.13 25.6 34.13 12.8-9.6z" fill="#e2c18a"/><path d="m240 352h16v56h-16z" fill="#f9f9f9"/><path d="m240 320h16v16h-16z" fill="#f9f9f9"/><path d="m432.411 50.529a27.065 27.065 0 0 0 -25.711-18.529h-6.7v-16h6.7a43.042 43.042 0 0 1 40.887 29.471z" fill="#c0f5f9"/><path d="m368 16h16v16h-16z" fill="#c0f5f9"/><path d="m79.589 50.529-15.178-5.058a43.042 43.042 0 0 1 40.889-29.471h6.7v16h-6.7a27.065 27.065 0 0 0 -25.711 18.529z" fill="#c0f5f9"/><path d="m128 16h16v16h-16z" fill="#c0f5f9"/><path d="m336 264 8 27.12a762.3 762.3 0 0 1 -88 4.88c-16.55 0-32.63-.48-48-1.39l-16-1.12q-12.39-1-24-2.38l8-27.11z" fill="#fbd699"/><path d="m287.79 296h-63.58a48.21 48.21 0 0 1 -48.21-48.21 48.211 48.211 0 0 1 29.219-44.313l26.781-11.477h48l26.781 11.477a48.211 48.211 0 0 1 29.219 44.313 48.21 48.21 0 0 1 -48.21 48.21z" fill="#8f563b"/><path d="m224.21 296-.106-20.171a31.9 31.9 0 0 1 17.632-28.7 31.893 31.893 0 0 1 28.528 0 31.9 31.9 0 0 1 17.632 28.7l-.106 20.171z" fill="#744630"/><rect fill="#744630" height="40" rx="20" width="48" x="232" y="176"/><path d="m162.621 304h16v16h-16z"/><path d="m162.621 336h16v16h-16z"/><path d="m162.621 368h16v16h-16z"/><path d="m162.621 400h16v16h-16z"/><path d="m168 168a24 24 0 1 0 24-24 24.027 24.027 0 0 0 -24 24zm32 0a8 8 0 1 1 -8-8 8.009 8.009 0 0 1 8 8z"/><path d="m296 168a24 24 0 1 0 24-24 24.027 24.027 0 0 0 -24 24zm24-8a8 8 0 1 1 -8 8 8.009 8.009 0 0 1 8-8z"/><path d="m224 152h16a40.045 40.045 0 0 0 -40-40v16a24.027 24.027 0 0 1 24 24z"/><path d="m312 128v-16a40.045 40.045 0 0 0 -40 40h16a24.027 24.027 0 0 1 24-24z"/><path d="m240 352h16v56h-16z"/><path d="m240 320h16v16h-16z"/><path d="m104 409.36v46.64c0 13.236 15.845 23.191 48.441 30.436 27.752 6.164 64.53 9.564 103.559 9.564s75.807-3.4 103.559-9.564c32.596-7.245 48.441-17.2 48.441-30.436v-46.64l52.409-149.726a21.429 21.429 0 0 0 3.591-11.634c0-23.961-42.043-37.6-80-45.036v-19.894a15.972 15.972 0 0 0 5.987-5.164l34.782-49.688a40.218 40.218 0 0 0 -1.534-47.926l-7.423-9.28a39.808 39.808 0 0 0 -31.235-15.012h-30.639a59.791 59.791 0 0 0 -29.938-8h-136a59.791 59.791 0 0 0 -29.938 8h-30.639a39.806 39.806 0 0 0 -31.235 15.013l-7.423 9.279a40.218 40.218 0 0 0 -1.534 47.926l34.782 49.688a15.963 15.963 0 0 0 5.987 5.164v19.894c-37.957 7.436-80 21.075-80 45.036a21.427 21.427 0 0 0 3.592 11.635zm15.551-4-44.861-128.166c27.716 12.972 73.257 20.741 117.31 24.306v127.124c-20.106-2.258-37.464-5.544-50.587-9.6-18.634-5.746-21.213-10.669-21.413-11.124a8.047 8.047 0 0 0 -.449-2.543zm132.449-181.36h8a28.044 28.044 0 0 0 26.923-20.328l16.708 7.163a40.145 40.145 0 0 1 24.369 36.955v.178a40.14 40.14 0 0 1 -10.311 26.708c-.442.5-.936 1.016-1.466 1.547a39.988 39.988 0 0 1 -19.531 10.771c-.283.014-.571.024-.855.038l.059-11.161a39.652 39.652 0 0 0 -22.054-35.894 40.089 40.089 0 0 0 -35.685 0 39.653 39.653 0 0 0 -22.057 35.894l.059 11.166-.9-.043a40.218 40.218 0 0 1 -31.259-38.994v-.21a40.19 40.19 0 0 1 24.379-36.96l16.7-7.158a28.044 28.044 0 0 0 26.921 20.328zm-12-28a12.013 12.013 0 0 1 12-12h8a12 12 0 0 1 0 24h-8a12.013 12.013 0 0 1 -12-12zm39.9 79.787-.063 11.871c-7.956.226-15.943.342-23.833.342s-15.88-.116-23.833-.342l-.063-11.871a23.754 23.754 0 0 1 13.208-21.5 24.013 24.013 0 0 1 21.375 0 23.753 23.753 0 0 1 13.209 21.5zm112.1 180.121c-.694 2.117-9.18 9.326-38.876 15.548-26.294 5.51-60.787 8.544-97.124 8.544s-70.83-3.034-97.124-8.544c-29.7-6.222-38.182-13.431-38.876-15.548v-28.186a96.047 96.047 0 0 0 14.11 5.773c16.268 5.348 38.794 9.484 65.14 11.96 17.95 1.689 37.043 2.545 56.75 2.545 39.029 0 75.807-3.4 103.559-9.564 13.79-3.065 24.578-6.616 32.441-10.695zm.449-50.551a8.023 8.023 0 0 0 -.449 2.549c-.689 2.115-9.172 9.326-38.876 15.55-26.294 5.51-60.787 8.544-97.124 8.544-16.573 0-32.681-.624-48-1.848v-127.53q2.632.156 5.246.291a56.413 56.413 0 0 0 10.964 1.087h63.58a56.419 56.419 0 0 0 10.963-1.087c50.048-2.6 106.344-10.643 138.558-25.721zm55.419-158.33-1.817 5.227c-8.713 10.752-41.509 23.167-96.815 30.207a60 60 0 0 0 34.764-54.461v-8.718c44.528 9.098 62.286 20.99 63.868 27.745zm-116.105-171.143a7.878 7.878 0 0 1 6.86-3.884h45.954a23.882 23.882 0 0 1 18.74 9.007l7.424 9.279a24.132 24.132 0 0 1 .921 28.756l-34.783 49.688-45.315-84.965a7.877 7.877 0 0 1 .199-7.881zm-137.806-8.232a24.4 24.4 0 0 0 -2.684-3.652h40.727l-14.4 19.2 12.8 9.6 21.6-28.8h8l21.6 28.8 12.8-9.6-14.4-19.2h40.727a24.4 24.4 0 0 0 -2.684 3.652 23.807 23.807 0 0 0 -.6 23.642l45.315 84.966a15.982 15.982 0 0 0 5.242 5.792v45.948a43.993 43.993 0 0 1 -28.2 41.084 56.234 56.234 0 0 0 4.2-21.084v-.21a56.121 56.121 0 0 0 -34.062-51.659l-23.823-10.214a28.042 28.042 0 0 0 -26.115-17.917h-8a28.04 28.04 0 0 0 -26.114 17.917l-23.819 10.211a56.193 56.193 0 0 0 -34.067 51.662v.242a56.15 56.15 0 0 0 4.2 21.051 44 44 0 0 1 -28.2-41.083v-45.948a15.982 15.982 0 0 0 5.238-5.792l45.315-84.966a23.807 23.807 0 0 0 -.596-23.642zm-93.619 51.39a24.132 24.132 0 0 1 .921-28.756l7.424-9.278a23.88 23.88 0 0 1 18.74-9.008h45.954a8 8 0 0 1 7.059 11.765l-45.316 84.965zm27.662 100.24v8.718a60 60 0 0 0 34.765 54.461c-55.3-7.04-88.1-19.455-96.815-30.207l-1.818-5.227c1.583-6.755 19.34-18.647 63.868-27.745z"/><path d="m432.411 50.529 15.178-5.058a43.042 43.042 0 0 0 -40.889-29.471h-6.7v16h6.7a27.065 27.065 0 0 1 25.711 18.529z"/><path d="m368 16h16v16h-16z"/><path d="m64.411 45.471 15.178 5.058a27.065 27.065 0 0 1 25.711-18.529h6.7v-16h-6.7a43.042 43.042 0 0 0 -40.889 29.471z"/><path d="m128 16h16v16h-16z"/></g></svg>