<svg height="512" viewBox="0 0 512 512" width="512" xmlns="http://www.w3.org/2000/svg"><g id="filled_outline" data-name="filled outline"><path d="m488 400v88h-336l-11.56-17.34a8 8 0 0 1 2.22-11.1l17.34-11.56v-32l-25.36-63.39-6.64-16.61-9-18-13.9-27.79a162.116 162.116 0 0 1 -17.1-72.45v-53.26l-39.48-11.28a25.982 25.982 0 0 1 -18.65-21.77l-1.99-15.92-3.88-31.03h56l10.35-20.7a72.01 72.01 0 0 1 69.92-39.59l30.49 2.35a52 52 0 0 1 39.28 23l33.96 50.94 21.69 35.45a350.958 350.958 0 0 0 86.58 95.88l52.1 39.69a161.541 161.541 0 0 1 63.63 128.48z" fill="#f3af3e"/><path d="m173.13 79.157-6.966 45.279a55.61 55.61 0 0 0 30.094 58.195 55.612 55.612 0 0 0 24.87 5.871h10.872v-107.056a20.944 20.944 0 0 0 -2.211-9.366 20.944 20.944 0 0 0 -18.733-11.58h-16.182a22 22 0 0 0 -21.744 18.657z" fill="#c38325"/><path d="m399.25 443.39a8.021 8.021 0 0 1 -7.25 4.61h-65.69a22.338 22.338 0 0 0 -22.31 22.31v17.69h-16v-17.69a38.346 38.346 0 0 1 38.31-38.31h48.64a140.835 140.835 0 0 1 -30.95-88 8 8 0 0 1 16 0 124.8 124.8 0 0 0 28.87 79.75l9.28 11.13a8.019 8.019 0 0 1 1.1 8.51z" fill="#c38325"/><path d="m448 224c0 2.69-.08 5.35-.25 8q-.255 4.035-.76 8a126.422 126.422 0 0 1 -12.04 40.33 128.211 128.211 0 0 1 -82.88 67.61.185.185 0 0 1 -.07.02 127.99 127.99 0 0 1 -158.99-107.96q-.51-3.96-.76-8c-.17-2.65-.25-5.31-.25-8a128.01 128.01 0 0 1 235.4-69.66q2.76 4.245 5.19 8.72a127.416 127.416 0 0 1 15.41 60.94z" fill="#c0f5f9"/><path d="m56 84.5v6.82a22.005 22.005 0 0 1 -16.66 21.35l-11.46 2.86-3.88-31.03z" fill="#c38325"/><circle cx="128" cy="76.502" fill="#c38325" r="16"/><path d="m296 392h48v96h-48z" fill="#428dc5"/><path d="m447.75 232q-.255 4.035-.76 8a126.422 126.422 0 0 1 -12.04 40.33 128.211 128.211 0 0 1 -82.88 67.61.185.185 0 0 1 -.07.02 127.99 127.99 0 0 1 -158.99-107.96q-.51-3.96-.76-8z" fill="#eeb58e"/><path d="m272 256h16v16h-16z" fill="#f55648"/><path d="m272 296h16v16h-16z" fill="#b94137"/><path d="m344 296h16v16h-16z" fill="#f55648"/><path d="m376 296h16v16h-16z" fill="#f55648"/><path d="m360 272h16v16h-16z" fill="#b94137"/><path d="m205.66 453.66-11.37 11.36 12.37 18.54a7.985 7.985 0 0 1 1.34 4.44h-17.62l-9.4-14.11a16.044 16.044 0 0 1 2-20.18l9.02-9.02v-41.1l-57.36-50.98-6.64-16.61-9-18a7.882 7.882 0 0 1 2.48 1.5l83.83 74.52a7.994 7.994 0 0 1 2.69 5.98v48a8.008 8.008 0 0 1 -2.34 5.66z" fill="#c38325"/><path d="m256 384v104h-16v-101.58l-14.66-21.98a8 8 0 1 1 13.32-8.88l16 24a8.066 8.066 0 0 1 1.34 4.44z" fill="#c38325"/><path d="m447.75 232q-.255 4.035-.76 8h-253.98l-.76-8z" fill="#bd9070"/><g fill="#744630"><path d="m359.352 136a258.4 258.4 0 0 0 -46.847 124.477l-.429 4.284a15.352 15.352 0 0 0 4.421 12.383 15.351 15.351 0 0 0 21.711 0l.648-.647a15.354 15.354 0 0 0 4.5-10.856v-33.831a258.394 258.394 0 0 1 7.715-62.67z"/><path d="m432.59 163.06-1.52 6.08a258.11 258.11 0 0 0 -7.72 62.67v33.83a15.4 15.4 0 0 1 -4.49 10.86l-.65.64a15.351 15.351 0 0 1 -26.13-12.38l.42-4.28a258.233 258.233 0 0 1 34.9-106.14q2.76 4.245 5.19 8.72z"/><path d="m263.352 136a258.4 258.4 0 0 0 -46.847 124.477l-.429 4.284a15.352 15.352 0 0 0 4.421 12.383 15.351 15.351 0 0 0 21.711 0l.648-.647a15.354 15.354 0 0 0 4.5-10.856v-33.831a258.394 258.394 0 0 1 7.715-62.67z"/></g><path d="m456 224c0-74.991-61.01-136-136-136s-136 61.009-136 136c0 63.971 44.4 117.758 104 132.188v35.812h64v-35.812c59.6-14.43 104-68.217 104-132.188zm-136 120a120 120 0 1 1 120-120 120.136 120.136 0 0 1 -120 120z" fill="#428dc5"/><path d="m296 392h48v16h-48z" fill="#3775a4"/><circle cx="128" cy="76.502" r="16"/><path d="m272 256h16v16h-16z"/><path d="m272 296h16v16h-16z"/><path d="m344 296h16v16h-16z"/><path d="m376 296h16v16h-16z"/><path d="m360 272h16v16h-16z"/><path d="m21.932 132.442a33.93 33.93 0 0 0 24.39 28.473l33.678 9.622v47.22a170.867 170.867 0 0 0 17.947 76.026l22.748 45.5 31.305 78.258v26.178l-13.781 9.187a16 16 0 0 0 -4.438 22.188l11.563 17.344a8 8 0 0 0 6.656 3.562h336a8 8 0 0 0 8-8v-88a169.783 169.783 0 0 0 -51.385-121.561 134.963 134.963 0 0 0 10.985-43.946 7.961 7.961 0 0 0 .245-4.063c.1-2.131.156-4.274.156-6.43a135.176 135.176 0 0 0 -14.925-61.907l6.038-24.153a8 8 0 0 0 -14.27-6.59q-3.059 4.283-5.933 8.679a135.88 135.88 0 0 0 -155.652-42.991l-.436-.712c-.053-.088-.109-.176-.167-.262l-33.956-50.939a59.621 59.621 0 0 0 -45.322-26.54l-30.492-2.349a79.7 79.7 0 0 0 -77.692 43.989l-8.138 16.275h-51.056a8 8 0 0 0 -7.938 9zm170.068 312.245-9.02 9.019a16.045 16.045 0 0 0 -2 20.189l4.072 6.105h-28.771l-9.187-13.781 17.344-11.563a8 8 0 0 0 3.562-6.656v-32a8 8 0 0 0 -.572-2.971l-19.414-48.536 43.986 39.1zm144 35.313h-32v-80h32zm8-96h-48v-26.121a136.846 136.846 0 0 0 48 0zm90.949-194.459a119.593 119.593 0 0 1 5.051 34.459h-8.524a250.765 250.765 0 0 1 3.473-34.459zm-3.6 76.1v-25.641h7.578a119 119 0 0 1 -7.9 29.5 23.551 23.551 0 0 0 .326-3.859zm5.572 27.742a153.768 153.768 0 0 1 43.079 106.617v80h-128v-32h40a8 8 0 0 0 6.146-13.122l-9.272-11.125a123.689 123.689 0 0 1 -28.459-69.883 136.65 136.65 0 0 0 76.51-60.487zm-84.921 138.617v-32a7.967 7.967 0 0 0 3.283-.71 140.433 140.433 0 0 0 19.666 32.71zm72.512-149.846c.365-.365.713-.745 1.05-1.13a119.954 119.954 0 0 1 -209.487 2.919 23.341 23.341 0 0 0 31.792-1.144l.645-.645a23.2 23.2 0 0 0 6.841-16.513v-25.641h51.916q-1.722 9.771-2.724 19.68l-.429 4.285a23.352 23.352 0 0 0 39.751 18.835l.645-.645a23.2 23.2 0 0 0 6.841-16.513v-25.642h35.916q-1.722 9.771-2.724 19.68l-.429 4.285a23.352 23.352 0 0 0 39.751 18.835zm-200.476-16.6.429-4.285a250.587 250.587 0 0 1 18.319-72.069 266.581 266.581 0 0 0 -3.431 42.613v33.831a7.3 7.3 0 0 1 -2.157 5.2l-.645.646a7.353 7.353 0 0 1 -12.515-5.93zm96 0 .429-4.285a250.587 250.587 0 0 1 18.319-72.069 266.581 266.581 0 0 0 -3.431 42.613v33.831a7.3 7.3 0 0 1 -2.157 5.2l-.645.646a7.353 7.353 0 0 1 -12.515-5.93zm95.317-33.748v33.831a7.3 7.3 0 0 1 -2.157 5.2l-.645.646a7.353 7.353 0 0 1 -12.515-5.93l.429-4.285a250.587 250.587 0 0 1 18.319-72.068 266.581 266.581 0 0 0 -3.431 42.61zm-158.807-128.064a136.323 136.323 0 0 0 -16.546 10.349v-32.645c0-.913-.055-1.826-.143-2.736zm63.454.258a119.936 119.936 0 0 1 97.934 50.729 267.078 267.078 0 0 0 -27.334 69.271h-39.124a250.722 250.722 0 0 1 7.352-52.919l8.285-33.141a8 8 0 0 0 -14.27-6.59 266.807 266.807 0 0 0 -42.243 92.65h-55.124a250.722 250.722 0 0 1 7.352-52.919l8.285-33.141a8 8 0 0 0 -14.27-6.59 266.807 266.807 0 0 0 -42.243 92.65h-14.6a120.136 120.136 0 0 1 120-120zm-111.979 163.129a119.031 119.031 0 0 1 -6.952-27.129h10.2q-1.722 9.771-2.724 19.68l-.429 4.285a23.618 23.618 0 0 0 -.095 3.164zm-13.759-94.929a47.442 47.442 0 0 1 -20.191-46.543l6.966-45.278a13.926 13.926 0 0 1 13.837-11.879h16.182a12.875 12.875 0 0 1 11.578 7.156 13.017 13.017 0 0 1 1.366 5.79v46.314a136.475 136.475 0 0 0 -29.738 44.44zm-130.312-79.7h16.05a8 8 0 0 0 7.155-4.422l10.35-20.7a63.759 63.759 0 0 1 62.15-35.191l30.493 2.35a43.716 43.716 0 0 1 33.236 19.463l1.23 1.845a28.954 28.954 0 0 0 -13.558-3.345h-16.182a29.838 29.838 0 0 0 -29.651 25.44l-6.966 45.28a63.394 63.394 0 0 0 30.66 64.514 135.7 135.7 0 0 0 -4.917 36.266c0 2.156.056 4.3.156 6.43a7.961 7.961 0 0 0 .245 4.063 136.321 136.321 0 0 0 95.6 119.5v38.007a8 8 0 0 0 8 8v80h-32.001v-96a8 8 0 0 0 -1.344-4.438l-16-24a8 8 0 1 0 -13.312 8.876l14.656 21.984v93.578h-35.719l-9.981-14.981 11.362-11.362a8 8 0 0 0 2.338-5.657v-48a8 8 0 0 0 -2.686-5.979l-70.848-62.977-22.208-44.416a154.79 154.79 0 0 1 -16.258-68.871v-53.257a8 8 0 0 0 -5.8-7.692l-39.485-11.279a17.954 17.954 0 0 1 -12.906-15.07l-1.109-8.882 4.584-1.144a29.942 29.942 0 0 0 22.666-27.933zm-16 0a13.981 13.981 0 0 1 -10.55 12.41l-2.7.675-1.638-13.085z"/></g></svg>