<svg height="512" viewBox="0 0 512 512" width="512" xmlns="http://www.w3.org/2000/svg"><g id="filled_outline" data-name="filled outline"><path d="m360 200v272a16 16 0 0 1 -16 16h-176a16 16 0 0 1 -16-16v-272z" fill="#b3e4e8"/><g fill="#fbb540"><path d="m376 112v88h-240v-72a16 16 0 0 1 16-16z"/><path d="m328 456a31.991 31.991 0 0 1 -32 32h-80a32 32 0 0 1 -24-53.17c.44-.5.9-.99 1.37-1.46a31.9 31.9 0 0 1 22.63-9.37h80a32 32 0 0 1 32 32z"/><path d="m320 392a31.991 31.991 0 0 1 -32 32h-64a32 32 0 1 1 0-64h64a31.983 31.983 0 0 1 32 32z"/><path d="m296 368h-88v-17.23a27.775 27.775 0 0 1 22.328-27.236 47.17 47.17 0 0 0 28.485-17.951l13.187-17.583 18.636 14.909a36.88 36.88 0 0 1 11.2 42.494z"/></g><path d="m368 24a120 120 0 0 0 -72 216.005v32l28.34-16.194a120.012 120.012 0 1 0 43.66-231.811z" fill="#da922a"/><circle cx="368" cy="144" fill="#c0f5f9" r="89"/><path d="m368 144h-12.686l10.343-10.343-11.314-11.314-10.343 10.343v-12.686h-16v12.686l-10.343-10.343-11.314 11.314 10.343 10.343h-12.686v16h12.686l-10.343 10.343 11.314 11.314 10.343-10.343v12.686h16v-12.686l10.343 10.343 11.314-11.314-10.343-10.343h12.686zm-40 16v-16h16v16z" fill="#70400e"/><path d="m384 102.915a7.974 7.974 0 0 1 -5.657-2.343l-16-16a8 8 0 1 1 11.314-11.314l16 16a8 8 0 0 1 -5.657 13.657z" fill="#a8d6da"/><path d="m413.061 136a8 8 0 0 1 -4.841-1.63l-21.06-16 9.68-12.74 9.573 7.273 1.62-17.635 15.934 1.464-2.941 32a8 8 0 0 1 -7.965 7.268z" fill="#e08122"/><path d="m368 216a8 8 0 0 1 -5.657-13.657l16-16a8 8 0 0 1 11.314 11.314l-16 16a7.974 7.974 0 0 1 -5.657 2.343z" fill="#5e8569"/><path d="m336 104a8 8 0 0 1 -8-8v-8a8 8 0 0 1 16 0v8a8 8 0 0 1 -8 8z" fill="#5e8569"/><path d="m160 112h16v88h-16z" fill="#da922a"/><path d="m208 112h16v88h-16z" fill="#da922a"/><path d="m200 232a8 8 0 0 1 -8 8h-40v-16h40a8 8 0 0 1 8 8z" fill="#c0f5f9"/><path d="m232 240h-8a8 8 0 0 1 0-16h8a8 8 0 0 1 0 16z" fill="#c0f5f9"/><path d="m232 400h-8a8 8 0 0 1 0-16h8a8 8 0 0 1 0 16z" fill="#da922a"/><path d="m280 400h-16a8 8 0 0 1 0-16h16a8 8 0 0 1 0 16z" fill="#da922a"/><path d="m256 464h-40a8 8 0 0 1 0-16h40a8 8 0 0 1 0 16z" fill="#da922a"/><path d="m296 464h-8a8 8 0 0 1 0-16h8a8 8 0 0 1 0 16z" fill="#da922a"/><path d="m320.98 436h-128.98v-1.17c.44-.5.9-.99 1.37-1.46a31.9 31.9 0 0 1 22.63-9.37h80a31.941 31.941 0 0 1 24.98 12z" fill="#e6a63b"/><path d="m315.72 376h-119.44a32.012 32.012 0 0 1 27.72-16h64a32 32 0 0 1 27.72 16z" fill="#e6a63b"/><circle cx="336" cy="152" fill="#c38325" r="16"/><path d="m413.06 176a15.178 15.178 0 0 1 -14.4-19.979 12.716 12.716 0 0 0 0-8.042 15.178 15.178 0 0 1 14.4-19.979 15.18 15.18 0 0 1 14.4 10.379 43.076 43.076 0 0 1 0 27.242 15.18 15.18 0 0 1 -14.4 10.379z" fill="#fd9226"/><path d="m368 16a128.223 128.223 0 0 0 -121.592 88h-94.408a24.028 24.028 0 0 0 -24 24v72a8 8 0 0 0 8 8h8v264a24.028 24.028 0 0 0 24 24h176a24.028 24.028 0 0 0 24-24v-200a128 128 0 0 0 0-256zm-144 104h18.266a129.023 129.023 0 0 0 6.965 72h-25.231zm-48 0h32v72h-32zm-32 72v-64a8.009 8.009 0 0 1 8-8h8v72zm152 288h-80a24 24 0 0 1 0-48h80a24 24 0 0 1 0 48zm-72-112h64a24 24 0 0 1 0 48h-64a24 24 0 0 1 0-48zm-8-16v-1.229a19.83 19.83 0 0 1 15.9-19.392 55.1 55.1 0 0 0 33.318-21l8.234-10.98 12.19 9.752a28.715 28.715 0 0 1 8.773 33.277l-3.831 9.572zm136 120a8.009 8.009 0 0 1 -8 8h-16.022a39.949 39.949 0 0 0 -12.535-58.939 39.944 39.944 0 0 0 -9.362-64.723l3.186-7.964a44.625 44.625 0 0 0 -13.634-51.713l-18.633-14.908a8 8 0 0 0 -11.4 1.447l-13.186 17.582a39.112 39.112 0 0 1 -23.655 14.907 35.873 35.873 0 0 0 -28.759 35.082v9.25a39.933 39.933 0 0 0 -3.444 61.04 39.949 39.949 0 0 0 -12.534 58.939h-16.022a8.009 8.009 0 0 1 -8-8v-232h32a8 8 0 0 0 0-16h-32v-16h97.03a128.1 128.1 0 0 0 30.97 35.925v28.075a8 8 0 0 0 11.969 6.946l25.086-14.335a126.868 126.868 0 0 0 26.945 6.4zm16-216a111.465 111.465 0 0 1 -40.748-7.646 8 8 0 0 0 -6.881.5l-16.371 9.361v-18.209a8 8 0 0 0 -3.195-6.4 112.005 112.005 0 1 1 67.195 22.394z"/><path d="m368 47a97 97 0 1 0 97 97 97.11 97.11 0 0 0 -97-97zm0 178a81 81 0 1 1 81-81 81.092 81.092 0 0 1 -81 81z"/><path d="m357.655 162.34a23.779 23.779 0 0 0 .969-2.34h9.376v-16h-9.376a23.779 23.779 0 0 0 -.969-2.34l8-8-11.314-11.314-8 8a23.779 23.779 0 0 0 -2.34-.969v-9.377h-16.001v9.376a23.779 23.779 0 0 0 -2.34.969l-8-8-11.314 11.314 8 8a23.779 23.779 0 0 0 -.969 2.34h-9.377v16h9.376a23.779 23.779 0 0 0 .969 2.34l-8 8 11.314 11.314 8-8a23.779 23.779 0 0 0 2.34.969v9.378h16v-9.376a23.779 23.779 0 0 0 2.34-.969l8 8 11.314-11.314zm-21.655-2.34a8 8 0 1 1 8-8 8.009 8.009 0 0 1 -8 8z"/><path d="m378.343 100.572a8 8 0 0 0 11.314-11.314l-16-16a8 8 0 1 0 -11.314 11.314z"/><path d="m423.967 96.732-15.934-1.464-1.62 17.635-9.573-7.273-9.68 12.74 10.2 7.75a23.723 23.723 0 0 0 -3.1 3.506 22.935 22.935 0 0 0 -3.188 20.883 4.726 4.726 0 0 1 0 2.983 23.18 23.18 0 0 0 43.981 14.659 51.4 51.4 0 0 0 0-32.3 23.141 23.141 0 0 0 -13.373-14.184zm-4.1 66.359a7.179 7.179 0 0 1 -13.622-4.539 20.851 20.851 0 0 0 0-13.1 7.179 7.179 0 1 1 13.621-4.54 35.286 35.286 0 0 1 .005 22.179z"/><path d="m378.343 186.343-16 16a8 8 0 0 0 11.314 11.314l16-16a8 8 0 0 0 -11.314-11.314z"/><path d="m336 104a8 8 0 0 0 8-8v-8a8 8 0 0 0 -16 0v8a8 8 0 0 0 8 8z"/><path d="m232 224h-8a8 8 0 0 0 0 16h8a8 8 0 0 0 0-16z"/><path d="m224 400h8a8 8 0 0 0 0-16h-8a8 8 0 0 0 0 16z"/><path d="m264 400h16a8 8 0 0 0 0-16h-16a8 8 0 0 0 0 16z"/><path d="m256 448h-40a8 8 0 0 0 0 16h40a8 8 0 0 0 0-16z"/><path d="m296 448h-8a8 8 0 0 0 0 16h8a8 8 0 0 0 0-16z"/></g></svg>