<svg height="512" viewBox="0 0 512 512" width="512" xmlns="http://www.w3.org/2000/svg"><g id="filled_outline" data-name="filled outline"><path d="m463.2 240a40 40 0 0 0 -44.954-47.582 23.986 23.986 0 0 0 -27.144-6.707 55.962 55.962 0 0 0 -48.462-25.679 23.993 23.993 0 0 0 -36.464-11.645 71.939 71.939 0 0 0 -100.352 0 23.993 23.993 0 0 0 -36.464 11.645 55.962 55.962 0 0 0 -48.46 25.679 23.986 23.986 0 0 0 -27.144 6.707 40.03 40.03 0 0 0 -44.956 47.582l15.2 8h392z" fill="#a45e14"/><path d="m488 400h-464v-32l16-8h440l8 8z" fill="#da922a"/><path d="m488 368h-464l24-128h416z" fill="#fbb540"/><path d="m323.3 304a17.5 17.5 0 1 0 -27.224-16h-78.652a17.494 17.494 0 1 0 -27.224 16 17.5 17.5 0 1 0 27.224 16h78.652a17.494 17.494 0 1 0 27.224-16z" fill="#eaeae8"/><circle cx="192" cy="168" fill="#70400e" r="24"/><circle cx="224" cy="184" fill="#834b10" r="24"/><circle cx="112" cy="208" fill="#834b10" r="24"/><circle cx="400" cy="208" fill="#70400e" r="24"/><circle cx="320" cy="168" fill="#834b10" r="24"/><path d="m88 272a8 8 0 0 1 -8 8h-39.5l3-16h36.5a8 8 0 0 1 8 8z" fill="#fbedbf"/><path d="m136 280h-24a8 8 0 0 1 0-16h24a8 8 0 0 1 0 16z" fill="#fbedbf"/><path d="m495.962 367.242c-.025-.262-.063-.52-.112-.774 0-.021-.006-.043-.009-.064v-.014l-23.974-127.86a8.007 8.007 0 0 0 -.211-.844 48.563 48.563 0 0 0 .344-5.686 48.054 48.054 0 0 0 -48-48 8 8 0 0 0 -2.411.371 32.075 32.075 0 0 0 -27.259-7.871 64.209 64.209 0 0 0 -5.075-5.753 63.225 63.225 0 0 0 -41.481-18.607 31.956 31.956 0 0 0 -40.494-13.494 79.9 79.9 0 0 0 -102.575-.019 32.015 32.015 0 0 0 -40.487 13.5 63.916 63.916 0 0 0 -46.571 24.373 32.008 32.008 0 0 0 -26.9 7.581q-1.379-.081-2.747-.081a48.055 48.055 0 0 0 -48 48 48.563 48.563 0 0 0 .348 5.682 8.007 8.007 0 0 0 -.211.844l-23.974 127.86-.025.136c-.008.039-.007.078-.013.117a7.9 7.9 0 0 0 -.1.889c-.006.092-.012.184-.014.277 0 .064-.01.126-.01.191v32a8 8 0 0 0 8 8h463.999a8 8 0 0 0 8-8v-31.766a8.589 8.589 0 0 0 -.038-.988zm-39.962-135.242h-34.836a32.028 32.028 0 0 0 10.029-31.175 32.05 32.05 0 0 1 24.807 31.175zm-56.029-40.006a16.12 16.12 0 0 1 3.734.441 15.913 15.913 0 1 1 -3.734-.441zm-63.971-23.994a16 16 0 1 1 -16-16 16.019 16.019 0 0 1 16 16zm-112 0a16 16 0 1 1 -16 16 16.019 16.019 0 0 1 16-16zm-32-16a15.892 15.892 0 0 1 9.21 2.922 7.858 7.858 0 0 0 .807.494 8.024 8.024 0 0 0 .648.657 16.016 16.016 0 0 1 2.14 2.34 31.971 31.971 0 0 0 -12.805 25.587 16.01 16.01 0 0 1 -15.11-21.274c0-.014.012-.025.016-.038a16.023 16.023 0 0 1 15.094-10.688zm-31.983 16.68a32 32 0 0 0 36.133 31.051 32.028 32.028 0 1 0 23.711-47.454 32.141 32.141 0 0 0 -2.253-3.452 63.876 63.876 0 0 1 76.788 0 31.991 31.991 0 1 0 57.587 19.848 47.5 47.5 0 0 1 25.957 13.383c.483.482.948.983 1.41 1.488a32.013 32.013 0 0 0 -6.6 41.225 32.1 32.1 0 0 0 6.061 7.231h-245.679a31.936 31.936 0 0 0 -.5-48.433c.468-.512.94-1.02 1.429-1.508a47.553 47.553 0 0 1 25.956-13.379zm-42.194 24.42a15.953 15.953 0 1 1 -5.823-1.1 16.02 16.02 0 0 1 5.823 1.1zm-37.009 7.72a31.955 31.955 0 0 0 10.054 31.18h-34.868a32.049 32.049 0 0 1 24.814-31.176zm-32.174 79.18h31.36a8 8 0 0 0 0-16h-28.36l2.969-15.837a.2.2 0 0 1 .2-.163h402.385a.2.2 0 0 1 .2.163l20.925 111.6a.2.2 0 0 1 -.2.237h-444.238a.2.2 0 0 1 -.2-.237zm431.36 112h-448v-16h448z"/><path d="m200 344a25.684 25.684 0 0 0 23.639-16h66.222a25.489 25.489 0 1 0 44.618-24 25.491 25.491 0 1 0 -44.618-24h-66.222a25.489 25.489 0 1 0 -44.618 24 25.5 25.5 0 0 0 20.979 40zm-5.313-46.624a9.5 9.5 0 1 1 14.765-8.7 8 8 0 0 0 7.972 7.324h78.652a8 8 0 0 0 7.972-7.322 9.494 9.494 0 1 1 14.765 8.7 8 8 0 0 0 0 13.248 9.5 9.5 0 1 1 -14.765 8.7 8 8 0 0 0 -7.972-7.326h-78.652a8 8 0 0 0 -7.972 7.322 9.494 9.494 0 1 1 -14.765-8.7 8 8 0 0 0 0-13.248z"/><path d="m112 280h24a8 8 0 0 0 0-16h-24a8 8 0 0 0 0 16z"/></g></svg>