<svg height="512" viewBox="0 0 512 512" width="512" xmlns="http://www.w3.org/2000/svg"><g id="filled_outline" data-name="filled outline"><circle cx="256" cy="256" fill="#fbb540" r="200"/><path d="m264 408a8 8 0 0 1 -8-8v-52l-28.8-21.6a8 8 0 0 1 -2.961-8.34l12.34-49.361a8 8 0 1 1 15.521 3.881l-11.05 44.207 27.75 20.813a8 8 0 0 1 3.2 6.4v56a8 8 0 0 1 -8 8z" fill="#5b3726"/><path d="m216 392a8 8 0 0 1 -8-8v-28.687l-29.657-29.656a8 8 0 0 1 -2.1-7.6l19.09-76.358a8 8 0 1 1 15.522 3.881l-17.992 71.963 28.8 28.8a8 8 0 0 1 2.337 5.657v32a8 8 0 0 1 -8 8z" fill="#5b3726"/><path d="m152 344a8 8 0 0 1 -8-8v-44.687l-13.657-13.656a8 8 0 0 1 -2.343-5.657v-53a8 8 0 0 1 16 0v49.687l13.657 13.656a8 8 0 0 1 2.343 5.657v48a8 8 0 0 1 -8 8z" fill="#5b3726"/><path d="m112 256a8 8 0 0 1 -8-8v-26a8 8 0 0 1 16 0v26a8 8 0 0 1 -8 8z" fill="#5b3726"/><path d="m420.14 264.28-1.207-2.415a155.332 155.332 0 0 0 -138.933-85.865h-72l-32 8-56-8a24 24 0 0 0 -24 24v24h32l48 24 56 16 4.115 10.289a47.266 47.266 0 0 0 43.885 29.711 129.178 129.178 0 0 0 86.105 16.907l26.895-4.137a36.564 36.564 0 0 0 27.144-52.49z" fill="#8f563b"/><g fill="#5b3726"><path d="m112 192h16v16h-16z"/><path d="m407.64 242.81-47.31 78.85a128.723 128.723 0 0 1 -13.86.75c-1.73 0-3.46-.03-5.19-.11l55.82-93.03a151.329 151.329 0 0 1 10.54 13.54z"/><path d="m381.9 214.1-53.52 107.04a129.222 129.222 0 0 1 -16.08-3.33 9.075 9.075 0 0 1 .54-1.39l56-112c.06-.12.13-.24.2-.36a153.166 153.166 0 0 1 12.86 10.04z"/><path d="m335.67 186.32-31.91 127.62a6.842 6.842 0 0 1 -.36 1.08 129.253 129.253 0 0 1 -14.82-6.31l31.66-126.65c.06-.24.13-.47.21-.7a153.627 153.627 0 0 1 15.22 4.96z"/><path d="m280 176v128a46.828 46.828 0 0 1 -16-2.8v-125.2z"/><path d="m240 176v105.92a47.13 47.13 0 0 1 -3.88-7.63l-4.12-10.29-8-2.29v-85.71z"/></g><path d="m256 24c-128.13 0-232 103.87-232 232s103.87 232 232 232 232-103.87 232-232-103.87-232-232-232zm-200 232c0-110.457 89.543-200 200-200a199.193 199.193 0 0 1 129.648 47.724l-281.923 281.924a199.188 199.188 0 0 1 -47.725-129.648zm200 200a199.188 199.188 0 0 1 -129.648-47.725l281.923-281.923a199.193 199.193 0 0 1 47.725 129.648c0 110.457-89.543 200-200 200z" fill="#f55648"/><path d="m256 496a240 240 0 0 0 169.705-409.706 240 240 0 1 0 -339.405 339.412 238.426 238.426 0 0 0 169.7 70.294zm-158.392-398.392a224 224 0 0 1 316.784 316.784 224 224 0 0 1 -316.784-316.784z"/><path d="m103.406 393.642c.107 0 .213.006.319.006a8 8 0 0 0 5.657-2.343l281.924-281.924a8 8 0 0 0 -.468-11.745 208.054 208.054 0 0 0 -134.838-49.636c-114.691 0-208 93.309-208 208a208.051 208.051 0 0 0 49.636 134.837 8 8 0 0 0 5.77 2.805zm78.25-97.238-21.656 21.655v-30.059a8 8 0 0 0 -2.343-5.657l-13.657-13.657v-27.742l28.422 14.211a8 8 0 0 0 1.38.537l16.826 4.809zm21.987-21.988 2.378-9.516 5.552 1.587zm20.357-21.016-45.087-12.886-47.335-23.667a7.994 7.994 0 0 0 -3.578-.847h-24v-16a16.019 16.019 0 0 1 15.488-15.992l55.38 7.911a8.028 8.028 0 0 0 3.072-.158l31.044-7.761h15.016zm40-39.339-24 24v-54.061h24zm16-16v-14.061c4.486 0 8.974.215 13.437.623zm-24-134.061a192.08 192.08 0 0 1 117.726 40.334l-66.035 66.034a163.314 163.314 0 0 0 -27.691-2.368h-72a7.977 7.977 0 0 0 -1.94.239l-30.48 7.62-54.448-7.778a7.939 7.939 0 0 0 -1.132-.081 32.036 32.036 0 0 0 -32 32v24a8 8 0 0 0 8 8h8v16a8 8 0 0 0 16 0v-16h6.111l1.889.944v39.056a8 8 0 0 0 2.343 5.657l13.657 13.657v42.745l-39.666 39.666a192.075 192.075 0 0 1 -40.334-117.725c0-105.869 86.131-192 192-192z"/><path d="m118.358 408.594a8 8 0 0 0 2.8 5.77 208.052 208.052 0 0 0 134.842 49.636c114.691 0 208-93.309 208-208a208.051 208.051 0 0 0 -49.636-134.837 8 8 0 0 0 -11.746-.468l-281.924 281.924a8 8 0 0 0 -2.336 5.975zm227.85-208.862a147.221 147.221 0 0 1 19.192 11.568l-49.576 99.154q-5.274-1.375-10.39-3.224l22.246-88.976zm-.179 114.668a121.687 121.687 0 0 1 -13.863-.844l46.021-92.043a147.811 147.811 0 0 1 14.558 15.027zm57.059-64a146.01 146.01 0 0 1 8.686 15.034l1.21 2.419a28.708 28.708 0 0 1 3.016 12.777 28.4 28.4 0 0 1 -24.217 28.233l-26.189 4.031zm-123.088 15.541 25.694-25.695-15.12 60.477c-2.18-1.134-4.341-2.313-6.458-3.583a8 8 0 0 0 -4.116-1.14zm-16 16v10.635a39.658 39.658 0 0 1 -6.771-3.865zm-64.687 64.686 8.687 8.686v28.687a8 8 0 0 0 16 0v-32a8 8 0 0 0 -2.343-5.657l-11.03-11.03 13.573-13.575a7.993 7.993 0 0 0 3 4.662l28.8 21.6v52a8 8 0 0 0 16 0v-56a8 8 0 0 0 -3.2-6.4l-27.75-20.813 3.964-15.861.794-.793a55.41 55.41 0 0 0 24.8 11.055 53.785 53.785 0 0 0 7.128.766 136.7 136.7 0 0 0 40.55 15.526l.109.025c.04.008.08.019.121.027a137.178 137.178 0 0 0 48.8 1.285l26.9-4.14a44.317 44.317 0 0 0 37.784-44.047 44.788 44.788 0 0 0 -4.7-19.928l-1.21-2.42a164.071 164.071 0 0 0 -45.544-55.661l-.059-.048a163.086 163.086 0 0 0 -22.423-14.691l49.607-49.607a192.075 192.075 0 0 1 40.329 117.725c0 105.869-86.131 192-192 192a192.078 192.078 0 0 1 -117.726-40.334z"/><path d="m112 192h16v16h-16z"/></g></svg>