<svg height="512" viewBox="0 0 512 512" width="512" xmlns="http://www.w3.org/2000/svg"><g id="filled_outline" data-name="filled outline"><path d="m488.004 24v276.49l-8 12.594 8 16.976v62.08l-8 11.418 8 9.222v75.22h-192l-16.633-6-15.367 6h-240v-464z" fill="#3775a4"/><path d="m488 300.49-5 13.75 5 15.82v62.08l-6 10.16 6 10.484v43.216l-30.34 18a114.571 114.571 0 0 1 -54.89 14h-106.77l-17.1-5-14.9 5h-16l-17.61-26.42a85.652 85.652 0 0 1 -14.39-47.51v-20.07a76.3 76.3 0 0 0 -8.05-34.1l-7.95-15.9-16-56-24-32-40 16h-28a12 12 0 0 1 0-24h12l48-24v-16h-96v-34.45a16 16 0 0 1 13.37-15.78l34.63-5.77 16-16 48-16-1.98-5.95a51.883 51.883 0 0 1 1.05-35.72l8.93-22.33 64 104 24.61 30.77a176.854 176.854 0 0 0 101.04 62.44l24.58 5.27a118.442 118.442 0 0 0 51.45-.41l46.32-10.69z" fill="#2a597c"/><path d="m256 296-32.723-32.723 16.146-15.854 32.926 32.926-15.663 15.994z" fill="#dbdbdb"/><path d="m256 296 40 32 16-24-40-24z" fill="#ebebeb"/><path d="m488 300.49v29.57c-47.64 8.64-102.77 9.83-150.07 3.53l-41.93-5.59 16-24 5.81.89c53.99 8.31 116.22 6.79 170.19-4.4z" fill="#ebebeb"/><path d="m298.327 272.509a209.25 209.25 0 0 0 -33.039 86.476l-1.288 9.015h24l2.1-5.251a252.569 252.569 0 0 1 37.278-63.973l2.127-2.658a19.112 19.112 0 0 0 3.207-17.98l-.358-1.072a19.108 19.108 0 0 0 -18.127-13.066 19.11 19.11 0 0 0 -15.9 8.509z" fill="#dbdbdb"/><path d="m488 392.14v20.64a87.774 87.774 0 0 1 -64.55 37.02q-9.72.81-19.4.81a230.816 230.816 0 0 1 -111.92-28.92 8 8 0 0 1 7.74-14 216.407 216.407 0 0 0 35.96 15.81 72.386 72.386 0 0 0 5.34-35.41l-2.33-23.28a86.913 86.913 0 0 1 14.12-56.68l16.38-24.57a8 8 0 0 1 13.32 8.88l-16.39 24.57a70.865 70.865 0 0 0 -11.51 46.21l2.33 23.28a88.25 88.25 0 0 1 -5.84 41.53 214.92 214.92 0 0 0 26.42 4.95 72.769 72.769 0 0 0 5.55-43.74l-4.25-23a86.872 86.872 0 0 1 9.36-57.66l14.29-25.85a8 8 0 0 1 14 7.74l-14.28 25.85a70.839 70.839 0 0 0 -7.64 47.01l4.26 23a88.947 88.947 0 0 1 -4.51 48.06 216.873 216.873 0 0 0 27.67-.54c1.37-.11 2.73-.27 4.09-.46a72.819 72.819 0 0 0 .69-45.27l-6.97-22.34a86.823 86.823 0 0 1 2.42-58.36l11.1-27.37a8 8 0 0 1 14.83 6.02l-11.1 27.36a70.877 70.877 0 0 0 -1.98 47.59l6.97 22.33a88.857 88.857 0 0 1 2.02 45.04 71.356 71.356 0 0 0 13.72-7.67 70.427 70.427 0 0 0 8.71-7.37 69.233 69.233 0 0 0 -.57-39.52l-6.76-21.62a83.924 83.924 0 0 1 2.45-56.72l7.58-18.52a8 8 0 0 1 14.81 6.06l-7.58 18.52a67.835 67.835 0 0 0 -1.99 45.88l6.76 21.63a85.469 85.469 0 0 1 3.86 23.06 7.864 7.864 0 0 1 2.82.02z" fill="#dbdbdb"/><g fill="#2f638b"><path d="m232 24h16v40h-16z"/><path d="m120 24h16v48h-16z"/><path d="m280 24h16v24h-16z"/><path d="m328 24h16v40h-16z"/><path d="m376 24h16v24h-16z"/><path d="m432 24h16v40h-16z"/><path d="m192 464h16v23.244h-16z"/><path d="m144 448h16v39.244h-16z"/><path d="m96 464h16v23.244h-16z"/><path d="m24.756 416h23.244v16h-23.244z"/><path d="m24.756 368h39.244v16h-39.244z"/><path d="m24.756 320h23.244v16h-23.244z"/><path d="m24.756 72h23.244v16h-23.244z"/><path d="m72 24h16v24h-16z"/><path d="m336 112h16v16h-16z"/><path d="m368 112h64v16h-64z"/><path d="m336 144h64v16h-64z"/><path d="m416 144h16v16h-16z"/></g><path d="m264 368-16 16 16 24v80h32v-80l8-24-16-16z" fill="#ebebeb"/><path d="m240 248-16 16-32-24-16-32 24.73-18.9 10.53 15.79z" fill="#ebebeb"/><path d="m211.26 204.89a24.993 24.993 0 0 1 -20.78 11.11h-10.48l-4-8 24.73-18.9z" fill="#dadada"/><path d="m189.982 152h-32.727a32 32 0 0 0 -22.628 9.373l-14.627 14.627-35.394 5.056a24 24 0 0 0 -20.606 23.759v3.185h124.481a25 25 0 0 0 24.253-18.936l1.5-6a24.993 24.993 0 0 0 -.536-13.968 25 25 0 0 0 -23.716-17.096z" fill="#ebebeb"/><path d="m92 248h12l48-24v-4a20 20 0 0 1 20-20 20 20 0 0 1 20 20v23l-72 29h-28a12 12 0 0 1 -12-12 12 12 0 0 1 12-12z" fill="#dbdbdb"/><path d="m488 16h-464a8 8 0 0 0 -8 8v464a8 8 0 0 0 8 8h464a8 8 0 0 0 8-8v-464a8 8 0 0 0 -8-8zm-231.542 348.228-14.115 14.115a8 8 0 0 0 -1 10.095l14.657 21.984v69.578h-3.719l-15.239-22.859a77.414 77.414 0 0 1 -13.042-43.075v-20.066a84.663 84.663 0 0 0 -8.894-37.674l-7.618-15.237-15.8-55.285a7.989 7.989 0 0 0 -1.292-2.6l-18.976-25.3 19.533-8.681 27.788 20.841 31.6 31.6.015.013c.058.058.123.11.183.166.145.136.29.271.443.394l.018.017 16.821 13.446a217.15 217.15 0 0 0 -10.452 42.151zm-56.748-148.228h4.445l25.125 31.406-6.03 6.031-23.25-17.437v-16a28.076 28.076 0 0 0 -.29-4zm6.759-34.881-1.5 6a16.966 16.966 0 0 1 -13.648 12.641 27.935 27.935 0 0 0 -38.893.238h-79.676a16.1 16.1 0 0 1 12.99-11.021l35.39-5.059a8 8 0 0 0 4.525-2.263l14.63-14.63a24.159 24.159 0 0 1 16.963-7.025h32.73a16.984 16.984 0 0 1 16.489 21.119zm-50.891 50.036a8 8 0 0 0 4.422-7.155v-4a12 12 0 0 1 24 0v14.8l-65.7 29.2h-26.3a4 4 0 0 1 0-8h12a7.994 7.994 0 0 0 3.578-.845zm79.736 32.845 4.686-4.686 20.686 20.686-4.686 4.686zm53.1 141.47a8 8 0 0 0 -.414 2.53v72h-16v-72a8 8 0 0 0 -1.344-4.438l-12.362-18.542 9.019-9.02h17.374l10.16 10.161zm-5.738-45.693-.09.223h-9.359a202.466 202.466 0 0 1 31.759-83.053 11.109 11.109 0 0 1 19.782 2.648l.357 1.073a11.067 11.067 0 0 1 -1.863 10.452l-2.128 2.658a260.37 260.37 0 0 0 -38.461 65.999zm-14.7-64.44 5.263-5.263 4.311 2.588c-1.22 2.483-2.4 4.983-3.528 7.511zm57.82 18.78c7.381.984 14.819 1.786 22.252 2.413a86.817 86.817 0 0 0 -4.273 9.737q-2.372-.289-4.787-.607l-19.315-2.578q2.962-4.547 6.127-8.965zm-28.269 51.6a244.723 244.723 0 0 1 13.153-27.695l26.2 3.5q1.378.183 2.743.354a86.506 86.506 0 0 0 -.786 22.938l2.328 23.282a72.383 72.383 0 0 1 -5.337 35.4 216.334 216.334 0 0 1 -31.828-13.587v-.609l7.589-22.768a8 8 0 0 0 -1.932-8.187l-12.27-12.27zm182.473 114.283h-16.769l16.769-9.951zm0-28.556-26.3 15.6a106.93 106.93 0 0 1 -50.928 12.956h-98.772v-52.191a230.677 230.677 0 0 0 100.051 22.8q9.674 0 19.4-.807a87.6 87.6 0 0 0 56.549-27.235zm-122.91-64.944-2.328-23.281a70.569 70.569 0 0 1 .807-19.62c7.388.678 14.791 1.193 22.15 1.517a86.438 86.438 0 0 0 1.249 21.116l4.254 23.008a72.754 72.754 0 0 1 -5.553 43.736 214.387 214.387 0 0 1 -26.415-4.951 88.342 88.342 0 0 0 5.836-41.525zm3.219-58.535a70.378 70.378 0 0 1 5.546-10.3q8.922.405 17.954.465a86.733 86.733 0 0 0 -3.609 11.07c-6.607-.266-13.25-.671-19.891-1.232zm37.464 17.6c6.128 0 12.279-.13 18.414-.374a86.405 86.405 0 0 0 3.743 20.587l6.967 22.336a72.757 72.757 0 0 1 -.689 45.269c-1.356.192-2.717.354-4.085.468a216.986 216.986 0 0 1 -27.676.537 88.787 88.787 0 0 0 4.508-48.055l-4.255-23.006a70.552 70.552 0 0 1 -.988-17.785c1.354.012 2.706.025 4.061.025zm-1.057-16.008a70.465 70.465 0 0 1 4.784-11.645q8.764-.276 17.62-.9a86.729 86.729 0 0 0 -2.425 12.133c-6.656.286-13.331.43-19.979.414zm60.045 12.233a83.15 83.15 0 0 0 2.53 10.418l6.76 21.621a69.321 69.321 0 0 1 .573 39.518 70.642 70.642 0 0 1 -22.435 15.045 88.779 88.779 0 0 0 -2.018-45.041l-6.966-22.336a70.438 70.438 0 0 1 -3.049-16.73c8.202-.608 16.431-1.442 24.605-2.493zm-23.756-13.614a70.557 70.557 0 0 1 3.4-12.7q10.183-1.1 20.344-2.651a84.223 84.223 0 0 0 -1.221 12.975c-7.486.979-15.011 1.785-22.523 2.378zm47 36.651-5.439-17.394a67.388 67.388 0 0 1 -1.953-7.957q3.678-.6 7.392-1.274zm0-42.883q-4.212.789-8.387 1.484a68.023 68.023 0 0 1 2.13-13.518q3.143-.6 6.257-1.239zm0-49.235c-.083-.036-.16-.08-.245-.114a8 8 0 0 0 -10.434 4.372l-7.582 18.517c-.047.114-.086.23-.132.344q-9.146 1.56-18.4 2.739l5.071-12.5a8 8 0 1 0 -14.827-6.013l-8.297 20.446q-7.324.632-14.645 1.024l6.108-11.051a8 8 0 0 0 -14-7.739l-10.712 19.383q-7.829.088-15.639-.094l6.389-9.583a8 8 0 0 0 -13.312-8.876l-11.748 17.617q-10.272-.675-20.559-1.828a26.986 26.986 0 0 0 3.263-23.744l-.357-1.073a27.109 27.109 0 0 0 -48.274-6.464q-3.425 5.136-6.549 10.474l-8.161-4.9-30.993-30.993-31.47-39.337a32.975 32.975 0 0 0 5.991-12.316l1.5-5.987a32.993 32.993 0 0 0 -32.011-41.013h-32.73a39.729 39.729 0 0 0 -28.277 11.713l-12.744 12.745-32.751 4.682a31.941 31.941 0 0 0 -19.478 10.597v-10.183a7.976 7.976 0 0 1 6.685-7.891l34.63-5.771a8.007 8.007 0 0 0 4.342-2.235l14.664-14.665 46.209-15.4a8 8 0 0 0 5.059-10.119l-1.983-5.95a44 44 0 0 1 .888-30.216l3.027-7.569 55.666 90.456a7.933 7.933 0 0 0 .566.806l24.615 30.768a185.332 185.332 0 0 0 105.6 65.266l24.581 5.268a127.267 127.267 0 0 0 54.929-.432l36.522-8.429zm0-31.69-40.117 9.257a111.182 111.182 0 0 1 -47.979.377l-24.58-5.267a169.294 169.294 0 0 1 -96.462-59.617l-24.307-30.383-63.747-103.578a8 8 0 0 0 -14.241 1.22l-8.933 22.334a60.018 60.018 0 0 0 -1.734 39.571l-40.435 13.477a8.018 8.018 0 0 0 -3.127 1.933l-14.187 14.187-32.1 5.35a23.925 23.925 0 0 0 -20.056 23.674v34.446a8 8 0 0 0 8 8h88v3.056l-41.889 20.944h-10.111a20 20 0 0 0 0 40h28a7.928 7.928 0 0 0 .8-.042c.085-.009.17-.025.255-.037.179-.024.358-.048.536-.085.1-.02.2-.048.3-.072.16-.039.319-.078.476-.127.1-.033.208-.071.312-.108s.2-.063.292-.1l34.308-13.723 19.434 25.913 15.6 54.58a8 8 0 0 0 .537 1.38l7.951 15.9a68.588 68.588 0 0 1 7.199 30.521v20.068a93.364 93.364 0 0 0 15.729 51.95l9.323 13.982h-25.052v-16h-16v16h-32v-32h-16v32h-32v-16h-16v16h-64v-48h16v-16h-16v-32h32v-16h-32v-32h16v-16h-16v-232h16v-16h-16v-40h40v16h16v-16h32v40h16v-40h96v32h16v-32h32v16h16v-16h32v32h16v-32h32v16h16v-16h40v32h16v-32h32z"/><path d="m336 112h16v16h-16z"/><path d="m368 112h64v16h-64z"/><path d="m336 144h64v16h-64z"/><path d="m416 144h16v16h-16z"/></g></svg>