<svg height="512" viewBox="0 0 512 512" width="512" xmlns="http://www.w3.org/2000/svg"><g id="filled_outline" data-name="filled outline"><path d="m40 200h432v288h-432z" fill="#e4e4e2"/><path d="m40 200h432v16h-432z" fill="#c3c3c3"/><path d="m216 408h256v32h-256z" fill="#8f563b"/><path d="m216 440.164h256v7.48h-256z" fill="#c3c3c3"/><path d="m24 96h464v104h-464z" fill="#e4e4e2"/><path d="m216 200h256v208h-256z" fill="#a8d6da"/><path d="m216 200h256v51.365h-256z" fill="#8aced8"/><path d="m40 200h128v64h-128z" fill="#8f563b"/><path d="m40 200h128v16h-128z" fill="#533222"/><path d="m40 264h128v224h-128z" fill="#85bc94"/><path d="m40 264h128v8.002h-128z" fill="#6b9777"/><path d="m400 296h-32v-32h-48v32h-32v48h32v32h48v-32h32z" fill="#85bc94"/><path d="m216 200h256v32h-256z" fill="#8f563b"/><path d="m216 200h256v16h-256z" fill="#533222"/><path d="m248 336a227.093 227.093 0 0 0 10.52-49.17l3.55-35.47 1.93-19.36h-48v176h48l-16-48z" fill="#428dc5"/><path d="m216 336h32v24h-32z" fill="#3775a4"/><path d="m72 296h64v80h-64z" fill="#428dc5"/><path d="m72 432a8 8 0 0 1 -8-8v-16a8 8 0 0 1 8-8h16a8 8 0 0 1 0 16h-8v8a8 8 0 0 1 -8 8z" fill="#e4e4e2"/><path d="m24 168h464v32h-464z" fill="#6b9777"/><path d="m64 224h16v16h-16z" fill="#5b3726"/><path d="m96 224h48v16h-48z" fill="#5b3726"/><path d="m120 296-48 64v16h24l40-56v-24z" fill="#6cbae5"/><circle cx="256" cy="113" fill="#fbb540" r="89"/><g fill="#744630"><path d="m272 161a16 16 0 0 0 0-32 16 16 0 0 0 -32 0v.012a16 16 0 1 0 .31 31.988z"/><circle cx="256" cy="76.997" r="12"/><circle cx="212" cy="100.997" r="12"/><circle cx="300" cy="100.997" r="12"/></g><path d="m264 232-1.93 19.36h-46.07v-19.36z" fill="#3d83b6"/><path d="m440 336a227.093 227.093 0 0 1 -10.52-49.17l-3.55-35.47-1.93-19.36h48v176h-48l16-48z" fill="#428dc5"/><path d="m440 336h32v24h-32z" fill="#3775a4"/><path d="m424 232 1.93 19.36h46.07v-19.36z" fill="#3d83b6"/><path d="m488 88h-138.272a97.006 97.006 0 0 0 -187.455 0h-138.273a8 8 0 0 0 -8 8v104a8 8 0 0 0 8 8h8v280a8 8 0 0 0 8 8h432a8 8 0 0 0 8-8v-280h8a8 8 0 0 0 8-8v-104a8 8 0 0 0 -8-8zm-232-56a81 81 0 1 1 -81 81 81.092 81.092 0 0 1 81-81zm-13.766 336 10.666 32h-28.9v-32zm-18.234-16v-8h16v8zm26.557-65.969a219.282 219.282 0 0 1 -8.4 41.969h-18.157v-88h31.16zm-218.557-182.031h127.421c-.274 2.964-.421 5.965-.421 9a96.4 96.4 0 0 0 12.173 47h-139.173zm128 376h-112v-208h112zm0-224h-112v-48h112zm-128-64v-16h150.307a97.764 97.764 0 0 0 17.468 16zm432 288h-288v-272h32v232a8 8 0 0 0 8 8h248zm0-48h-240v-16h240zm-208-73.3v-21.461a235.294 235.294 0 0 0 10.478-49.616l4.762-47.623h145.52l4.762 47.623a235.294 235.294 0 0 0 10.478 49.616v21.461l-13.766 41.3h-148.468zm208 41.3h-28.9l10.666-32h18.234zm0-48h-16v-8h16zm0-24h-18.154a219.282 219.282 0 0 1 -8.4-41.969l-4.606-46.031h31.16zm0-104h-240v-16h12.357a97.462 97.462 0 0 0 39.286 0h188.357zm16-32h-167.775a97.764 97.764 0 0 0 17.468-16h150.307zm0-32h-139.173a96.4 96.4 0 0 0 12.173-47c0-3.035-.147-6.036-.421-9h127.421z"/><path d="m218.585 134.16a24.008 24.008 0 0 0 21.415 34.84h.383 31.617a24 24 0 0 0 6.969-46.969 24 24 0 0 0 -45.939 0 23.865 23.865 0 0 0 -14.445 12.129zm14.277 7.225a7.968 7.968 0 0 1 7.145-4.376 8 8 0 0 0 7.993-8v-.069a8 8 0 0 1 16 .06 8 8 0 0 0 8 8 8 8 0 0 1 0 16h-31.69-.16a8 8 0 0 1 -7.288-11.614z"/><path d="m256 97a20 20 0 1 0 -20-20 20.023 20.023 0 0 0 20 20zm0-24a4 4 0 1 1 -4 4 4 4 0 0 1 4-4z"/><path d="m232 101a20 20 0 1 0 -20 20 20.023 20.023 0 0 0 20-20zm-24 0a4 4 0 1 1 4 4 4 4 0 0 1 -4-4z"/><path d="m300 121a20 20 0 1 0 -20-20 20.023 20.023 0 0 0 20 20zm0-24a4 4 0 1 1 -4 4 4 4 0 0 1 4-4z"/><path d="m288 352h24v24a8 8 0 0 0 8 8h48a8 8 0 0 0 8-8v-24h24a8 8 0 0 0 8-8v-48a8 8 0 0 0 -8-8h-24v-24a8 8 0 0 0 -8-8h-48a8 8 0 0 0 -8 8v24h-24a8 8 0 0 0 -8 8v48a8 8 0 0 0 8 8zm8-48h24a8 8 0 0 0 8-8v-24h32v24a8 8 0 0 0 8 8h24v32h-24a8 8 0 0 0 -8 8v24h-32v-24a8 8 0 0 0 -8-8h-24z"/><path d="m72 432a8 8 0 0 0 8-8v-8h8a8 8 0 0 0 0-16h-16a8 8 0 0 0 -8 8v16a8 8 0 0 0 8 8z"/><path d="m64 224h16v16h-16z"/><path d="m96 224h48v16h-48z"/><path d="m72 384h64a8 8 0 0 0 8-8v-80a8 8 0 0 0 -8-8h-64a8 8 0 0 0 -8 8v80a8 8 0 0 0 8 8zm56-16h-16.454l16.454-23.036zm-48-64h24l-24 32zm0 58.667 44-58.667h4v13.437l-36.117 50.563h-11.883z"/></g></svg>