<svg height="512" viewBox="0 0 512 512" width="512" xmlns="http://www.w3.org/2000/svg"><g id="filled_outline" data-name="filled outline"><path d="m144 392h136v32h-136z" fill="#c3c3c3"/><path d="m144 408h136v16h-136z" fill="#a8a8a8"/><path d="m376 24a88 88 0 0 0 -65.119 147.191l1.119 68.809 62.424-34c50.176-6 89.576-45.4 89.576-94a88 88 0 0 0 -88-88z" fill="#fbd699"/><path d="m144.81 191.68-21.78 23.45-38.81-36.03-8.09-7.52 21.78-23.45 8.09 7.51z" fill="#ea9d2d"/><path d="m51.294 132.972h48v32h-48z" fill="#fbb540" transform="matrix(.68 -.733 .733 .68 -85.108 102.789)"/><path d="m75.061 158.092h32.008v11.042h-32.008z" fill="#da922a" transform="matrix(.68 -.733 .733 .68 -90.799 119.032)"/><g fill="#c3c3c3"><path d="m192 264a24 24 0 0 1 24 24v24a0 0 0 0 1 0 0h-48a0 0 0 0 1 0 0v-24a24 24 0 0 1 24-24z"/><path d="m168 368h-16v-24l16-8z"/><path d="m184 336h16v32h-16z"/><path d="m232 368h-16v-32l16 8z"/></g><path d="m152 344h16v8h-16z" fill="#a8a8a8"/><path d="m184 344h16v8h-16z" fill="#a8a8a8"/><path d="m216 344h16v8h-16z" fill="#a8a8a8"/><path d="m392 160a16 16 0 0 0 0-32 16 16 0 0 0 -32 0v.012a16 16 0 1 0 .31 31.988z" fill="#ea9d2d"/><circle cx="376" cy="75.997" fill="#ea9d2d" r="12"/><circle cx="332" cy="99.997" fill="#ea9d2d" r="12"/><circle cx="420" cy="99.997" fill="#ea9d2d" r="12"/><path d="m136 160 24 24h48v56 8h-56v-8h-24l-32-32z" fill="#277baa"/><path d="m152 240v24l56 8h32a32 32 0 0 1 32 32v152h48v-200a16 16 0 0 0 -16-16z" fill="#4799cf"/><circle cx="296" cy="352" fill="#fbb540" r="40"/><circle cx="296" cy="352" fill="#ea9d2d" r="16"/><path d="m336 488h-224v-16l12.117-16h195.883l16 16z" fill="#277baa"/><path d="m232 344h-80l16-32h48z" fill="#dbdbdb"/><path d="m398.969 121.027a24 24 0 0 0 -45.939 0 24 24 0 0 0 6.97 46.973h.383 31.617a24 24 0 0 0 6.969-46.969zm-6.969 30.973h-31.69-.161a8 8 0 1 1 -.141-15.99 8 8 0 0 0 7.993-8c0-.031 0-.063 0-.094a8 8 0 0 1 15.999.084 8 8 0 0 0 8 8 8 8 0 0 1 0 16z"/><path d="m376 96a20 20 0 1 0 -20-20 20.023 20.023 0 0 0 20 20zm0-24a4 4 0 1 1 -4 4 4 4 0 0 1 4-4z"/><path d="m352 100a20 20 0 1 0 -20 20 20.023 20.023 0 0 0 20-20zm-20 4a4 4 0 1 1 4-4 4 4 0 0 1 -4 4z"/><path d="m440 100a20 20 0 1 0 -20 20 20.023 20.023 0 0 0 20-20zm-20 4a4 4 0 1 1 4-4 4 4 0 0 1 -4 4z"/><path d="m296 328a24 24 0 1 0 24 24 24.028 24.028 0 0 0 -24-24zm0 32a8 8 0 1 1 8-8 8.009 8.009 0 0 1 -8 8z"/><path d="m472 112a96 96 0 1 0 -169.07 62.267l.939 57.733h-87.869v-48a8 8 0 0 0 -8-8h-44.687l-21.656-21.657a8 8 0 0 0 -11.8.536l-5.636 6.764-15-13.933a8 8 0 0 0 -.422-11.3l-23.457-21.775a8 8 0 0 0 -11.306.42l-32.659 35.175a8 8 0 0 0 .419 11.307l23.451 21.772a8 8 0 0 0 11.306-.419l16.887 15.687-3.589 4.306a8 8 0 0 0 .489 10.778l32 32a8 8 0 0 0 5.66 2.339h16v16a8 8 0 0 0 6.869 7.92l12.5 1.785a31.926 31.926 0 0 0 -3.369 14.295v22.111l-15.155 30.311a8 8 0 0 0 7.155 11.578v16h16v-16h16v16h16v-16h16v16h16v-16a8 8 0 0 0 7.155-11.578l-15.155-30.311v-22.111a32.042 32.042 0 0 0 -1.022-8h17.022a24.028 24.028 0 0 1 24 24v12.261a47.9 47.9 0 0 0 -3.739 67.739h-116.261a8 8 0 0 0 -8 8v32a8 8 0 0 0 8 8h120v16h-139.883a8 8 0 0 0 -6.378 3.17l-12.117 16a8 8 0 0 0 -1.622 4.83v16a8 8 0 0 0 8 8h224a8 8 0 0 0 8-8v-16a8 8 0 0 0 -2.343-5.657l-13.657-13.657v-64.947a47.915 47.915 0 0 0 0-71.478v-60.261a23.862 23.862 0 0 0 -4.085-13.379l53.011-28.869c54.312-7.221 95.074-50.709 95.074-101.752zm-401.731 54.136-11.724-10.882 21.773-23.454 11.726 10.89-1.719 1.852zm17.173 5.025 10.887-11.725 15.631 14.517-10.26 12.311zm43.871 60.839-24.49-24.491 29.714-35.657 17.806 17.805a8 8 0 0 0 5.657 2.343h40v40zm33.631 104 8-16h38.112l8 16zm11.056-32v-16a15.915 15.915 0 0 1 5.165-11.757l24.54 3.51a15.941 15.941 0 0 1 2.295 8.247v16zm64-40h-31.431l-28.456-4.069c-.051-.008-.1-.015-.152-.021l-19.961-2.849v-9.061h144a8.009 8.009 0 0 1 8 8v50.752a47.888 47.888 0 0 0 -32 0v-2.752a40.045 40.045 0 0 0 -40-40zm-88 152v-16h112v16zm176 64h-208v-5.312l8.094-10.688h188.593l11.313 11.313zm-48-32v-50.752a47.888 47.888 0 0 0 32 0v50.752zm48-96a32 32 0 1 1 -32-32 32.036 32.036 0 0 1 32 32zm42.6-153.021-50.815 27.672-.9-55.589a8.007 8.007 0 0 0 -2.08-5.253 80 80 0 1 1 139.195-53.809c0 43.433-35.479 80.432-82.525 86.062a7.99 7.99 0 0 0 -2.875.917z"/></g></svg>