<?xml version="1.0"?>
<svg xmlns="http://www.w3.org/2000/svg" viewBox="0 0 512 512" width="512" height="512"><g id="filled_outline" data-name="filled outline"><path d="M368,394l-224,1C48.738,384,24,322.274,24,256h0c0-66.274,53.726-120,119.048-121.127h224C434.272,136,488,189.726,488,256h0C488,322.274,434.272,394,368,394Z" style="fill:#55785f"/><path d="M424.278,213.8A88.047,88.047,0,0,0,310.1,186.6a88.005,88.005,0,0,0-108.206,0A88.052,88.052,0,0,0,88.089,213.269a122.008,122.008,0,0,0-59.77,74.72A120.046,120.046,0,0,0,144,376h51.508a16,16,0,0,1,15.522,12.119L216,408h80l4.97-19.881A16,16,0,0,1,316.492,376H368a120.048,120.048,0,0,0,115.677-87.994A121.418,121.418,0,0,0,424.278,213.8Z" style="fill:#e4e4e2"/><path d="M368,376H316.492a16,16,0,0,0-15.522,12.119L296,408H216l-4.97-19.881A16,16,0,0,0,195.508,376H144A120,120,0,0,1,24,256v64A120,120,0,0,0,144,440H368A120,120,0,0,0,488,320V256A120,120,0,0,1,368,376Z" style="fill:#6b9777"/><path d="M352,168a94.959,94.959,0,0,0-41.118,9.228c-.041-.028-.081-.059-.122-.087a96.041,96.041,0,0,0-109.52,0c-.041.028-.081.059-.122.087A96.028,96.028,0,0,0,64.391,255.282a8,8,0,0,0,7.25,8.686c.244.022.486.032.727.032a8,8,0,0,0,7.959-7.282,80.084,80.084,0,0,1,107.089-67.905,95.691,95.691,0,0,0-20.869,32.277,8,8,0,1,0,14.9,5.82,80.036,80.036,0,0,1,149.1,0,8,8,0,1,0,14.9-5.82,95.691,95.691,0,0,0-20.869-32.277A80.073,80.073,0,0,1,432,264a8,8,0,0,0,16,0A96.108,96.108,0,0,0,352,168Z" style="fill:#cbcbcb"/><path d="M256,288h0a24,24,0,0,0-24,24h-8a16,16,0,0,0-16,16h0a16,16,0,0,0,16,16h64a16,16,0,0,0,16-16h0a16,16,0,0,0-16-16h-8a24,24,0,0,0-24-24Z" style="fill:#8f563b"/><circle cx="256" cy="240" r="16" style="fill:#8f563b"/><circle cx="200" cy="272" r="16" style="fill:#8f563b"/><circle cx="312" cy="272" r="16" style="fill:#8f563b"/><path d="M458.394,165.352a131.288,131.288,0,0,0-91.211-38.477H142.91C72.932,128.082,16,186.007,16,256v64A128.144,128.144,0,0,0,144,448H368A128.144,128.144,0,0,0,496,320V256A127.468,127.468,0,0,0,458.394,165.352ZM143.121,142.874H366.977a115.35,115.35,0,0,1,80.1,33.786A111.573,111.573,0,0,1,480,256v2.035c-.507-.915-1.014-1.831-1.544-2.735a130.447,130.447,0,0,0-46.194-46.193,8.009,8.009,0,0,0-2.169-.879A95.945,95.945,0,0,0,352,168a94.959,94.959,0,0,0-41.118,9.228c-.041-.028-.081-.059-.122-.087a96.041,96.041,0,0,0-109.52,0c-.041.028-.081.059-.122.087a96.083,96.083,0,0,0-106.05,16.061A96.55,96.55,0,0,0,82.683,207.1,129.9,129.9,0,0,0,32,257.88V256C32,194.7,81.843,143.967,143.121,142.874ZM71.641,263.968c.244.022.486.032.727.032a8,8,0,0,0,7.959-7.282,80.084,80.084,0,0,1,107.089-67.905,95.691,95.691,0,0,0-20.869,32.277,8,8,0,1,0,14.9,5.82,80.036,80.036,0,0,1,149.1,0,8,8,0,1,0,14.9-5.82,95.691,95.691,0,0,0-20.869-32.277A80.073,80.073,0,0,1,432,264a8,8,0,0,0,16,0,95.761,95.761,0,0,0-3.545-25.871,113.626,113.626,0,0,1,20.2,25.27A111.291,111.291,0,0,1,475.33,288,112.27,112.27,0,0,1,368,368H316.492a23.966,23.966,0,0,0-23.283,18.179L289.754,400H222.246l-3.455-13.821A23.966,23.966,0,0,0,195.508,368H144A112.266,112.266,0,0,1,36.663,287.978a113.23,113.23,0,0,1,30.971-50.217,95.715,95.715,0,0,0-3.243,17.521A8,8,0,0,0,71.641,263.968ZM368,432H144A112.127,112.127,0,0,1,32,320c0-.665.023-1.326.034-1.989A128.426,128.426,0,0,0,144,384h51.508a7.99,7.99,0,0,1,7.761,6.06l4.97,19.88A8,8,0,0,0,216,416h80a8,8,0,0,0,7.761-6.06l4.97-19.88a7.99,7.99,0,0,1,7.761-6.06H368a128.429,128.429,0,0,0,111.967-65.991c.012.663.033,1.326.033,1.991A112.127,112.127,0,0,1,368,432Z"/><path d="M200,328a24.027,24.027,0,0,0,24,24h64a24,24,0,0,0,0-48h-1.012a32.005,32.005,0,0,0-61.976,0H224A24.027,24.027,0,0,0,200,328Zm32-8a8,8,0,0,0,8-8,16,16,0,0,1,32,0,8,8,0,0,0,8,8h8a8,8,0,0,1,0,16H224a8,8,0,0,1,0-16Z"/><path d="M256,264a24,24,0,1,0-24-24A24.027,24.027,0,0,0,256,264Zm0-32a8,8,0,1,1-8,8A8.009,8.009,0,0,1,256,232Z"/><path d="M200,296a24,24,0,1,0-24-24A24.027,24.027,0,0,0,200,296Zm0-32a8,8,0,1,1-8,8A8.009,8.009,0,0,1,200,264Z"/><path d="M312,296a24,24,0,1,0-24-24A24.027,24.027,0,0,0,312,296Zm0-32a8,8,0,1,1-8,8A8.009,8.009,0,0,1,312,264Z"/></g></svg>
