<svg height="512" viewBox="0 0 512 512" width="512" xmlns="http://www.w3.org/2000/svg"><g id="filled_outline" data-name="filled outline"><path d="m432 480h-272l-12-6v-314h284z" fill="#f55648"/><path d="m432 160h-282l-30-80-.881-8 272.888-.234-.007 8.234z" fill="#ea9d2d"/><path d="m160 160v320l-40-8-40 8v-320l40-80z" fill="#b94137"/><path d="m392 48h-272v32h272a16 16 0 0 0 0-32z" fill="#fbb540"/><circle cx="296" cy="296" fill="#fbb540" r="88"/><path d="m312 344a16 16 0 0 0 0-32 16 16 0 0 0 -32 0v.012a16 16 0 1 0 .31 31.988z" fill="#d18d28"/><circle cx="296" cy="259.997" fill="#d18d28" r="12"/><circle cx="252" cy="283.997" fill="#d18d28" r="12"/><circle cx="340" cy="283.997" fill="#d18d28" r="12"/><g fill="#b94137"><path d="m184 408h72v16h-72z"/><path d="m184 440h48v16h-48z"/><path d="m248 440h24v16h-24z"/><path d="m392 440h16v16h-16z"/><path d="m360 440h16v16h-16z"/></g><path d="m128 428.8v-332.8l-8-16-8 16v332.8l-32 51.2 40-8 40 8z" fill="#a83b32"/><circle cx="120" cy="64" fill="#da922a" r="16"/><path d="m439.149 156.425h.006l-35.675-71.354a24 24 0 0 0 -11.48-45.071h-272a24 24 0 0 0 -11.48 45.071l-35.675 71.351a7.994 7.994 0 0 0 -.845 3.578v320a8 8 0 0 0 9.569 7.845l38.431-7.687 38.363 7.673.055.011h.013c.059.011.118.015.177.026.2.035.393.069.595.089.266.026.532.04.8.04h271.997a8 8 0 0 0 8-8v-319.997a7.949 7.949 0 0 0 -.851-3.575zm-311.149-42.536 24 48v290.216l-24-38.4zm36.944 38.111-32-64h254.112l32 64zm235.056-88a8.009 8.009 0 0 1 -8 8h-249.376a23.944 23.944 0 0 0 0-16h249.376a8.009 8.009 0 0 1 8 8zm-280-8a8 8 0 1 1 -8 8 8.009 8.009 0 0 1 8-8zm-8 57.889v299.816l-24 38.4v-290.216zm8 350.111a8.049 8.049 0 0 0 -1.569.155l-21.821 4.365 23.39-37.42 23.39 37.425-21.821-4.365a8.049 8.049 0 0 0 -1.569-.16zm304 8h-256v-304h256z"/><path d="m296 392a96 96 0 1 0 -96-96 96.108 96.108 0 0 0 96 96zm0-176a80 80 0 1 1 -80 80 80.091 80.091 0 0 1 80-80z"/><path d="m258.585 317.16a24.008 24.008 0 0 0 21.415 34.84h.383 31.617a24 24 0 0 0 6.969-46.969 24 24 0 0 0 -45.939 0 23.865 23.865 0 0 0 -14.445 12.129zm14.277 7.225a7.968 7.968 0 0 1 7.145-4.376 8 8 0 0 0 7.993-8v-.069a8 8 0 0 1 16 .06 8 8 0 0 0 8 8 8 8 0 0 1 0 16h-31.69-.16a7.848 7.848 0 0 1 -3.762-.865 8 8 0 0 1 -3.526-10.749z"/><path d="m296 280a20 20 0 1 0 -20-20 20.023 20.023 0 0 0 20 20zm0-24a4 4 0 1 1 -4 4 4 4 0 0 1 4-4z"/><path d="m272 284a20 20 0 1 0 -20 20 20.023 20.023 0 0 0 20-20zm-24 0a4 4 0 1 1 4 4 4 4 0 0 1 -4-4z"/><path d="m340 304a20 20 0 1 0 -20-20 20.023 20.023 0 0 0 20 20zm0-24a4 4 0 1 1 -4 4 4 4 0 0 1 4-4z"/><path d="m184 408h72v16h-72z"/><path d="m184 440h48v16h-48z"/><path d="m248 440h24v16h-24z"/><path d="m392 440h16v16h-16z"/><path d="m360 440h16v16h-16z"/></g></svg>