<svg height="512" viewBox="0 0 512 512" width="512" xmlns="http://www.w3.org/2000/svg"><g id="filled_outline" data-name="filled outline"><path d="m64 488h32 352v-205.09-66.91l-191.51-191.51-.49-.49-.48.49-191.52 191.51z" fill="#cd9c7a"/><g fill="#bd9070"><path d="m88 240h336v16h-336z"/><path d="m96 288h80v16h-80z"/><path d="m96 336h64v16h-64z"/><path d="m96 384h64v16h-64z"/><path d="m96 432h64v16h-64z"/><path d="m336 288h88v16h-88z"/><path d="m352 336h64v16h-64z"/></g><path d="m256 248a104 104 0 0 1 104 104v136a0 0 0 0 1 0 0h-208a0 0 0 0 1 0 0v-136a104 104 0 0 1 104-104z" fill="#cbcbcb"/><path d="m328 488h-144v-136a72 72 0 0 1 72-72 72 72 0 0 1 72 72z" fill="#85654f"/><path d="m328 160h-144l8-16h128z" fill="#bd9070"/><path d="m128 192h256v16h-256z" fill="#bd9070"/><path d="m64 282.91v205.09h32v-237.09z" fill="#bd9070"/><path d="m416 250.91v237.09h32v-205.09z" fill="#bd9070"/><path d="m473.971 357.724a32 32 0 1 0 -58.311-1.1l-58.816 25.232a32 32 0 1 0 -39.388 43.012 32 32 0 1 0 58.311 1.1l58.817-25.232a32 32 0 1 0 39.387-43.012z" fill="#eaeae8"/><path d="m486.049 378.658a24.029 24.029 0 0 0 -31.52-12.594l-6.306-14.705a40.049 40.049 0 0 1 52.529 20.991z" fill="#dbdbdb"/><path d="m487.427 488h-208l16-64h176z" fill="#fbb540"/><path d="m488 255.03-33.94 33.94-198.06-198.06-198.06 198.06-33.94-33.94 231.03-231.03.97.97.97-.97z" fill="#a07a5f"/><path d="m488 255.03-21.94 21.94-210.06-210.06-210.06 210.06-21.94-21.94 231.03-231.03.97.97.97-.97z" fill="#bd9070"/><path d="m200 152h112v48h-112z" fill="#e4e4e2"/><path d="m224 168h16v16h-16z" fill="#c3c3c3"/><path d="m256 168h32v16h-32z" fill="#c3c3c3"/><path d="m479.879 424.826a39.987 39.987 0 0 0 4.05-71.374 39.983 39.983 0 0 0 -24.019-46.588 40.765 40.765 0 0 0 -3.91-1.334v-8.807a7.96 7.96 0 0 0 3.716-2.1l33.941-33.941a8 8 0 0 0 0-11.315l-231.029-231.024a10.759 10.759 0 0 0 -13.256 0l-231.029 231.029a8 8 0 0 0 0 11.315l33.941 33.941a7.955 7.955 0 0 0 3.716 2.1v191.272a8 8 0 0 0 8 8h423.427a8 8 0 0 0 7.761-9.94zm-12.755-90.279a23.977 23.977 0 0 1 1.529 13.839 39.762 39.762 0 0 0 -20.43 2.973l6.306 14.705a23.832 23.832 0 0 1 16.915-.752l.028.011a24 24 0 1 1 -29.536 32.259 8 8 0 0 0 -10.506-4.2l-52.717 22.618h-61.813a23.984 23.984 0 1 1 32.591-30.989 8 8 0 0 0 10.506 4.2l58.816-25.232a8 8 0 0 0 4.2-10.506 24 24 0 1 1 44.112-18.923zm-31.809 81.453h-16.015l11.829-5.074a39.657 39.657 0 0 0 4.186 5.074zm-291.315 16h-40v-32h40zm0-48h-40v-32h40zm-40 64h40v32h-40zm41.148-112h-41.148v-32h50.821a111.122 111.122 0 0 0 -9.673 32zm18.993-48h-60.141v-32h94.369a112.886 112.886 0 0 0 -34.228 32zm-45.915-48 32-32h211.548l32 32zm89.774-80h96v32h-96zm112 6.226 25.774 25.774h-25.774zm-105.774-22.226 41.774-41.774 41.774 41.774zm-22.226 48h-25.774l25.774-25.774zm248 94.227v18.1a40.371 40.371 0 0 0 -16 5.673v-39.77zm-34.115 65.885-37.885 16.253v-16.365h37.866c.007.037.011.075.019.112zm2.115-96.112v32h-60.055a113.487 113.487 0 0 0 -34.174-32zm0 48v24.988c-.024.06-.052.118-.076.178a40.337 40.337 0 0 0 -2.03 6.834h-39.027a110.882 110.882 0 0 0 -9.61-32zm-372.687-48.971 220.687-220.686 220.687 220.686-22.628 22.628-.374-.373c-.01-.01-.018-.021-.028-.031l-192-192a8 8 0 0 0 -11.314 0l-192 192c-.01.01-.018.021-.028.031l-.374.373zm36.687 224.971v-193.773l16-16v209.773zm88-128a96 96 0 1 1 192 0v10.915a40.3 40.3 0 0 0 -16-7.492v-3.423a80 80 0 0 0 -160 0v128h-16zm32 0a64 64 0 0 1 128 0v3.167a39.983 39.983 0 0 0 -26.165 61 8 8 0 0 0 -6.169 5.894l-14.485 57.939h-81.181zm97.673 128 12-48h163.508l12 48z"/><path d="m224 168h16v16h-16z"/><path d="m256 168h32v16h-32z"/></g></svg>