<svg height="512" viewBox="0 0 512 512" width="512" xmlns="http://www.w3.org/2000/svg"><g id="filled_outline" data-name="filled outline"><path d="m360 192 40 48v-24l.329-.986a149.488 149.488 0 0 0 7.671-47.273v-23.741l-10.984 18.307a68.389 68.389 0 0 1 -37.016 29.693z" fill="#dbdbdb"/><path d="m184 360v64a16 16 0 0 1 -16 16h-56v-14.874a32 32 0 0 1 14.25-26.626l9.75-6.5v-120l-24-32-16 16-16-16-16 16-16-16-24 16v-56a16 16 0 0 1 16-16h40l3.668-18.342a32 32 0 0 1 26.118-25.289l26.214-4.369-16-24v-40l56 56 12.8 9.6a48 48 0 0 1 19.2 38.4v16h142.062a57.938 57.938 0 0 1 57.938 57.938v174.062a16 16 0 0 1 -16 16h-56v-14.874a32 32 0 0 1 14.25-26.626l9.75-6.5v-32z" fill="#dbdbdb"/><path d="m215.287 192.651 41.187-24.651 109.729 27.56 13.678 38.431z" fill="#3775a4"/><path d="m24 216h10.841a21.159 21.159 0 0 0 21.159-21.159v-10.841h-16a16 16 0 0 0 -16 16z" fill="#744630"/><path d="m120 184a8 8 0 0 1 -8-8v-8a8 8 0 0 1 16 0v8a8 8 0 0 1 -8 8z" fill="#744630"/><path d="m480.43 164.546a32 32 0 0 0 -39.317 49.836l-63.181 15.868a8 8 0 1 0 3.9 15.518l84.116-21.126a7.994 7.994 0 0 0 2.22-.929 31.984 31.984 0 0 0 12.265-59.167zm-2.7 35.675a15.995 15.995 0 1 1 -5.513-21.947 16.022 16.022 0 0 1 5.509 21.947z" fill="#6cbae5"/><path d="m491.454 263.562a31.954 31.954 0 0 0 -23.283-15.271 8 8 0 0 0 -2.226-.933l-84.116-21.126a8 8 0 0 0 -3.9 15.518l63.181 15.868a32 32 0 1 0 50.341 5.944zm-19.241 30.164a16 16 0 1 1 5.513-21.947 16.018 16.018 0 0 1 -5.513 21.947z" fill="#3775a4"/><path d="m368 384v-186a6 6 0 0 0 -6-6h-108a6 6 0 0 0 -6 6v162a24 24 0 0 0 24 24z" fill="#ebebeb"/><g fill="#c3c3c3"><path d="m280 264a8 8 0 0 1 -8-8v-8a8 8 0 0 1 16 0v8a8 8 0 0 1 -8 8z"/><path d="m280 328a8 8 0 0 1 -8-8v-16a8 8 0 0 1 16 0v16a8 8 0 0 1 -8 8z"/><path d="m312 256a8 8 0 0 1 -8-8v-8a8 8 0 0 1 16 0v8a8 8 0 0 1 -8 8z"/><path d="m312 320a8 8 0 0 1 -8-8v-16a8 8 0 0 1 16 0v16a8 8 0 0 1 -8 8z"/></g><path d="m215.287 279.349 41.187 24.651 109.729-27.56 13.678-38.431z" fill="#6cbae5"/><path d="m392 360v-24l-16 8-16-8-16 8-16-8-16 8-16-8v24a24 24 0 0 1 -24 24h96a24 24 0 0 0 24-24z" fill="#f9f9f9"/><circle cx="383.873" cy="234.993" fill="#428dc5" r="16"/><path d="m120 184a8 8 0 0 0 8-8v-8a8 8 0 0 0 -16 0v8a8 8 0 0 0 8 8z"/><path d="m20.225 263.053a8 8 0 0 0 8.212-.4l18.543-12.359 11.363 11.363a8 8 0 0 0 11.314 0l10.343-10.343 10.343 10.343a8 8 0 0 0 11.314 0l9.477-9.478 16.866 22.488v113.052l-6.188 4.125a39.919 39.919 0 0 0 -17.812 33.282v14.874a8 8 0 0 0 8 8h56a24.027 24.027 0 0 0 24-24v-56h49.013a32.056 32.056 0 0 0 30.987 24h73.593a39.914 39.914 0 0 0 -17.593 33.126v14.874a8 8 0 0 0 8 8h56a24.027 24.027 0 0 0 24-24v-172.689l25.113 6.307a32.046 32.046 0 1 0 32.992-7.959 7.984 7.984 0 0 0 -1.808-.7l-51.777-13 47.739-12.259a32.245 32.245 0 0 0 7.583-1.982 7.943 7.943 0 0 0 1.054-.457 31.961 31.961 0 1 0 -35.964-7.067l-31.085 7.978q-.991-2.126-2.124-4.169c.063-.154.142-.3.195-.457a157.2 157.2 0 0 0 8.082-49.8v-23.746a8 8 0 0 0 -14.86-4.116l-10.984 18.307a60.419 60.419 0 0 1 -31.54 25.809h-5.6l-94.6-23.759a7.994 7.994 0 0 0 -6.057.895l-36.359 21.764v-6.9a56.268 56.268 0 0 0 -22.4-44.8l-12.345-9.259-55.6-55.6a8 8 0 0 0 -13.655 5.659v40a8 8 0 0 0 1.344 4.438l9.136 13.7-14.009 2.335a40.209 40.209 0 0 0 -32.647 31.611l-2.383 11.916h-33.441a24.027 24.027 0 0 0 -24 24v56a8 8 0 0 0 4.225 7.053zm435.554 3.214a16 16 0 1 1 -5.512 21.946 15.9 15.9 0 0 1 5.512-21.946zm-5.512-82.48a16 16 0 1 1 20.225 22.819l-5.13 1.317a15.971 15.971 0 0 1 -15.1-24.136zm-158.473 145.413a8 8 0 0 0 -3.794 6.8v24a16 16 0 0 1 -32 0v-48.032c.158.01.315.032.474.032a8.012 8.012 0 0 0 1.948-.241l13.578-3.41v11.651a8 8 0 0 0 16 0v-15.67l16-4.019v11.689a8 8 0 0 0 16 0v-15.707l40-10.047v41.754a8 8 0 0 0 -3.578.845l-12.422 6.211-12.422-6.211a8 8 0 0 0 -7.156 0l-12.422 6.211-12.422-6.211a8 8 0 0 0 -7.784.355zm108.206 94.8a8.009 8.009 0 0 1 -8 8h-48v-6.874a23.951 23.951 0 0 1 10.687-19.969l9.751-6.5a8 8 0 0 0 3.562-6.657 32.036 32.036 0 0 0 32-32zm-.075-251.641a141.14 141.14 0 0 1 -4.239 30.042 66.224 66.224 0 0 0 -15.743-11.212 76.449 76.449 0 0 0 19.982-18.83zm-23.925 34.921a50.129 50.129 0 0 1 5.427 3.837 23.8 23.8 0 0 0 -5.427 1.209zm0 26.337a8 8 0 1 1 4.094 8.424c-.018-.01-.038-.019-.056-.03a8.016 8.016 0 0 1 -4.038-5.642zm0 39.155 4.969-13.961a23.862 23.862 0 0 0 19.031-6.058v83.247a8 8 0 0 0 -11.578-7.155l-12.422 6.211zm3.578 78.383 4.422-2.211v11.056a16.019 16.019 0 0 1 -16 16h-68.294a31.808 31.808 0 0 0 4.294-16v-11.056l4.422 2.211a8 8 0 0 0 7.156 0l12.422-6.211 12.422 6.211a8 8 0 0 0 7.156 0l12.422-6.211 12.422 6.211a8 8 0 0 0 7.156 0zm-13.021-99.569-6.457 18.138-102.363 25.71-21.769-13.034 129.165-32.441q.677.848 1.424 1.627zm-6.557-50.586v31.525c-.077.745-.115 1.5-.122 2.264l-39.878 10.011v-4.8a8 8 0 0 0 -16 0v8a8.011 8.011 0 0 0 .041.809l-16.041 4.029v-4.838a8 8 0 0 0 -16 0v8a7.86 7.86 0 0 0 .046.845l-16.046 4.03v-60.875h94.062a50 50 0 0 1 9.938 1zm-102.261-24.43 29.6 7.434h-42.02zm-225.739 23.43a8.009 8.009 0 0 1 8-8h8v2.841a13.174 13.174 0 0 1 -13.159 13.159h-2.841zm0 24h2.841a29.192 29.192 0 0 0 29.159-29.159v-2.841h16a8 8 0 0 0 7.845-6.431l3.668-18.342a24.126 24.126 0 0 1 19.587-18.967l26.213-4.369a8 8 0 0 0 5.341-12.329l-14.654-21.984v-18.264l42.343 42.343a8.078 8.078 0 0 0 .857.743l12.8 9.6a40.191 40.191 0 0 1 16 32v16a8 8 0 0 0 8 8h32v64a8 8 0 0 0 .051.881l-26.713 6.709a8 8 0 0 0 -2.159 14.623l28.847 17.266c-.011.173-.026.345-.026.521v48h-56a8 8 0 0 0 -8 8v64a8.009 8.009 0 0 1 -8 8h-48v-6.874a23.951 23.951 0 0 1 10.687-19.969l9.75-6.5a8 8 0 0 0 3.563-6.657v-120a8 8 0 0 0 -1.6-4.8l-24-32a8 8 0 0 0 -12.057-.857l-10.343 10.343-10.343-10.343a8 8 0 0 0 -11.314 0l-10.343 10.343-10.343-10.343a8 8 0 0 0 -10.095-1l-11.562 7.709z"/></g></svg>