<?xml version="1.0"?>
<svg xmlns="http://www.w3.org/2000/svg" viewBox="0 0 512 512" width="512" height="512"><g id="filled_outline" data-name="filled outline"><path d="M352,488H336a88.1,88.1,0,0,1-88-88V384a8,8,0,0,1,16,0v16a72.081,72.081,0,0,0,72,72h16a72.081,72.081,0,0,0,72-72V384a8,8,0,0,1,16,0v16A88.1,88.1,0,0,1,352,488Z" style="fill:#4799cf"/><rect x="248" y="384" width="16" height="16" style="fill:#3775a4"/><path d="M432,24V79.34a239.952,239.952,0,0,1-25.34,107.34l-9.39,18.79A48,48,0,0,1,354.33,232H352l-29.15,75.8A44,44,0,0,1,281.78,336H230.22a44,44,0,0,1-41.07-28.2L160,232h-2.33a48,48,0,0,1-42.94-26.53l-9.39-18.8A239.879,239.879,0,0,1,80,79.34V24l93.66,73.59A47.994,47.994,0,0,1,192,135.33V136l28.22-14.11a80.019,80.019,0,0,1,71.56,0L320,136v-.67a47.994,47.994,0,0,1,18.34-37.74Z" style="fill:#a45e14"/><path d="M160,232V152l-2.788-1.858A96.007,96.007,0,0,1,124.6,113.2L80,24V79.344a240.006,240.006,0,0,0,25.337,107.331l9.4,18.791A48,48,0,0,0,157.666,232Z" style="fill:#70400e"/><path d="M352,232V152l2.788-1.858A96.007,96.007,0,0,0,387.4,113.2L432,24V79.344a240.006,240.006,0,0,1-25.337,107.331l-9.4,18.791A48,48,0,0,1,354.334,232Z" style="fill:#70400e"/><circle cx="220" cy="208" r="12" style="fill:#70400e"/><circle cx="292" cy="208" r="12" style="fill:#70400e"/><path d="M351.888,176a7.961,7.961,0,0,1,4.55,1.345l24,16A8,8,0,0,1,384,200v64a128,128,0,0,1-256,0V200a8,8,0,0,1,3.562-6.656l24-16A7.962,7.962,0,0,1,160.077,176L160,193.615l-16,10.666V264a112,112,0,0,0,224,0V204.281l-16-10.666Z" style="fill:#4799cf"/><circle cx="432" cy="344" r="40" style="fill:#cbcbcb"/><circle cx="432" cy="344" r="16" style="fill:#a8a8a8"/><path d="M287.99,335.56a43.963,43.963,0,0,1-6.21.44H270l-14-18.67L242,336H230.22a43.963,43.963,0,0,1-6.21-.44,7.945,7.945,0,0,1,1.59-4.36L248,301.33V280a8,8,0,0,1,16,0v21.33l22.4,29.87A7.945,7.945,0,0,1,287.99,335.56Z" style="fill:#70400e"/><path d="M279.8,276.1h0a36.945,36.945,0,0,1-16.522,3.9H248.721a36.945,36.945,0,0,1-16.522-3.9h0a14.834,14.834,0,0,1-8.2-13.267h0A14.833,14.833,0,0,1,238.833,248h34.334A14.833,14.833,0,0,1,288,262.833h0A14.834,14.834,0,0,1,279.8,276.1Z" style="fill:#70400e"/><circle cx="220" cy="208" r="12"/><circle cx="292" cy="208" r="12"/><path d="M480,344a48,48,0,1,0-56,47.321V400a72.081,72.081,0,0,1-72,72H336a72.081,72.081,0,0,1-72-72v-8.257C330.866,387.6,384,331.892,384,264V231.553a55.918,55.918,0,0,0,20.422-22.509l9.4-18.792A249.263,249.263,0,0,0,440,79.344V24a8,8,0,0,0-12.942-6.291L333.4,91.3a55.633,55.633,0,0,0-20.192,32.365l-17.856-8.928a88.416,88.416,0,0,0-78.708,0l-17.856,8.928A55.633,55.633,0,0,0,178.6,91.3L84.942,17.709A8,8,0,0,0,72,24V79.344A249.263,249.263,0,0,0,98.182,190.252l9.4,18.792A55.911,55.911,0,0,0,128,231.553V264c0,67.892,53.134,123.6,120,127.743V400a88.1,88.1,0,0,0,88,88h16a88.1,88.1,0,0,0,88-88v-8.679A48.07,48.07,0,0,0,480,344ZM360,223.6V198.948l8,5.333v17.343A39.938,39.938,0,0,1,360,223.6ZM399.507,183.1l-9.4,18.792A40.348,40.348,0,0,1,384,210.85V200a8,8,0,0,0-3.562-6.656L360,179.719V156.276a104.154,104.154,0,0,0,34.557-39.5L424,57.888V79.344A233.186,233.186,0,0,1,399.507,183.1ZM184,135.33V136a8,8,0,0,0,11.578,7.155L223.8,129.044a72.343,72.343,0,0,1,64.4,0l28.223,14.111A8,8,0,0,0,328,136v-.67a39.766,39.766,0,0,1,15.287-31.453l65.6-51.545L380.246,109.62a88.145,88.145,0,0,1-29.9,33.865l-2.788,1.859A8,8,0,0,0,344,152v78.515l-28.619,74.408a36.224,36.224,0,0,1-31.444,22.993L264,301.334V287.979a45.172,45.172,0,0,0,19.378-4.724h0A22.833,22.833,0,0,0,273.167,240H238.833a22.833,22.833,0,0,0-10.211,43.255A45.172,45.172,0,0,0,248,287.979v13.355l-19.937,26.582a36.224,36.224,0,0,1-31.444-22.993L168,230.515V152a8,8,0,0,0-3.563-6.656l-2.787-1.859a88.145,88.145,0,0,1-29.9-33.865L103.11,52.332l65.6,51.545A39.766,39.766,0,0,1,184,135.33Zm92.223,133.614A29.092,29.092,0,0,1,263.279,272H248.721a29.092,29.092,0,0,1-12.944-3.056A6.833,6.833,0,0,1,238.833,256h34.334a6.833,6.833,0,0,1,3.056,12.944ZM256,317.333,264,328H248ZM152,223.6a39.938,39.938,0,0,1-8-1.98V204.281l8-5.333Zm-30.112-21.715-9.4-18.792A233.186,233.186,0,0,1,88,79.344V57.888l29.443,58.887A104.154,104.154,0,0,0,152,156.276v23.443l-20.438,13.625A8,8,0,0,0,128,200v10.85A40.351,40.351,0,0,1,121.888,201.889ZM144,264V238.328a56.435,56.435,0,0,0,10.472,1.583l27.213,70.756A52.313,52.313,0,0,0,230.219,344h51.562a52.313,52.313,0,0,0,48.534-33.333l27.213-70.756A56.435,56.435,0,0,0,368,238.328V264a112,112,0,0,1-224,0ZM432,376a32,32,0,1,1,32-32A32.036,32.036,0,0,1,432,376Z"/><circle cx="432" cy="344" r="16"/></g></svg>
