<svg height="512" viewBox="0 0 512 512" width="512" xmlns="http://www.w3.org/2000/svg"><g id="filled_outline" data-name="filled outline"><rect fill="#c38325" height="456" rx="16" width="368" x="72" y="32"/><path d="m344 456h-240v-392h304v328z" fill="#f9f9f9"/><path d="m160 96h192v160h-192z" fill="#428dc5"/><path d="m160 216a207.444 207.444 0 0 1 62.813-65.875l9.187-6.125h48l16 16h24v18.762a21.239 21.239 0 0 1 -21.238 21.238h-10.762a24 24 0 0 0 -14.4 4.8 64 64 0 0 0 -25.6 51.2h-88z" fill="#f3af3e"/><path d="m256 144v33.373a16 16 0 0 1 -4.686 11.313 16 16 0 0 1 -22.628 0 16 16 0 0 1 -4.686-11.313v-33.373z" fill="#8f563b"/><path d="m248 240h-1.353a90.844 90.844 0 0 1 -77.507-43.884 8 8 0 0 1 13.72-8.232 74.764 74.764 0 0 0 63.787 36.116h1.353a8 8 0 0 1 0 16z" fill="#f55648"/><path d="m304 64h-96a16 16 0 0 1 -16-16v-24h128v24a16 16 0 0 1 -16 16z" fill="#744630"/><path d="m360 328h-24v-24h-32v24h-24v32h24v24h32v-24h24z" fill="#8dc79d"/><g fill="#eaeae8"><path d="m128 296h64v16h-64z"/><path d="m128 328h16v16h-16z"/><path d="m160 328h88v16h-88z"/><path d="m216 360h32v16h-32z"/><path d="m128 360h72v16h-72z"/><path d="m128 392h96v16h-96z"/><path d="m344 456v-64h64z"/></g><path d="m344 456 64-64v16l-48 48z" fill="#a66f1f"/><path d="m152 96v160a8 8 0 0 0 8 8h192a8 8 0 0 0 8-8v-160a8 8 0 0 0 -8-8h-192a8 8 0 0 0 -8 8zm16 122.275q3.829-6.225 8.11-12.172a91 91 0 0 0 65.749 33.757 71.713 71.713 0 0 0 -1.4 8.14h-72.459zm64-64.66 2.422-1.615h13.578v25.373a8 8 0 1 1 -16 0zm-8.97 40.728a24 24 0 0 0 40.97-16.97v-25.373h12.686l13.657 13.657a8 8 0 0 0 5.657 2.343h16v10.762a13.252 13.252 0 0 1 -13.238 13.238h-10.762a32.2 32.2 0 0 0 -19.2 6.4 72.046 72.046 0 0 0 -21.25 25.6h-.9a74.808 74.808 0 0 1 -60.317-30.876 201.355 201.355 0 0 1 29.667-28.23v12.479a23.843 23.843 0 0 0 7.03 16.97zm120.97-90.343v144h-87.394a56.3 56.3 0 0 1 21.794-36.8 16.1 16.1 0 0 1 9.6-3.2h10.762a29.271 29.271 0 0 0 29.238-29.238v-18.762a8 8 0 0 0 -8-8h-20.686l-13.657-13.657a8 8 0 0 0 -5.657-2.343h-56a8 8 0 0 0 -8 8v1.1a216.727 216.727 0 0 0 -43.626 39.778c-.164.084-.33.165-.49.261a7.968 7.968 0 0 0 -3.612 4.81q-.136.173-.272.346v-86.295z"/><path d="m424 24h-96a8 8 0 0 0 -8-8h-128a8 8 0 0 0 -8 8h-96a24.028 24.028 0 0 0 -24 24v424a24.028 24.028 0 0 0 24 24h336a24.028 24.028 0 0 0 24-24v-424a24.028 24.028 0 0 0 -24-24zm-120 328h-16v-16h16a8 8 0 0 0 8-8v-16h16v16a8 8 0 0 0 8 8h16v16h-16a8 8 0 0 0 -8 8v16h-16v-16a8 8 0 0 0 -8-8zm96 32h-56v-16h16a8 8 0 0 0 8-8v-32a8 8 0 0 0 -8-8h-16v-16a8 8 0 0 0 -8-8h-32a8 8 0 0 0 -8 8v16h-16a8 8 0 0 0 -8 8v32a8 8 0 0 0 8 8h16v16a8 8 0 0 0 8 8h32v56h-224v-376h288zm-11.314 16-36.686 36.686v-36.686zm-76.686-368v16a8.009 8.009 0 0 1 -8 8h-96a8.009 8.009 0 0 1 -8-8v-16zm120 440a8.009 8.009 0 0 1 -8 8h-336a8.009 8.009 0 0 1 -8-8v-424a8.009 8.009 0 0 1 8-8h96v8a23.889 23.889 0 0 0 1.376 8h-81.376a8 8 0 0 0 -8 8v392a8 8 0 0 0 8 8h240a8 8 0 0 0 5.657-2.343l64-64a8 8 0 0 0 2.343-5.657v-328a8 8 0 0 0 -8-8h-81.376a23.889 23.889 0 0 0 1.376-8v-8h96a8.009 8.009 0 0 1 8 8z"/><path d="m128 296h64v16h-64z"/><path d="m128 328h16v16h-16z"/><path d="m160 328h88v16h-88z"/><path d="m216 360h32v16h-32z"/><path d="m128 360h72v16h-72z"/><path d="m128 392h96v16h-96z"/></g></svg>