<svg height="512" viewBox="0 0 512 512" width="512" xmlns="http://www.w3.org/2000/svg"><g id="filled_outline" data-name="filled outline"><path d="m224 176-48 48q-2.145-1.065-4.16-2.31a57.872 57.872 0 0 1 -27.72-45.69q-.12-1.875-.12-3.78v-20.22h48z" fill="#f3af3e"/><path d="m208 200-20 12-16.16 9.69a57.872 57.872 0 0 1 -27.72-45.69h40.61l19.33 19.94z" fill="#5b3726"/><path d="m368 152v20.22q0 1.905-.12 3.78a57.929 57.929 0 0 1 -31.88 48l-48-48 32-24z" fill="#f3af3e"/><path d="m367.88 176a57.883 57.883 0 0 1 -24.58 43.65l-23.3-11.65-16-8 3.94-4.06 19.33-19.94z" fill="#5b3726"/><path d="m344 240v104h-176v-104a88 88 0 0 1 176 0z" fill="#f3af3e"/><path d="m360 32-8 32 88 56v216h32v-232l-104-69.333z" fill="#b9b9b9"/><path d="m472 360v48a80 80 0 0 1 -80 80h-272a80 80 0 0 1 -80-80v-48z" fill="#6fbbc6"/><rect fill="#8aced8" height="32" rx="16" width="464" x="24" y="328"/><path d="m346.788 89.862-35.788-53.062 22.435-10.24a28.331 28.331 0 0 1 35.253 9.932 28.332 28.332 0 0 1 -4 36.406z" fill="#cbcbcb"/><path d="m224 288v16a40.056 40.056 0 0 1 -37.61-26.39 40.128 40.128 0 0 1 -18.39-13.65v-23.96h8a23.937 23.937 0 0 0 8 17.87v-9.87h16v16a24.032 24.032 0 0 0 24 24z" fill="#da922a"/><path d="m344 240v23.96a40.128 40.128 0 0 1 -18.39 13.65 40.056 40.056 0 0 1 -37.61 26.39v-16a24.032 24.032 0 0 0 24-24v-16h16v9.87a23.937 23.937 0 0 0 8-17.87z" fill="#da922a"/><path d="m215.351 203.999h25.298v16.001h-25.298z" fill="#d18d28" transform="matrix(.949 -.316 .316 .949 -55.345 82.99)"/><path d="m275.999 199.351h16.001v25.298h-16.001z" fill="#d18d28" transform="matrix(.316 -.949 .949 .316 -6.93 414.386)"/><path d="m291.578 287.155-7.156-14.31a27.932 27.932 0 0 1 -20.422 1.747v-18.592h-16v18.6a27.951 27.951 0 0 1 -20.422-1.75l-7.156 14.31a43.9 43.9 0 0 0 35.578 1.566 43.9 43.9 0 0 0 35.578-1.571z" fill="#744630"/><path d="m192 320a15.915 15.915 0 0 1 -2.14 8h-21.86v-32a24 24 0 0 1 24 24z" fill="#d18d28"/><path d="m344 296v32h-21.86a15.915 15.915 0 0 1 -2.14-8 24 24 0 0 1 24-24z" fill="#d18d28"/><g fill="#c0f5f9"><path d="m232 136h-16a78.415 78.415 0 0 1 4.676-26.718l15.049 5.436a62.45 62.45 0 0 0 -3.725 21.282z"/><path d="m243.009 100.529-13.19-9.058a78.107 78.107 0 0 1 24.365-22.911l5.7-3.42 8.232 13.72-5.7 3.42a62.212 62.212 0 0 0 -19.407 18.249z"/><path d="m272 136h-16a78.415 78.415 0 0 1 4.676-26.718l15.049 5.436a62.45 62.45 0 0 0 -3.725 21.282z"/><path d="m283.009 100.529-13.19-9.058a78.107 78.107 0 0 1 24.365-22.911l5.7-3.42 8.232 13.72-5.7 3.42a62.212 62.212 0 0 0 -19.407 18.249z"/><path d="m312 136h-16a78.415 78.415 0 0 1 4.676-26.718l15.049 5.436a62.45 62.45 0 0 0 -3.725 21.282z"/></g><circle cx="80" cy="264" fill="#b3e4e8" r="32"/><circle cx="48" cy="184" fill="#c0f5f9" r="24"/><circle cx="392" cy="256" fill="#c0f5f9" r="16"/><path d="m96 392a8 8 0 0 1 -8 8h-48v-16h48a8 8 0 0 1 8 8z" fill="#8aced8"/><path d="m128 400h-8a8 8 0 0 1 0-16h8a8 8 0 0 1 0 16z" fill="#8aced8"/><path d="m256 416a8 8 0 0 0 8-8v-8a8 8 0 0 0 -16 0v8a8 8 0 0 0 8 8z" fill="#744630"/><path d="m240 424v-8a8 8 0 0 0 -16 0v8a8 8 0 0 0 16 0z" fill="#744630"/><path d="m280 408a8 8 0 0 0 -8 8v8a8 8 0 0 0 16 0v-8a8 8 0 0 0 -8-8z" fill="#744630"/><path d="m272 440h-8v-8a8 8 0 0 0 -16 0v8h-8a8 8 0 0 0 0 16h32a8 8 0 0 0 0-16z" fill="#744630"/><path d="m384 464a8 8 0 0 1 0-16 48.053 48.053 0 0 0 48-48 8 8 0 0 1 16 0 64.072 64.072 0 0 1 -64 64z" fill="#8aced8"/><path d="m352 464h-8a8 8 0 0 1 0-16h8a8 8 0 0 1 0 16z" fill="#8aced8"/><path d="m168 336h-16a16 16 0 0 1 -16-16 24 24 0 0 1 24-24 24 24 0 0 1 24 24 16 16 0 0 1 -16 16z" fill="#f3af3e"/><path d="m360 336h-16a16 16 0 0 1 -16-16 24 24 0 0 1 24-24 24 24 0 0 1 24 24 16 16 0 0 1 -16 16z" fill="#f3af3e"/><path d="m256 264a16 16 0 0 1 -16-16v-16h32v16a16 16 0 0 1 -16 16z" fill="#5b3726"/><path d="m40 360h432v16h-432z" fill="#69b0bb"/><path d="m299.63 32.278h32v80h-32z" fill="#b9b9b9" transform="matrix(.829 -.559 .559 .829 13.535 188.831)"/><path d="m480 321.376v-217.376a8 8 0 0 0 -3.562-6.656l-104.621-69.744a36.2 36.2 0 0 0 -41.7-8.321l-16.27 7.426-.684-1.014a8 8 0 0 0 -11.105-2.16l-26.531 17.897a8 8 0 0 0 -2.16 11.105l13.933 20.667a78.15 78.15 0 0 0 -17.486 18.272l13.186 9.059a62.278 62.278 0 0 1 13.271-14.031l18.9 28.022-14.493-5.235a78.415 78.415 0 0 0 -4.678 26.713h16a62.447 62.447 0 0 1 3.585-20.867l2.513 3.726a8 8 0 0 0 11.1 2.161l26.53-17.892a8 8 0 0 0 2.161-11.106l-.685-1.014 8.968-8.5 65.828 41.884v195.608h-48a32.036 32.036 0 0 0 -32-32v-48a96.878 96.878 0 0 0 -1.311-15.882 66.247 66.247 0 0 0 25.174-47.606c.091-1.414.137-2.858.137-4.292v-20.22a8 8 0 0 0 -8-8h-48a8.009 8.009 0 0 0 -4.8 1.6l-13.379 10.03a96.091 96.091 0 0 0 -91.644 0l-13.377-10.03a8.009 8.009 0 0 0 -4.8-1.6h-48a8 8 0 0 0 -8 8v20.22c0 1.434.046 2.878.137 4.3a66.243 66.243 0 0 0 25.174 47.6 96.86 96.86 0 0 0 -1.311 15.88v48a32.036 32.036 0 0 0 -32 32h-88a24 24 0 0 0 -8 46.624v41.376a88.1 88.1 0 0 0 88 88h272a88.1 88.1 0 0 0 88-88v-41.362a24.005 24.005 0 0 0 0-45.262zm-153.11-218.095-35.785-53.061 13.266-8.947 35.784 53.062zm32.3-36.188-11.049 10.467-25.224-37.4 13.844-6.318a20.331 20.331 0 0 1 22.426 33.254zm17.603 3.207a36.168 36.168 0 0 0 4.759-16.979l82.448 54.96v211.719h-16v-200a8 8 0 0 0 -3.7-6.75zm-24.793 233.7a16.019 16.019 0 0 1 16 16 8.009 8.009 0 0 1 -8 8h-16a8.009 8.009 0 0 1 -8-8 16.019 16.019 0 0 1 16-16zm-96-15.274a43.8 43.8 0 0 0 32 0v15.274a40.069 40.069 0 0 0 37.612-26.388 39.957 39.957 0 0 0 10.388-5.634v20.327a32.012 32.012 0 0 0 -16 27.695h-128a32.012 32.012 0 0 0 -16-27.695v-20.327a39.957 39.957 0 0 0 10.388 5.634 40.069 40.069 0 0 0 37.612 26.388v-15.274a43.8 43.8 0 0 0 32 0zm-8-40.726v-8h16v8a8 8 0 0 1 -16 0zm98.074-41.238a96.25 96.25 0 0 0 -12.101-22.762h24.607a50.32 50.32 0 0 1 -12.506 22.762zm-194.074-46.762h37.334l15.487 11.611a8 8 0 0 0 9.028.39 80.024 80.024 0 0 1 84.3 0 8 8 0 0 0 9.028-.39l15.489-11.611h37.334v8h-32.73a8 8 0 0 0 -5.745 2.432l-5.438 5.61a8 8 0 0 0 -.238 10.881 79.613 79.613 0 0 1 20.151 53.077 23.943 23.943 0 0 1 -8 17.869v-9.869h-16v16a24.028 24.028 0 0 1 -22.062 23.915c.55-.247 1.1-.49 1.64-.76l-7.156-14.31a27.932 27.932 0 0 1 -20.422 1.747v-3.968a24.039 24.039 0 0 0 16-22.624v-16a8 8 0 0 0 -8-8h-32a8 8 0 0 0 -8 8v16a24.039 24.039 0 0 0 16 22.624v3.976a27.951 27.951 0 0 1 -20.422-1.75l-7.156 14.31c.54.27 1.09.513 1.64.76a24.028 24.028 0 0 1 -22.062-23.92v-16h-16v9.869a23.943 23.943 0 0 1 -8-17.869 79.619 79.619 0 0 1 20.151-53.077 8 8 0 0 0 -.238-10.881l-5.438-5.61a8 8 0 0 0 -5.745-2.432h-32.73zm1.419 24h24.608a96.264 96.264 0 0 0 -12.1 22.762 50.311 50.311 0 0 1 -12.508-22.762zm6.581 120a16.019 16.019 0 0 1 16 16 8.009 8.009 0 0 1 -8 8h-16a8.009 8.009 0 0 1 -8-8 16.019 16.019 0 0 1 16-16zm304 104a72.081 72.081 0 0 1 -72 72h-272a72.081 72.081 0 0 1 -72-72v-8h40a8 8 0 0 0 0-16h-40v-16h416zm13.674-58.347a7.991 7.991 0 0 1 -5.674 2.347h-432a8 8 0 1 1 0-16h94.131a23.943 23.943 0 0 0 17.869 8h16a23.943 23.943 0 0 0 17.869-8h140.262a23.943 23.943 0 0 0 17.869 8h16a23.943 23.943 0 0 0 17.869-8h94.131a8.009 8.009 0 0 1 5.674 13.653z"/><path d="m215.351 203.999h25.298v16.001h-25.298z" transform="matrix(.949 -.316 .316 .949 -55.345 82.99)"/><path d="m275.999 199.351h16.001v25.298h-16.001z" transform="matrix(.316 -.949 .949 .316 -6.93 414.386)"/><path d="m216 136h16a62.45 62.45 0 0 1 3.725-21.282l-15.049-5.436a78.415 78.415 0 0 0 -4.676 26.718z"/><path d="m254.184 68.56a78.107 78.107 0 0 0 -24.365 22.911l13.19 9.058a62.212 62.212 0 0 1 19.407-18.249l5.7-3.42-8.232-13.72z"/><path d="m256 136h16a62.45 62.45 0 0 1 3.725-21.282l-15.049-5.436a78.415 78.415 0 0 0 -4.676 26.718z"/><path d="m40 264a40 40 0 1 0 40-40 40.045 40.045 0 0 0 -40 40zm40-24a24 24 0 1 1 -24 24 24.028 24.028 0 0 1 24-24z"/><path d="m48 152a32 32 0 1 0 32 32 32.036 32.036 0 0 0 -32-32zm0 48a16 16 0 1 1 16-16 16.019 16.019 0 0 1 -16 16z"/><path d="m368 256a24 24 0 1 0 24-24 24.028 24.028 0 0 0 -24 24zm24-8a8 8 0 1 1 -8 8 8.009 8.009 0 0 1 8-8z"/><path d="m120 400h8a8 8 0 0 0 0-16h-8a8 8 0 0 0 0 16z"/><path d="m256 416a8 8 0 0 0 8-8v-8a8 8 0 0 0 -16 0v8a8 8 0 0 0 8 8z"/><path d="m232 432a8 8 0 0 0 8-8v-8a8 8 0 0 0 -16 0v8a8 8 0 0 0 8 8z"/><path d="m280 432a8 8 0 0 0 8-8v-8a8 8 0 0 0 -16 0v8a8 8 0 0 0 8 8z"/><path d="m232 448a8 8 0 0 0 8 8h32a8 8 0 0 0 0-16h-8v-8a8 8 0 0 0 -16 0v8h-8a8 8 0 0 0 -8 8z"/><path d="m384 464a64.072 64.072 0 0 0 64-64 8 8 0 0 0 -16 0 48.053 48.053 0 0 1 -48 48 8 8 0 0 0 0 16z"/><path d="m344 464h8a8 8 0 0 0 0-16h-8a8 8 0 0 0 0 16z"/></g></svg>