<svg height="512" viewBox="0 0 512 512" width="512" xmlns="http://www.w3.org/2000/svg"><g id="filled_outline" data-name="filled outline"><path d="m336 245.3v210.7a32 32 0 0 1 -32 32h-160a32 32 0 0 1 -32-32v-210.7a79.972 79.972 0 0 1 38.84-68.6l41.16-24.7h64l41.16 24.7a79.972 79.972 0 0 1 38.84 68.6z" fill="#b8eaee"/><path d="m320 245.3v210.7a32 32 0 0 1 -32 32h-144a32 32 0 0 1 -32-32v-210.7a79.972 79.972 0 0 1 38.84-68.6l41.16-24.7h48l41.16 24.7a79.972 79.972 0 0 1 38.84 68.6z" fill="#aedee2"/><path d="m336 392v64a32 32 0 0 1 -32 32h-160a32 32 0 0 1 -32-32v-64z" fill="#eea5a9"/><path d="m320 392v64a32 32 0 0 1 -32 32h-144a31.973 31.973 0 0 1 -32-32v-64z" fill="#de9a9e"/><path d="m277.632 248a81.91 81.91 0 0 0 -107.264 0h-58.368v176h224v-176z" fill="#e4e4e2"/><path d="m192 104h64v48h-64z" fill="#fbb540"/><path d="m200 72h48v32h-48z" fill="#d18d28"/><path d="m264 32v32h72l16 32h32l-32-64z" fill="#d18d28"/><circle cx="226" cy="302" fill="#fbb540" r="82"/><g fill="#d18d28"><path d="m240 356a16 16 0 1 0 0-32 16 16 0 0 0 -32 0v.012a16 16 0 1 0 .31 31.988z"/><circle cx="224" cy="271.997" r="12"/><circle cx="180" cy="295.997" r="12"/><circle cx="268" cy="295.997" r="12"/></g><circle cx="104" cy="240" fill="#c0f5f9" r="32"/><circle cx="392" cy="320" fill="#c0f5f9" r="24"/><circle cx="424" cy="256" fill="#aedee2" r="16"/><path d="m376 128s-13.135 30.344-14.5 33.266a16 16 0 1 0 29.3.667c-1.3-3.133-14.8-33.933-14.8-33.933z" fill="#eea5a9"/><path d="m184 448h16v16h-16z" fill="#eea5a9"/><path d="m168 448v16h-54.99a32 32 0 0 1 -1.01-8v-8z" fill="#eea5a9"/><path d="m320 248h16v176h-16z" fill="#ebebeb"/><circle cx="372" cy="456" fill="#aedee2" r="32"/><circle cx="336" cy="424" fill="#c0f5f9" r="40"/><path d="m200 64h48v24h-48z" fill="#c38325"/><path d="m192 24h64a8 8 0 0 1 8 8v40a0 0 0 0 1 0 0h-80a0 0 0 0 1 0 0v-40a8 8 0 0 1 8-8z" fill="#fbb540"/><path d="m224 300a24.045 24.045 0 0 0 -22.97 17.035 24 24 0 0 0 6.97 46.965h.383 31.617a24 24 0 0 0 6.969-46.969 24.044 24.044 0 0 0 -22.969-17.031zm24 40a8.009 8.009 0 0 1 -8 8h-31.69-.16a8 8 0 1 1 -.143-15.99 8 8 0 0 0 7.993-8v-.069a8 8 0 0 1 16 .059 8 8 0 0 0 8 8 8.009 8.009 0 0 1 8 8z"/><path d="m204 272a20 20 0 1 0 20-20 20.023 20.023 0 0 0 -20 20zm24 0a4 4 0 1 1 -4-4 4 4 0 0 1 4 4z"/><path d="m200 296a20 20 0 1 0 -20 20 20.023 20.023 0 0 0 20-20zm-20 4a4 4 0 1 1 4-4 4 4 0 0 1 -4 4z"/><path d="m268 316a20 20 0 1 0 -20-20 20.023 20.023 0 0 0 20 20zm0-24a4 4 0 1 1 -4 4 4 4 0 0 1 4-4z"/><path d="m383.575 417.711a48.1 48.1 0 0 0 -39.575-41.032v-131.379a88.418 88.418 0 0 0 -42.724-75.459l-37.276-22.37v-43.471a8 8 0 0 0 -8-8v-16h8a8 8 0 0 0 8-8h59.056l13.789 27.578a8 8 0 0 0 7.155 4.422h32a8 8 0 0 0 7.155-11.578l-32-64a8 8 0 0 0 -7.155-4.422h-82.165a16 16 0 0 0 -13.835-8h-64a16.019 16.019 0 0 0 -16 16v40a8 8 0 0 0 8 8h8v16a8 8 0 0 0 -8 8v43.471l-37.272 22.367a87.469 87.469 0 0 0 -31.16 31.854 40.008 40.008 0 1 0 -11.568 78.308v176a40.045 40.045 0 0 0 40 40h160a39.983 39.983 0 0 0 34-18.906 40.007 40.007 0 1 0 45.578-59.383zm-111.575-377.711h75.056l24 48h-14.112l-13.789-27.578a8 8 0 0 0 -7.155-4.422h-64zm-80-8h64v32h-64zm56 80v32h-48v-32zm-40-16v-16h32v16zm-53.043 87.56 39.259-23.56h59.568l39.262 23.562a72.372 72.372 0 0 1 34.748 56.438h-47.294a89.8 89.8 0 0 0 -113 0h-23.5a39.737 39.737 0 0 0 -11.716-28.284c-.848-.848-1.732-1.647-2.64-2.408a71.55 71.55 0 0 1 25.313-25.748zm143.043 126.44a74 74 0 1 1 -74-74 74.083 74.083 0 0 1 74 74zm-165.716-41.716a39.956 39.956 0 0 0 8.388-12.284h11.374a90 90 0 1 0 143.908 0h32.046v120.679a48.11 48.11 0 0 0 -39.321 39.321h-168.679v-139.328a39.974 39.974 0 0 0 12.284-8.388zm-28.284-4.284a23.847 23.847 0 0 1 -16.971-7.029 24 24 0 1 1 16.971 7.029zm200 216h-160a24.039 24.039 0 0 1 -22.624-16h46.624v-16h-48v-16h168.679a48.133 48.133 0 0 0 34.606 38.278 23.977 23.977 0 0 1 -19.285 9.722zm32-24a32 32 0 1 1 32-32 32.036 32.036 0 0 1 -32 32zm36 24a23.946 23.946 0 0 1 -20.023-10.745 48.168 48.168 0 0 0 30.833-34.673 23.994 23.994 0 0 1 -10.81 45.418z"/><path d="m392 288a32 32 0 1 0 32 32 32.036 32.036 0 0 0 -32-32zm0 48a16 16 0 1 1 16-16 16.019 16.019 0 0 1 -16 16z"/><path d="m424 232a24 24 0 1 0 24 24 24.027 24.027 0 0 0 -24-24zm0 32a8 8 0 1 1 8-8 8.009 8.009 0 0 1 -8 8z"/><path d="m376 120h-.019a8 8 0 0 0 -7.323 4.822c-3.64 8.41-13.325 30.742-14.406 33.05a24 24 0 1 0 43.938 1c-1.312-3.175-14.311-32.828-14.863-34.089a8 8 0 0 0 -7.327-4.783zm8 48a8.006 8.006 0 0 1 -8.916 7.951 8.1 8.1 0 0 1 -7.018-6.905 7.88 7.88 0 0 1 .677-4.389c.687-1.469 3.988-9.033 7.291-16.63 3.544 8.11 6.8 15.574 7.371 16.965a7.822 7.822 0 0 1 .595 3.008z"/><path d="m184 448h16v16h-16z"/></g></svg>