<svg height="512" viewBox="0 0 512 512" width="512" xmlns="http://www.w3.org/2000/svg"><g id="filled_outline" data-name="filled outline"><path d="m96 32h35v32h-35z" fill="#f3af3e"/><path d="m128 24h35v56h-35z" fill="#d18d28"/><path d="m176 80a111.579 111.579 0 0 1 -16.96 59.136l-23.04 36.864h24l35.314-35.314a16 16 0 0 1 11.313-4.686h45.373v-32h-36z" fill="#c38325"/><path d="m248 101h80v53h-80z" fill="#d18d28"/><path d="m248 152-74.626 49.75a48 48 0 0 0 -21.374 39.939v214.311a32 32 0 0 0 32 32h144a32 32 0 0 0 32-32v-198.311a190.53 190.53 0 0 0 -32-105.689z" fill="#41dfd0"/><path d="m320.155 249.569-5.69-28.452a80.219 80.219 0 0 0 -2.855-10.5l15.119-5.238a96.419 96.419 0 0 1 3.425 12.6l7.977 38.021z" fill="#37c9c3"/><path d="m152 248h208v208h-208z" fill="#e4e4e2"/><path d="m152 448h208v8h-208z" fill="#cbcbcb"/><circle cx="256" cy="352" fill="#fbb540" r="72"/><g fill="#c38325"><rect height="32" rx="16" width="32" x="240" y="307.5"/><path d="m242.157 346.343-18.157-18.156v-12.687h-16v16a8 8 0 0 0 2.343 5.657l10.343 10.343h-12.686v16h12.686l-10.343 10.343a8 8 0 0 0 -2.343 5.657v16h16v-12.687l18.157-18.156-8.157-8.157v-2z"/><path d="m304 331.5v-16h-16v12.687l-19.794 19.793 8.794 8.795v.725l-7.157 7.157 18.157 18.156v12.687h16v-16a8 8 0 0 0 -2.343-5.657l-10.343-10.343h12.686v-16h-12.686l10.343-10.343a8 8 0 0 0 2.343-5.657z"/></g><path d="m300 175.056h16v17.889h-16z" fill="#37c9c3" transform="matrix(.894 -.447 .447 .894 -49.771 157.167)"/><path d="m216 104-56-24v-56h160l36.292 43.55a16 16 0 0 1 3.708 10.243v26.207z" fill="#f3af3e"/><rect fill="#d18d28" height="48" rx="24" width="48" x="232" y="331.5"/><path d="m256 272a80 80 0 1 0 80 80 80.091 80.091 0 0 0 -80-80zm0 16a63.66 63.66 0 0 1 39.212 13.474l-89.738 89.738a63.947 63.947 0 0 1 50.526-103.212zm0 128a63.66 63.66 0 0 1 -39.212-13.474l89.738-89.738a63.947 63.947 0 0 1 -50.526 103.212z" fill="#dc4d41"/><path d="m256 432a80 80 0 1 0 -80-80 80.091 80.091 0 0 0 80 80zm0-16a63.66 63.66 0 0 1 -39.212-13.474l7.026-7.026h.186v-.186l13.618-13.614a32 32 0 0 0 41.015-3.576 32.624 32.624 0 0 0 2.214-2.459l7.153 7.148v12.687h14.887a63.829 63.829 0 0 1 -46.887 20.5zm0-84.5a8 8 0 1 1 8-8 8.009 8.009 0 0 1 -8 8zm14.515 17.3a15.984 15.984 0 0 1 -21.221 21.221zm-20.557-2.07-9.91 9.91c-.027-.378-.048-.756-.048-1.139a15.906 15.906 0 0 1 4.4-11 23.884 23.884 0 0 0 5.558 2.228zm53.856-31.23 2.712-2.712a63.809 63.809 0 0 1 -2.526 81.477v-14.765a8 8 0 0 0 -2.343-5.657l-10.343-10.343h12.686v-16h-12.686l10.343-10.343a8 8 0 0 0 2.343-5.657v-16zm-47.814-27.5a63.66 63.66 0 0 1 39.212 13.474l-15.984 15.984a24 24 0 1 0 -45.466 15.053c-.13.126-.267.241-.4.369a32.82 32.82 0 0 0 -2.214 2.459l-7.148-7.152v-12.687h-16v16a8 8 0 0 0 2.343 5.657l10.343 10.343h-12.686v16h12.686l-10.343 10.343a8 8 0 0 0 -2.343 5.657v9.187l-2.526 2.525a63.947 63.947 0 0 1 50.526-103.212z"/><path d="m326.146 18.879a8 8 0 0 0 -6.146-2.879h-192a8 8 0 0 0 -8 8h-24a8 8 0 0 0 -8 8v32a8 8 0 0 0 8 8h24v8a8 8 0 0 0 8 8h30.357l8.95 3.836a103.934 103.934 0 0 1 -15.051 43.064l-23.04 36.861a8 8 0 0 0 6.784 12.239h24a8 8 0 0 0 5.657-2.343l35.31-35.309a7.956 7.956 0 0 1 5.663-2.348h33.37v3.719l-71.063 47.375a55.885 55.885 0 0 0 -24.937 46.594v214.312a40.045 40.045 0 0 0 40 40h144a40.045 40.045 0 0 0 40-40v-208a7.993 7.993 0 0 0 -.372-2.414 197.774 197.774 0 0 0 -31.628-95.967v-37.619h24a8 8 0 0 0 8-8v-26.207a24.04 24.04 0 0 0 -5.563-15.364zm-206.146 37.121h-16v-16h16zm32 16h-16v-40h16zm54.63 56a23.856 23.856 0 0 0 -16.977 7.033l-32.966 32.967h-6.252l15.39-24.623a120.037 120.037 0 0 0 16.748-45l30.276 12.976a8.01 8.01 0 0 0 3.151.647h24v16zm121.37 352h-144a24.039 24.039 0 0 1 -22.624-16h189.248a24.039 24.039 0 0 1 -22.624 16zm24-222.312v190.312h-192v-192h191.985c.005.563.015 1.125.015 1.688zm-.858-17.688h-16.583l-4.405-22.021a96.419 96.419 0 0 0 -3.425-12.6l-15.119 5.238a80.219 80.219 0 0 1 2.855 10.5l3.776 18.883h-158.189a39.9 39.9 0 0 1 17.76-31.594l72.61-48.406h73.238a181.822 181.822 0 0 1 27.482 80zm-95.142-96v-32h64v32zm96-48h-134.358l-49.642-21.275v-42.725h148.253l33.893 40.672a8.015 8.015 0 0 1 1.854 5.121z"/><path d="m300 175.056h16v17.889h-16z" transform="matrix(.894 -.447 .447 .894 -49.771 157.167)"/></g></svg>