<svg height="512" viewBox="0 0 512 512" width="512" xmlns="http://www.w3.org/2000/svg"><g id="filled_outline" data-name="filled outline"><path d="m104 138.687a8 8 0 0 1 -8-8v-62.112a23.87 23.87 0 0 1 13.268-21.467c.1-.052.21-.1.316-.149l15.155-6.759a8 8 0 0 1 6.522 14.61l-14.969 6.681a7.955 7.955 0 0 0 -4.292 7.084v62.112a8 8 0 0 1 -8 8z" fill="#eaeae8"/><path d="m264 138.687a8 8 0 0 1 -8-8v-62.112a7.955 7.955 0 0 0 -4.292-7.089l-14.969-6.681a8 8 0 0 1 6.522-14.61l15.155 6.764c.106.047.212.1.316.149a23.87 23.87 0 0 1 13.268 21.467v62.112a8 8 0 0 1 -8 8z" fill="#eaeae8"/><path d="m120 34.686 8 24 24.542-4.908a15.032 15.032 0 0 0 11.635-18.385 15.032 15.032 0 0 0 -20.166-10.311z" fill="#e08122"/><path d="m248 34.686-8 24-24.542-4.908a15.032 15.032 0 0 1 -11.635-18.385 15.032 15.032 0 0 1 20.166-10.311z" fill="#e08122"/><path d="m248 130.686v16a64 64 0 0 1 -64 64 64 64 0 0 1 -64-64v-16h-32v16a96.023 96.023 0 0 0 80 94.666v30.648h32v-30.648a96.023 96.023 0 0 0 80-94.666v-16z" fill="#6b9777"/><path d="m384 352h-32v28a76 76 0 0 1 -76 76 76 76 0 0 1 -76-76v-108h-32v108a108 108 0 0 0 108 108 108 108 0 0 0 108-108z" fill="#5e8569"/><path d="m352 312h32v40h-32z" fill="#cbcbcb"/><path d="m128 272h16v16h-16z" fill="#fbedbf"/><path d="m128 304h16v16h-16z" fill="#fbedbf"/><path d="m128 336h16v32h-16z" fill="#fbedbf"/><circle cx="368" cy="272" fill="#ebebeb" r="48"/><g fill="#8f563b"><path d="m376 288h-16a8 8 0 0 1 0-16h16a8 8 0 0 1 0 16z"/><circle cx="384" cy="264" r="8"/><circle cx="368" cy="256" r="8"/><circle cx="352" cy="264" r="8"/></g><path d="m392 322.586a56 56 0 1 0 -48 0v57.414a68 68 0 0 1 -136 0v-132.108a104.037 104.037 0 0 0 80-101.2v-16a8 8 0 0 0 -8-8h-8v-54.117a23.87 23.87 0 0 0 -13.268-21.467c-.1-.052-.21-.1-.316-.149l-5.288-2.36 2.461-7.383a8 8 0 0 0 -4.618-9.957l-24.011-9.6a23.032 23.032 0 1 0 -13.071 43.969l24.542 4.908a7.989 7.989 0 0 0 9.158-5.315l.455-1.365 3.664 1.635a7.955 7.955 0 0 1 4.292 7.084v54.112h-8a8 8 0 0 0 -8 8v16a56 56 0 0 1 -112 0v-16a8 8 0 0 0 -8-8h-8v-54.112a7.955 7.955 0 0 1 4.292-7.089l3.664-1.635.455 1.365a7.989 7.989 0 0 0 9.158 5.315l24.542-4.908a23.032 23.032 0 1 0 -13.071-43.969l-24.011 9.605a8 8 0 0 0 -4.618 9.957l2.461 7.383-5.288 2.36c-.106.047-.212.1-.316.149a23.87 23.87 0 0 0 -13.268 21.467v54.112h-8a8 8 0 0 0 -8 8v16a104.037 104.037 0 0 0 80 101.2v132.113a116 116 0 0 0 232 0zm-154.134-282.796a7.995 7.995 0 0 0 -5.73 9.165l-15.109-3.022a7.037 7.037 0 0 1 1.373-13.933 7.043 7.043 0 0 1 2.622.512l17.007 6.8zm-90.884-7.28a7.031 7.031 0 1 1 3.991 13.423l-15.109 3.022a8 8 0 0 0 -5.731-9.166l-.158-.476zm181.018 239.49a40 40 0 1 1 40 40 40.045 40.045 0 0 1 -40-40zm-158.676-38.538a88.021 88.021 0 0 1 -73.324-86.775v-8h16v8a72 72 0 0 0 144 0v-8h16v8a88.021 88.021 0 0 1 -73.324 86.775 8 8 0 0 0 -6.676 7.89v22.648h-16v-22.648a8 8 0 0 0 -6.676-7.89zm206.676 146.538a100 100 0 0 1 -200 0v-100h16v100a84 84 0 0 0 168 0v-20h16zm0-36h-16v-16.581a55.368 55.368 0 0 0 16 0z"/><path d="m384 280a8 8 0 0 0 -8-8h-16a8 8 0 0 0 0 16h16a8 8 0 0 0 8-8z"/><path d="m128 272h16v16h-16z"/><path d="m128 304h16v16h-16z"/><path d="m128 336h16v32h-16z"/><circle cx="384" cy="264" r="8"/><circle cx="368" cy="256" r="8"/><circle cx="352" cy="264" r="8"/></g></svg>