<svg height="512" viewBox="0 0 512 512" width="512" xmlns="http://www.w3.org/2000/svg"><g id="filled_outline" data-name="filled outline"><path d="m443.31 179.96-169.7 169.71a506.777 506.777 0 0 0 -114.74 72.04l-41.93 34.95-35.18 29.31a8.758 8.758 0 0 1 -12.33-12.34l29.06-34.88 35.19-42.23a507.325 507.325 0 0 0 72.05-114.73l169.7-169.71z" fill="#6cbae5"/><path d="m211.348 180.047h232v96h-232z" fill="#e4e4e2" transform="matrix(.707 -.707 .707 .707 -65.376 298.264)"/><path d="m410.343 105.052h32a32 32 0 0 1 32 32v16a0 0 0 0 1 0 0h-96a0 0 0 0 1 0 0v-16a32 32 0 0 1 32-32z" fill="#4799cf" transform="matrix(.707 .707 -.707 .707 216.127 -263.672)"/><path d="m369.736 209.615a23.92 23.92 0 0 1 -6.168-.807l4.126-15.459a8.042 8.042 0 0 0 7.738-2.072 8 8 0 0 0 -11.314-11.313 8.042 8.042 0 0 0 -2.072 7.736l-15.458 4.127a24.083 24.083 0 0 1 6.212-23.177 24 24 0 1 1 33.941 33.942 24.083 24.083 0 0 1 -17.005 7.023z" fill="#cdcdcd"/><path d="m280.034 223.361h72v32h-72z" fill="#b8eaee" transform="matrix(.707 -.707 .707 .707 -76.689 293.577)"/><path d="m278.314 226.295h66.636v24.913h-66.636z" fill="#c0f5f9" transform="matrix(.707 -.707 .707 .707 -77.548 290.286)"/><path d="m116.72 456.84-34.96 29.13a8.752 8.752 0 0 1 -11.8-.54 7.851 7.851 0 0 1 -.8-.93c-.01-.01-.01-.02-.02-.03a8.749 8.749 0 0 1 .29-10.84l28.86-34.64.2-.24 16.58 16.45z" fill="#dbdbdb"/><path d="m115.07 455.2-34.94 29.11a8.744 8.744 0 0 1 -10.97.19c-.01-.01-.01-.02-.02-.03a8.749 8.749 0 0 1 .29-10.84l28.86-34.64.2-.24z" fill="#eaeae8"/><path d="m320 88a64 64 0 1 0 -79.547 62.088l15.547 25.912 15.547-25.912a64.019 64.019 0 0 0 48.453-62.088z" fill="#fbd699"/><g fill="#c38325"><path d="m264 88h-16a8 8 0 0 0 0 16 8 8 0 0 0 16 0 8 8 0 0 0 0-16z"/><circle cx="256" cy="72" r="8"/><circle cx="232" cy="80" r="8"/><circle cx="280" cy="80" r="8"/></g><path d="m64.305 491.092a16.682 16.682 0 0 0 22.581 1.023l77.114-64.258a498.86 498.86 0 0 1 112.923-70.9 8.009 8.009 0 0 0 2.347-1.626l169.7-169.71 11.314-11.314a40.046 40.046 0 0 0 0-56.569l-22.627-22.628a40.048 40.048 0 0 0 -56.569 0l-11.308 11.31-169.711 169.71a8 8 0 0 0 -1.626 2.347 498.927 498.927 0 0 1 -70.905 112.923l-64.258 77.111a16.678 16.678 0 0 0 1.025 22.581zm328.095-384.667a24.024 24.024 0 0 1 33.941 0l22.628 22.628a24.027 24.027 0 0 1 0 33.94l-5.657 5.657-56.569-56.568zm-16.969 16.975 56.569 56.564-152.735 152.736-56.565-56.57zm-235.601 278.244a514.933 514.933 0 0 0 71.923-113.83l55.828 55.829a514.906 514.906 0 0 0 -113.83 71.923l-36.5 30.418-7.839-7.838zm-64.258 77.109 23.554-28.265 5.781 5.782-28.264 23.553a.76.76 0 0 1 -1.071-1.07z"/><path d="m362.046 187.7a8.042 8.042 0 0 1 2.072-7.736 8 8 0 1 1 11.314 11.313 8.042 8.042 0 0 1 -7.738 2.072l-4.126 15.459a24 24 0 1 0 -16.98-16.981z"/><path d="m301.893 284.131a8 8 0 0 0 5.656-2.343l50.912-50.912a8 8 0 0 0 0-11.314l-22.628-22.627a8 8 0 0 0 -11.313 0l-50.912 50.911a8 8 0 0 0 0 11.314l22.628 22.628a8 8 0 0 0 5.657 2.343zm28.284-70.226 11.313 11.314-39.6 39.6-11.311-11.319z"/><path d="m184 88a71.858 71.858 0 0 0 51.242 68.951l13.9 23.165a8 8 0 0 0 13.72 0l13.9-23.165a72 72 0 1 0 -92.762-68.951zm128 0a55.886 55.886 0 0 1 -42.391 54.326 8 8 0 0 0 -4.922 3.646l-8.687 14.478-8.687-14.478a8 8 0 0 0 -4.922-3.646 56 56 0 1 1 69.609-54.326z"/><path d="m248 88a8 8 0 0 0 0 16 8 8 0 0 0 16 0 8 8 0 0 0 0-16z"/><circle cx="256" cy="72" r="8"/><circle cx="232" cy="80" r="8"/><circle cx="280" cy="80" r="8"/></g></svg>