<svg height="512" viewBox="0 0 512 512" width="512" xmlns="http://www.w3.org/2000/svg"><g id="filled_outline" data-name="filled outline"><path d="m352 280v-40h-112v40a32 32 0 0 0 -32 32v144a32 32 0 0 0 32 32h112a32 32 0 0 0 32-32v-144a32 32 0 0 0 -32-32z" fill="#6b9777"/><path d="m384 176v48a16 16 0 0 1 -16 16h-144a15.974 15.974 0 0 1 -16-16v-48a16 16 0 0 1 16-16h144a16 16 0 0 1 16 16z" fill="#cbcbcb"/><path d="m208 328h176v112h-176z" fill="#e4e4e2"/><g fill="#6b9777"><rect height="24" rx="12" width="48" x="272" y="392"/><path d="m296 376a8 8 0 0 1 -8-8v-8a8 8 0 0 1 16 0v8a8 8 0 0 1 -8 8z"/><path d="m272 384a8 8 0 0 1 -8-8v-8a8 8 0 0 1 16 0v8a8 8 0 0 1 -8 8z"/><path d="m320 384a8 8 0 0 1 -8-8v-8a8 8 0 0 1 16 0v8a8 8 0 0 1 -8 8z"/></g><path d="m34.821 496.011a8 8 0 0 1 -7.164-11.55l49.669-100.385a8 8 0 1 1 14.34 7.095l-49.666 100.386a8 8 0 0 1 -7.179 4.454z" fill="#c3c3c3"/><path d="m384 184v16h-56a8 8 0 0 1 0-16z" fill="#e4e4e2"/><path d="m296 200h-16a8 8 0 0 1 0-16h16a8 8 0 0 1 0 16z" fill="#e4e4e2"/><path d="m432 360v-32h-64v32a16 16 0 0 0 -16 16v96a16 16 0 0 0 16 16h64a16 16 0 0 0 16-16v-96a16 16 0 0 0 -16-16z" fill="#a45e14"/><rect fill="#a8a8a8" height="48" rx="6" width="96" x="352" y="280"/><path d="m352 392h96v64h-96z" fill="#f3af3e"/><path d="m448 416v16h-24a8 8 0 0 1 0-16z" fill="#ea9d2d"/><path d="m392 432h-8a8 8 0 0 1 0-16h8a8 8 0 0 1 0 16z" fill="#ea9d2d"/><path d="m240 240h112v16h-112z" fill="#5e8569"/><path d="m368 328h64v16h-64z" fill="#834b10"/><path d="m247.81 160-36.54 73.71a15.974 15.974 0 0 1 -3.27-9.71v-48a16 16 0 0 1 16-16z" fill="#b9b9b9"/><path d="m190.926 100.889 57.327 28.455-108.417 218.764a12 12 0 0 1 -16.084 5.413l-35.829-17.784a12 12 0 0 1 -5.413-16.084z" fill="#ebebeb"/><path d="m162.83 157.492 57.326 28.455-80.32 162.161a12 12 0 0 1 -16.084 5.413l-35.829-17.784a12 12 0 0 1 -5.413-16.084z" fill="#f388a2"/><path d="m169.079 221.09h16v32h-16z" fill="#cf748a" transform="matrix(.445 -.896 .896 .445 -114.019 290.291)"/><path d="m154.852 249.753h16v32h-16z" fill="#cf748a" transform="matrix(.445 -.896 .896 .445 -147.595 293.466)"/><path d="m140.624 278.416h16v32h-16z" fill="#cf748a" transform="matrix(.445 -.896 .896 .445 -181.171 296.642)"/><path d="m126.397 307.08h16v32h-16z" fill="#cf748a" transform="matrix(.445 -.896 .896 .445 -214.747 299.817)"/><path d="m95.167 342.126a16 16 0 0 1 16 16v32a0 0 0 0 1 0 0h-32a0 0 0 0 1 0 0v-32a16 16 0 0 1 16-16z" fill="#4799cf" transform="matrix(-.896 -.445 .445 -.896 17.627 736.386)"/><path d="m184.229 194.518a8 8 0 0 1 -7.162-11.557l60.272-121.51a8 8 0 0 1 14.334 7.11l-60.273 121.51a8 8 0 0 1 -7.171 4.447z" fill="#f3af3e"/><path d="m212.472 111.583-35.4 71.378a8 8 0 1 0 14.334 7.11l35.394-71.371z" fill="#ea9d2d"/><path d="m162.83 157.492 57.326 28.455-14.517 29.594-57.327-28.456z" fill="#da922a"/><rect fill="#4799cf" height="32" rx="16" transform="matrix(-.896 -.445 .445 -.896 454.471 207.937)" width="80" x="211.62" y="34.674"/><path d="m442 336a14.015 14.015 0 0 0 14-14v-36a14.015 14.015 0 0 0 -14-14h-82v-24h8a24.028 24.028 0 0 0 24-24v-48a24.028 24.028 0 0 0 -24-24h-122.047l9.468-19.1a8 8 0 0 0 -3.611-10.718l-21.482-10.663 17.784-35.788 14.333 7.115a24 24 0 1 0 21.342-42.995l-42.994-21.345a24 24 0 1 0 -21.341 42.994l14.328 7.113-17.78 35.787-21.517-10.677a8 8 0 0 0 -10.724 3.613l-108.415 218.764a20.034 20.034 0 0 0 5.618 24.667l-10.85 21.859a23.94 23.94 0 0 0 4.288 27.374l-46.743 94.461a8 8 0 1 0 14.34 7.1l46.723-94.435a23.693 23.693 0 0 0 2.868.178 24.065 24.065 0 0 0 21.519-13.341l10.851-21.863a19.76 19.76 0 0 0 5.111.681 20.055 20.055 0 0 0 17.931-11.121l56.83-114.672a24 24 0 0 0 20.17 11.012h8v24.8a40.071 40.071 0 0 0 -32 39.2v144a40.045 40.045 0 0 0 40 40h112a40.1 40.1 0 0 0 9.045-1.031 23.928 23.928 0 0 0 6.955 1.031h64a24.027 24.027 0 0 0 24-24v-96a24.039 24.039 0 0 0 -16-22.624v-17.376zm-215.435-288.831a8 8 0 0 1 7.115-14.331l42.993 21.342a8 8 0 1 1 -7.113 14.33zm-3.357 78.675 14.326 7.111-11.642 23.493-9.313 18.792-14.372-7.134zm-28.668-14.23 14.336 7.116-21 42.262-14.292-7.092zm-95.765 265.235a8 8 0 0 1 -14.331-7.114l10.671-21.5 14.331 7.114zm88.957-143.4-21.427-10.639-7.114 14.332 21.436 10.64-7.1 14.336-21.446-10.645-7.113 14.332 21.454 10.649-7.105 14.336-21.467-10.654-7.114 14.332 21.472 10.658-7.1 14.337-21.486-10.663-7.113 14.332 21.491 10.668-5.329 10.752a4 4 0 0 1 -5.361 1.8l-35.83-17.784a4.007 4.007 0 0 1 -1.8-5.366l62.164-125.436 42.995 21.341zm20.888-42.149-6.678 13.476-42.942-21.316 6.645-13.546.832-1.68 42.988 21.338zm15.38 40.7a8.009 8.009 0 0 1 -8-8v-11.416l7-14.274 15.024-30.31h129.976a8.009 8.009 0 0 1 8 8v8h-48a8 8 0 0 0 0 16h48v24a8.009 8.009 0 0 1 -8 8zm-8 80a24.027 24.027 0 0 1 24-24 8 8 0 0 0 8-8v-32h96v72h-128zm24 168a24.027 24.027 0 0 1 -24-24v-8h128v24a23.889 23.889 0 0 0 1.376 8zm104-104v56h-128v-96h144v17.376a24.039 24.039 0 0 0 -16 22.624zm96 96a8.009 8.009 0 0 1 -8 8h-64a8.009 8.009 0 0 1 -8-8v-8h80zm0-56h-16a8 8 0 0 0 0 16h16v16h-80v-48h80zm0-32h-80v-8a8.009 8.009 0 0 1 8-8h64a8.009 8.009 0 0 1 8 8zm-64-32v-16h48v16zm-16-32v-32h80v32z"/><path d="m308 392h-24a12 12 0 0 0 0 24h24a12 12 0 0 0 0-24z"/><path d="m296 376a8 8 0 0 0 8-8v-8a8 8 0 0 0 -16 0v8a8 8 0 0 0 8 8z"/><path d="m280 376v-8a8 8 0 0 0 -16 0v8a8 8 0 0 0 16 0z"/><path d="m320 360a8 8 0 0 0 -8 8v8a8 8 0 0 0 16 0v-8a8 8 0 0 0 -8-8z"/><path d="m384 432h8a8 8 0 0 0 0-16h-8a8 8 0 0 0 0 16z"/><path d="m280 200h16a8 8 0 0 0 0-16h-16a8 8 0 0 0 0 16z"/></g></svg>