<svg height="512" viewBox="0 0 512 512" width="512" xmlns="http://www.w3.org/2000/svg"><g id="filled_outline" data-name="filled outline"><path d="m392 440v-72h48v88a32 32 0 0 1 -32 32h-16z" fill="#f6bb92"/><path d="m416 296 6.753-16 5.99-14.191a41.663 41.663 0 0 0 -8.943-45.609 41.665 41.665 0 0 1 -12.2-29.46v-38.74h-175.6v38.743a41.665 41.665 0 0 1 -12.2 29.46 41.663 41.663 0 0 0 -8.947 45.606l6.34 15.081z" fill="#834b10"/><path d="m440 328.662a48 48 0 0 0 -40.109-47.347l-7.891-1.315-41.315-6.886-30.685 30.886-31.008-31.124-56.992 7.124v208h160v-64a45.262 45.262 0 0 0 6.362-56h41.638z" fill="#85bc94"/><path d="m408 160h-176v-48a88 88 0 0 1 88-88 88 88 0 0 1 88 88z" fill="#834b10"/><path d="m384 136h-8v-48h-112v48h-8a24 24 0 0 0 -24 24 24 24 0 0 0 24 24h8v8a56 56 0 0 0 56 56 56 56 0 0 0 56-56v-8h8a24 24 0 0 0 24-24 24 24 0 0 0 -24-24z" fill="#f6bb92"/><path d="m312 334.55v153.45h-179a154.441 154.441 0 0 1 20.72-25.72l.59-.59a158.562 158.562 0 0 0 33.71-49.74c3.14-7.32 6.27-14.64 8.55-19.95 2.07-4.83 3.43-8 3.43-8h-23.02a32.028 32.028 0 0 1 -31.04-24.24l-3.94-15.76-1.03-4.12a16 16 0 0 1 15.52-19.88h27.51a68.355 68.355 0 0 1 29.69-37.02l3.5-2.09a62.405 62.405 0 0 1 59.98-2.31l.35.18a62.378 62.378 0 0 1 34.48 55.79z" fill="#bd9070"/><path d="m312 336v22.7a24 24 0 0 1 -16.411 22.768 24 24 0 0 1 -15.178 0 24 24 0 0 1 -16.411-22.768v-38.7h32z" fill="#9e785d"/><path d="m237.66 373.66-16 16a8.008 8.008 0 0 1 -5.66 2.34h-19.43c2.07-4.83 3.43-8 3.43-8h-23.02a31.878 31.878 0 0 1 -21.15-8h56.86l13.65-13.66a8 8 0 0 1 11.32 11.32z" fill="#9e785d"/><path d="m168 320v9.669a14.331 14.331 0 0 1 -14.331 14.331h-11.669l-1.03-4.12a16 16 0 0 1 15.52-19.88z" fill="#9e785d"/><path d="m192.815 468.239a8 8 0 0 1 -6.394-12.8 147.633 147.633 0 0 0 21.99-41.969 8 8 0 1 1 15.178 5.06 163.612 163.612 0 0 1 -24.368 46.509 7.988 7.988 0 0 1 -6.406 3.2z" fill="#9e785d"/><g fill="#834b10"><path d="m256 136a54.549 54.549 0 0 0 33.4-31.489l6.6-16.511-40-8z"/><path d="m296 88 .937 1.405a104.635 104.635 0 0 0 87.063 46.595v-56z"/><circle cx="290" cy="152" r="10"/><circle cx="350" cy="152" r="10"/><path d="m320 192h-16a8 8 0 0 1 -7.155-11.578l16-32a8 8 0 1 1 14.31 7.156l-10.211 20.422h3.056a8 8 0 0 1 0 16z"/></g><path d="m368 344a8 8 0 0 1 -8-8v-56a8 8 0 0 1 16 0v56a8 8 0 0 1 -8 8z" fill="#c3c3c3"/><circle cx="368" cy="360" fill="#e4e4e2" r="24"/><circle cx="368" cy="360" fill="#c3c3c3" r="8"/><path d="m400 488h-120a24 24 0 0 1 -24-24 24 24 0 0 1 24-24h8a16 16 0 0 1 16-16h1.373a16 16 0 0 1 11.313 4.686l11.314 11.314h72z" fill="#f6bb92"/><path d="m133.892 450.861a19.96 19.96 0 0 0 12.781 27.427l30.794 8.7a24 24 0 0 0 29.622-16.568 24 24 0 0 0 -16.568-29.62l-7.7-2.175a16 16 0 0 0 -11.045-19.749l-1.321-.373a16 16 0 0 0 -12.162 1.433 48.558 48.558 0 0 0 -20.549 22.393z" fill="#f6bb92"/><path d="m92.219 230.806a20.085 20.085 0 0 1 14.2 5.882l10.118 10.118 10.117-10.118a20.087 20.087 0 0 1 14.2-5.882 20.083 20.083 0 0 1 19.484 15.213 24.553 24.553 0 0 1 -10.2 26.385l-33.6 22.4-33.6-22.4a24.552 24.552 0 0 1 -10.2-26.385 20.083 20.083 0 0 1 19.481-15.213z" fill="#dc4d41"/><path d="m256 136h8v48h-8z" fill="#eeb58e"/><path d="m376 136h8v48h-8z" fill="#eeb58e"/><path d="m288.992 272.876 31.008 31.124 30.685-30.886a8 8 0 0 1 -6.685-7.891v-25.223h-48v24.938a8 8 0 0 1 -7.008 7.938z" fill="#f6bb92"/><path d="m320 248a56 56 0 0 1 -56-56v-8h112v8a56 56 0 0 1 -56 56z" fill="#85bc94"/><circle cx="224" cy="328" fill="#9e785d" r="8"/><circle cx="290" cy="152" r="10"/><circle cx="350" cy="152" r="10"/><circle cx="368" cy="360" r="8"/><path d="m428.732 286.4 7.384-17.488a49.487 49.487 0 0 0 -10.666-54.372 33.626 33.626 0 0 1 -9.86-23.8l.41-78.74a96 96 0 0 0 -192 0v78.74a33.9 33.9 0 0 1 -9.857 23.8 49.644 49.644 0 0 0 -10.668 54.368l3.674 8.738a76.266 76.266 0 0 0 -28.682 34.354h-21.977a23.841 23.841 0 0 0 -18.909 9.223 24.207 24.207 0 0 0 -1.581 2.277 23.777 23.777 0 0 0 -3.517 12.883 24.289 24.289 0 0 0 .722 5.442l1.03 4.12 3.939 15.754a39.934 39.934 0 0 0 38.8 30.3h10.887l-7.2 16.806c-.615 1.439-1.267 2.874-1.934 4.305a24.188 24.188 0 0 0 -4.776-1.934l-1.323-.374a23.844 23.844 0 0 0 -18.242 2.15 56.933 56.933 0 0 0 -23.934 26.083l-3.853 8.533a27.952 27.952 0 0 0 4.12 29.546q-2.311 3.239-4.451 6.558a8 8 0 0 0 6.732 12.328h275a40.045 40.045 0 0 0 40-40v-127.34a55.961 55.961 0 0 0 -19.268-42.26zm3.268 42.26v31.34h-29.451c-.867-1.149-1.766-2.275-2.726-3.354a32.077 32.077 0 0 0 -23.823-27.633v-43.57l14.684 2.448h.008l7.884 1.319a39.969 39.969 0 0 1 33.424 39.45zm-46.183 90.264c-.035.043-.066.09-.1.134-.127.162-.252.324-.367.5-.028.043-.051.088-.079.131-.114.177-.224.356-.324.542-.017.031-.03.065-.047.1-.1.2-.2.4-.289.611-.009.021-.015.044-.024.065-.089.219-.17.442-.24.67-.007.024-.011.049-.018.072-.066.225-.126.452-.172.685-.013.063-.018.129-.03.192-.033.193-.067.386-.087.583-.026.264-.04.531-.04.8v8h-52.686l-8.967-8.967a24.074 24.074 0 0 0 -2.347-2.042v-86.45a70.442 70.442 0 0 0 -4.1-23.695 7.97 7.97 0 0 0 10.5-2.055l21.163-28.217a16.147 16.147 0 0 0 1.8.418l10.637 1.773v46.239a32 32 0 1 0 34.485 48.925 37.227 37.227 0 0 1 -8.139 40.4c-.186.188-.362.383-.529.586zm-129.833-274.924h.016v32a16 16 0 0 1 -.016-32zm144.016 16a16.019 16.019 0 0 1 -16 16v-32a16.019 16.019 0 0 1 16 16zm-32 16h-51.056l10.211-20.422a8 8 0 1 0 -14.31-7.156l-13.789 27.578h-27.056v-38.784a62.518 62.518 0 0 0 24.828-29.737l1.285-3.213a111.631 111.631 0 0 0 69.887 38.588zm-64.041 16h.035.028 63.978a48 48 0 0 1 -96 0zm16.041 64a63.921 63.921 0 0 0 16-2.025v11.245a16.134 16.134 0 0 0 .411 3.565l-16.411 21.882-16.467-21.956a15.941 15.941 0 0 0 .467-3.771v-10.965a63.921 63.921 0 0 0 16 2.025zm-16 102.7a16 16 0 1 1 -32 0v-30.7h20.687l11.313 11.313zm80 1.3a16 16 0 1 1 -16-16 16.018 16.018 0 0 1 16 16zm37.37-97.3-6.306 14.935a55.764 55.764 0 0 0 -13.854-4.205l-7.888-1.319h-.006l-41.316-6.891v-17.83a64.023 64.023 0 0 0 32-55.39 31.8 31.8 0 0 0 15.59-4.069v2.809a49.624 49.624 0 0 0 14.553 35.117 33.541 33.541 0 0 1 7.227 36.843zm-101.37-230.7a80.017 80.017 0 0 1 80 80v20.305a31.793 31.793 0 0 0 -16-4.305c-2.5 0-4.981-.1-7.39-.287a95.984 95.984 0 0 1 -73.01-42.74l-.94-1.41a8 8 0 0 0 -14.085 1.467l-6.6 16.51a46.437 46.437 0 0 1 -27.46 26.5 31.766 31.766 0 0 0 -14.515 4.265v-20.305a80.091 80.091 0 0 1 80-80zm-94.543 193.857a49.337 49.337 0 0 0 14.543-35.117v-3.04a31.793 31.793 0 0 0 16 4.3 64.025 64.025 0 0 0 32 55.39v17.551l-17.894 2.235c-1.514-.47-3.059-.913-4.649-1.29a70.326 70.326 0 0 0 -44.234 3.953l-3-7.129a33.641 33.641 0 0 1 7.232-36.853zm-68.967 102.143h3.51v1.669a6.338 6.338 0 0 1 -6.331 6.331h-5.169c0-.049 0-.1.006-.146a8.073 8.073 0 0 1 .081-1c.014-.1.027-.2.045-.3a7.921 7.921 0 0 1 .285-1.125c.013-.039.032-.076.045-.115a8.141 8.141 0 0 1 .428-.973q.071-.138.147-.273a8.065 8.065 0 0 1 .657-1 7.945 7.945 0 0 1 6.296-3.068zm59.51 64a8 8 0 0 0 5.657-2.343l16-16a8 8 0 1 0 -11.314-11.314l-13.656 13.657h-35.707a23.96 23.96 0 0 1 -23.28-18.181l-1.454-5.819h1.423a22.357 22.357 0 0 0 22.331-22.331v-1.669h8a8 8 0 0 0 7.589-5.47 60.356 60.356 0 0 1 26.2-32.681l3.518-2.1a54.35 54.35 0 0 1 40.455-6.294q2.607.618 5.042 1.454a54.122 54.122 0 0 1 6.711 2.789l.425.218a53.79 53.79 0 0 1 10.174 6.613c.083.069.168.137.254.2a54.2 54.2 0 0 1 15.092 20.071 7.994 7.994 0 0 0 -3.46-.8h-32a8 8 0 0 0 -8 8v38.7a31.934 31.934 0 0 0 48 27.69v29.61a24.009 24.009 0 0 0 -22.642 16h-1.358a31.976 31.976 0 0 0 -27.695 48h-40.648a32.027 32.027 0 0 0 -.6-33.153 164.7 164.7 0 0 0 12.535-28.315 8 8 0 0 0 -15.178-5.064 148.591 148.591 0 0 1 -9.457 22.142 31.96 31.96 0 0 0 -6.257-2.51l-1.308-.37a23.744 23.744 0 0 0 -1.319-6.423c1.916-3.685 3.694-7.441 5.3-11.207l9.9-23.1zm-74.816 62.153 3.853-8.533a40.825 40.825 0 0 1 17.162-18.7 7.962 7.962 0 0 1 6.08-.717l1.322.374a8.008 8.008 0 0 1 5.523 9.874 8 8 0 0 0 5.522 9.874l7.7 2.176a16 16 0 0 1 -8.7 30.794l-30.8-8.7a11.959 11.959 0 0 1 -7.657-16.434zm290.816 1.847a24.028 24.028 0 0 1 -24 24h-128a16 16 0 0 1 0-32h8a8 8 0 0 0 8-8 7.981 7.981 0 0 1 8-8h1.37a8.154 8.154 0 0 1 5.663 2.347l11.31 11.31a8 8 0 0 0 5.657 2.343h64a8 8 0 0 0 8-8v-12.838a53.305 53.305 0 0 0 10.8-51.162h21.2z"/><path d="m168.1 244.079a28.084 28.084 0 0 0 -47.1-13.047l-4.46 4.46-4.461-4.46a28.083 28.083 0 0 0 -47.1 13.046 32.622 32.622 0 0 0 13.521 34.983l33.6 22.4a8 8 0 0 0 8.875 0l33.6-22.4a32.621 32.621 0 0 0 13.525-34.982zm-22.4 21.669-29.165 19.443-29.162-19.443a16.589 16.589 0 0 1 -6.877-17.79 12.085 12.085 0 0 1 20.268-5.613l10.117 10.118a8 8 0 0 0 11.314 0l10.117-10.118a12.084 12.084 0 0 1 20.268 5.614 16.59 16.59 0 0 1 -6.88 17.789z"/><circle cx="224" cy="328" r="8"/></g></svg>