<svg height="512" viewBox="0 0 512 512" width="512" xmlns="http://www.w3.org/2000/svg"><g id="filled_outline" data-name="filled outline"><path d="m480 136h-104v-104a8 8 0 0 0 -8-8h-224a8 8 0 0 0 -8 8v104h-104a8 8 0 0 0 -8 8v224a8 8 0 0 0 8 8h104v104a8 8 0 0 0 8 8h224a8 8 0 0 0 8-8v-104h104a8 8 0 0 0 8-8v-224a8 8 0 0 0 -8-8z" fill="#85bc94"/><g fill="#55785f"><path d="m300.244 376a35.757 35.757 0 0 1 -30.66-17.359l-1.579-2.633a14 14 0 0 0 -24.01 0l-1.579 2.633a35.757 35.757 0 0 1 -30.66 17.359 35.755 35.755 0 0 1 -35.756-35.756 119.7 119.7 0 0 1 20.1-66.4l10.145-15.217a59.789 59.789 0 0 1 49.755-26.627 59.789 59.789 0 0 1 49.75 26.626l10.15 15.217a119.7 119.7 0 0 1 20.1 66.401 35.755 35.755 0 0 1 -35.756 35.756z"/><ellipse cx="212" cy="176" rx="28" ry="40"/><ellipse cx="148" cy="240" rx="28" ry="40"/><ellipse cx="300" cy="176" rx="28" ry="40"/><ellipse cx="364" cy="240" rx="28" ry="40"/></g><path d="m480 128h-96v-96a16.019 16.019 0 0 0 -16-16h-224a16.019 16.019 0 0 0 -16 16v96h-96a16.019 16.019 0 0 0 -16 16v224a16.019 16.019 0 0 0 16 16h96v96a16.019 16.019 0 0 0 16 16h224a16.019 16.019 0 0 0 16-16v-96h96a16.019 16.019 0 0 0 16-16v-224a16.019 16.019 0 0 0 -16-16zm0 240h-104a8 8 0 0 0 -8 8v104h-224v-104a8 8 0 0 0 -8-8h-104v-224h104a8 8 0 0 0 8-8v-104h224v104a8 8 0 0 0 8 8h104z"/><path d="m312.406 254.188a67.791 67.791 0 0 0 -112.812 0l-10.146 15.212a127.308 127.308 0 0 0 -21.448 70.845 43.756 43.756 0 0 0 81.276 22.511l1.579-2.632a6 6 0 0 1 10.29 0l1.579 2.633a43.756 43.756 0 0 0 81.276-22.512 127.308 127.308 0 0 0 -21.448-70.84zm-12.162 113.812a27.9 27.9 0 0 1 -23.8-13.475l-1.579-2.632a22 22 0 0 0 -37.73 0l-1.579 2.631a27.756 27.756 0 0 1 -51.556-14.279 111.348 111.348 0 0 1 18.761-61.964l10.145-15.218a51.793 51.793 0 0 1 86.188 0l10.145 15.217a111.353 111.353 0 0 1 18.761 61.965 27.787 27.787 0 0 1 -27.756 27.755z"/><path d="m212 224c20.187 0 36-21.084 36-48s-15.813-48-36-48-36 21.084-36 48 15.813 48 36 48zm0-80c10.841 0 20 14.654 20 32s-9.159 32-20 32-20-14.654-20-32 9.159-32 20-32z"/><path d="m184 240c0-26.916-15.813-48-36-48s-36 21.084-36 48 15.813 48 36 48 36-21.084 36-48zm-36 32c-10.841 0-20-14.654-20-32s9.159-32 20-32 20 14.654 20 32-9.159 32-20 32z"/><path d="m300 224c20.187 0 36-21.084 36-48s-15.813-48-36-48-36 21.084-36 48 15.813 48 36 48zm0-80c10.841 0 20 14.654 20 32s-9.159 32-20 32-20-14.654-20-32 9.159-32 20-32z"/><path d="m328 240c0 26.916 15.813 48 36 48s36-21.084 36-48-15.813-48-36-48-36 21.084-36 48zm56 0c0 17.346-9.159 32-20 32s-20-14.654-20-32 9.159-32 20-32 20 14.654 20 32z"/></g></svg>