<svg height="512" viewBox="0 0 512 512" width="512" xmlns="http://www.w3.org/2000/svg"><g id="filled_outline" data-name="filled outline"><path d="m224 176v-20.759a24 24 0 0 1 8.636-18.437l34.463-28.72a17.62 17.62 0 0 1 11.28-4.084 17.62 17.62 0 0 1 17.621 17.62v31.468a36 36 0 0 1 -10.544 25.456l-13.456 13.456v34.4a22 22 0 0 1 -12.161 19.678l-19.839 9.922h-16z" fill="#e08122"/><path d="m112 176v-20.759a24 24 0 0 0 -8.636-18.437l-34.464-28.72a17.62 17.62 0 0 0 -11.279-4.084 17.62 17.62 0 0 0 -17.621 17.62v31.468a36 36 0 0 0 10.544 25.456l13.456 13.456v34.4a22 22 0 0 0 12.161 19.678l19.839 9.922h16z" fill="#e08122"/><path d="m231.994 210.667a8 8 0 0 1 -6.394-12.8l30.4-40.534v-13.333a8 8 0 0 1 16 0v16a8 8 0 0 1 -1.6 4.8l-32 42.666a7.986 7.986 0 0 1 -6.406 3.201z" fill="#bf6e1d"/><path d="m104.006 210.667a7.988 7.988 0 0 1 -6.406-3.2l-32-42.667a8 8 0 0 1 -1.6-4.8v-16a8 8 0 0 1 16 0v13.333l30.4 40.534a8 8 0 0 1 -6.394 12.8z" fill="#bf6e1d"/><path d="m239.68 450.24-7.68 5.76 4.24 1.41 8.82 2.94a16.014 16.014 0 0 1 10.94 15.18v12.47h-176v-14.11a16 16 0 0 1 8.84-14.31l7.16-3.58-14.63-14.63a32 32 0 0 1 -9.37-22.62v-28.12a16.008 16.008 0 0 1 4.69-11.32l19.31-19.31 16-40h112l16 40 19.31 19.31a16.008 16.008 0 0 1 4.69 11.32v25.37a31.992 31.992 0 0 1 -12.8 25.6z" fill="#fd9226"/><path d="m224 320h-112l-16-40v-75.574a30 30 0 0 1 8.787-21.213l.142-.142a30 30 0 0 1 16.97-8.485l.846-.121a320.018 320.018 0 0 1 90.51 0l.846.121a30 30 0 0 1 16.97 8.485l.142.142a30 30 0 0 1 8.787 21.213v75.574z" fill="#fd9226"/><path d="m197.945 344a26.055 26.055 0 0 1 -21.679-11.6l-8.266-12.4-8.265 12.4a26.055 26.055 0 0 1 -21.679 11.6 26.055 26.055 0 0 1 -26.056-26.055v-11.89a26.055 26.055 0 0 1 26.055-26.055h59.89a26.055 26.055 0 0 1 26.055 26.055v11.89a26.055 26.055 0 0 1 -26.055 26.055z" fill="#985713"/><g fill="#e08122"><path d="m120 464v24h-16v-22.11l-7.16-14.31a8.081 8.081 0 0 1 -.84-3.58v-40a8 8 0 0 1 16 0v38.11l7.16 14.31a8.081 8.081 0 0 1 .84 3.58z"/><path d="m160 408v40a8.081 8.081 0 0 1 -.84 3.58l-7.16 14.31v22.11h-16v-24a8.081 8.081 0 0 1 .84-3.58l7.16-14.31v-38.11a8 8 0 0 1 16 0z"/><path d="m240 408v40a8.125 8.125 0 0 1 -.84 3.58l-2.92 5.83-4.24 8.48v22.11h-16v-24a8.081 8.081 0 0 1 .84-3.58l7.16-14.31v-38.11a8 8 0 0 1 16 0z"/><path d="m200 464v24h-16v-22.11l-7.16-14.31a8.081 8.081 0 0 1 -.84-3.58v-40a8 8 0 0 1 16 0v38.11l7.16 14.31a8.081 8.081 0 0 1 .84 3.58z"/></g><circle cx="168" cy="296" fill="#70400e" r="16"/><circle cx="136" cy="240" fill="#985713" r="11"/><circle cx="203" cy="240" fill="#985713" r="11"/><path d="m360 312v152a32 32 0 0 1 -64 0v-34a6 6 0 0 0 -6-6h-58a8 8 0 0 1 0-16h58a22.026 22.026 0 0 1 22 22v34a16 16 0 0 0 32 0v-152a8 8 0 0 1 16 0z" fill="#dbdbdb"/><path d="m352 176a32.048 32.048 0 0 1 -23.85-10.664 8 8 0 0 1 11.922-10.671 16 16 0 1 0 11.928-26.665 8 8 0 0 1 -8-8v-72a8 8 0 0 1 16 0v65.012a32 32 0 0 1 -8 62.988z" fill="#878787"/><path d="m448 56h-104a16 16 0 0 1 -16-16 16 16 0 0 1 16-16h104z" fill="#cbcbcb"/><path d="m416 56h32v400h-32z" fill="#985713"/><path d="m472 488h-80a44.846 44.846 0 0 1 19.969-37.313l4.031-2.687h32l4.031 2.687a44.846 44.846 0 0 1 19.969 37.313z" fill="#70400e"/><path d="m312 336h16v16h-16z" fill="#c0f5f9"/><path d="m312 368h16v32h-16z" fill="#c0f5f9"/><path d="m176 400h64v32h-64z" fill="#6b9777"/><path d="m352 208a8 8 0 0 1 -8-8v-32a8 8 0 0 1 16 0v32a8 8 0 0 1 -8 8z" fill="#cbcbcb"/><path d="m360 312v6.99a32.188 32.188 0 0 1 -16 0v-6.99a8 8 0 0 1 16 0z" fill="#c3c3c3"/><path d="m416 56h32v16h-32z" fill="#70400e"/><path d="m240 408h8v16h-8z" fill="#c3c3c3"/><path d="m320 200h64a0 0 0 0 1 0 0v80a32 32 0 0 1 -32 32 32 32 0 0 1 -32-32v-80a0 0 0 0 1 0 0z" fill="#ebebeb"/><path d="m352 312a32 32 0 0 1 -32-32v-48h64v48a32 32 0 0 1 -32 32z" fill="#c0f5f9"/><path d="m368 264h-8v-8h-16v8h-8v16h8v8h16v-8h8z" fill="#85bc94"/><path d="m320 232h64v8h-64z" fill="#b8eaee"/><circle cx="136" cy="240" r="11"/><circle cx="203" cy="240" r="11"/><path d="m56 195.313v31.087a29.85 29.85 0 0 0 16.583 26.835l15.417 7.709v19.056a8 8 0 0 0 .572 2.971l14.812 37.029-14.2 35.5-18.151 18.153a23.854 23.854 0 0 0 -7.033 16.977v28.12a39.729 39.729 0 0 0 11.713 28.277l6.922 6.922a23.847 23.847 0 0 0 -10.635 19.941v14.11a8 8 0 0 0 8 8h176a8 8 0 0 0 8-8v-12.47a23.974 23.974 0 0 0 -15.026-22.26l7.026-5.27a40.176 40.176 0 0 0 15.167-24h18.833a6.006 6.006 0 0 1 6 6v34a32 32 0 0 0 64 0v-144.8a40.067 40.067 0 0 0 32-39.2v-80a8 8 0 0 0 -8-8h-24v-17.013a32 32 0 0 0 0-61.975v-49.012h48v379.719l-.468.312a52.739 52.739 0 0 0 -23.532 43.969 8 8 0 0 0 8 8h80a8 8 0 0 0 8-8 52.742 52.742 0 0 0 -23.532-43.97l-.468-.312v-419.718a8 8 0 0 0 -8-8h-104a24 24 0 0 0 0 48v56a8 8 0 0 0 8 8 16 16 0 1 1 -11.928 26.665 8 8 0 0 0 -11.922 10.671 32.052 32.052 0 0 0 15.85 9.638v17.026h-24a8 8 0 0 0 -8 8v80a40.067 40.067 0 0 0 32 39.2v144.8a16 16 0 0 1 -32 0v-34a22.025 22.025 0 0 0 -22-22h-18v-17.37a23.854 23.854 0 0 0 -7.033-16.977l-18.149-18.153-14.2-35.5 14.812-37.029a8 8 0 0 0 .57-2.971v-19.056l15.421-7.711a29.848 29.848 0 0 0 16.579-26.833v-31.087l11.117-11.113a43.7 43.7 0 0 0 12.883-31.11v-31.47a25.617 25.617 0 0 0 -25.62-25.62 25.734 25.734 0 0 0 -16.4 5.935l-34.457 28.715a31.9 31.9 0 0 0 -11.523 24.59v11.56c-.231-.037-.461-.081-.692-.113l-.929-.142a328.523 328.523 0 0 0 -92.837.012l-.755.115c-.264.038-.525.086-.787.129v-11.561a31.9 31.9 0 0 0 -11.519-24.586l-34.473-28.731a25.728 25.728 0 0 0 -16.388-5.923 25.617 25.617 0 0 0 -25.62 25.62v31.47a43.7 43.7 0 0 0 12.883 31.11zm391.593 262.03a36.764 36.764 0 0 1 15.533 22.657h-62.252a36.759 36.759 0 0 1 15.533-22.656l2.015-1.344h27.156zm-23.593-17.343v-376h16v376zm-80-392a8 8 0 0 1 0-16h96v16zm-16 160h48v16h-48zm0 72v-40h48v40a24 24 0 0 1 -48 0zm-224 200h-16v-6.11a7.955 7.955 0 0 1 4.417-7.155l7.161-3.58a8 8 0 0 0 2.228-1.655l2.194 4.389zm120-33.889-7.155 14.311a7.994 7.994 0 0 0 -.845 3.578v16h-16v-16a7.994 7.994 0 0 0 -.845-3.578l-7.155-14.311v-6.111h32zm0-22.111h-32v-16h32zm24 56h-16v-14.111l.624-1.249 9.9 3.3a8 8 0 0 1 5.476 7.59zm-1.6-44.8-6.4 4.8v-16h14.611a24.053 24.053 0 0 1 -8.211 11.2zm-12.057-69.543 19.31 19.31a7.953 7.953 0 0 1 2.347 5.663v17.37h-16v-8a8 8 0 0 0 -8-8h-48a8 8 0 0 0 -8 8v48a7.994 7.994 0 0 0 .845 3.578l7.155 14.311v14.111h-32v-14.111l7.155-14.311a7.994 7.994 0 0 0 .845-3.578v-40a8 8 0 0 0 -16 0v38.111l-7.155 14.311a7.994 7.994 0 0 0 -.845 3.578v16h-16v-16a7.994 7.994 0 0 0 -.845-3.578l-7.155-14.311v-38.111a8 8 0 0 0 -16 0v36.687l-8.973-8.974a24.155 24.155 0 0 1 -7.027-16.963v-28.12a7.953 7.953 0 0 1 2.347-5.663l19.31-19.31a8.01 8.01 0 0 0 1.771-2.686l9.037-22.593a34.023 34.023 0 0 0 53.926-3.543l1.609-2.413 1.608 2.413a34.024 34.024 0 0 0 53.927 3.543l9.037 22.593a8.01 8.01 0 0 0 1.771 2.686zm-74.9-47.24-6.363 9.543a18.055 18.055 0 0 1 -33.08-10.016v-11.888a18.077 18.077 0 0 1 18.056-18.056h7.32a23.983 23.983 0 0 0 14.065 30.417zm.557-22.417a8 8 0 1 1 8 8 8.009 8.009 0 0 1 -8-8zm30.624-8h7.32a18.077 18.077 0 0 1 18.056 18.056v11.888a18.056 18.056 0 0 1 -33.079 10.016l-6.362-9.543a23.983 23.983 0 0 0 14.065-30.417zm41.376-132.76a15.95 15.95 0 0 1 5.762-12.3l34.446-28.708a9.69 9.69 0 0 1 6.172-2.232 9.618 9.618 0 0 1 9.62 9.62v31.47a27.807 27.807 0 0 1 -8.2 19.793l-13.46 13.46a8 8 0 0 0 -2.34 5.657v34.4a13.934 13.934 0 0 1 -7.738 12.525l-8.262 4.131v-38.626a38.3 38.3 0 0 0 -.957-8.487l23.357-31.143a8 8 0 0 0 1.6-4.8v-16a8 8 0 0 0 -16 0v13.333l-16.953 22.6c-.692-.818-1.414-1.617-2.18-2.384l-.14-.14a38.029 38.029 0 0 0 -4.727-3.987zm-121.553 33.627.14-.14a22.02 22.02 0 0 1 12.521-6.229l.771-.118a312.261 312.261 0 0 1 88.163-.012l.945.144a22.027 22.027 0 0 1 12.426 6.215l.14.14a21.866 21.866 0 0 1 6.447 15.563v74.029l-4.373 10.932a34.072 34.072 0 0 0 -29.683-17.391h-59.888a34.072 34.072 0 0 0 -29.683 17.391l-4.373-10.932v-74.029a21.866 21.866 0 0 1 6.447-15.563zm-62.447-67.247a9.618 9.618 0 0 1 9.62-9.62 9.675 9.675 0 0 1 6.158 2.226l34.465 28.723a15.947 15.947 0 0 1 5.757 12.291v18.183a37.949 37.949 0 0 0 -4.727 3.99l-.14.14c-.766.767-1.488 1.566-2.18 2.384l-16.953-22.604v-13.333a8 8 0 0 0 -16 0v16a8 8 0 0 0 1.6 4.8l23.357 31.143a38.3 38.3 0 0 0 -.957 8.487v38.626l-8.258-4.129a13.935 13.935 0 0 1 -7.742-12.527v-34.4a8 8 0 0 0 -2.343-5.657l-13.457-13.46a27.807 27.807 0 0 1 -8.2-19.793z"/><path d="m360 288v-8h8v-16h-8v-8h-16v8h-8v16h8v8z"/><path d="m312 336h16v16h-16z"/><path d="m312 368h16v32h-16z"/></g></svg>