<svg height="512" viewBox="0 0 512 512" width="512" xmlns="http://www.w3.org/2000/svg"><g id="filled_outline" data-name="filled outline"><path d="m64 256h104v232h-104z" fill="#dbdbdb"/><path d="m344 256h104v232h-104z" fill="#dbdbdb"/><path d="m160 160h192v328h-192z" fill="#ebebeb"/><path d="m160 376h192v32h-192z" fill="#dbdbdb"/><path d="m160 408h192v8h-192z" fill="#cbcbcb"/><path d="m192 408h128v80h-128z" fill="#b8eaee"/><path d="m192 408h128v8h-128z" fill="#aedee2"/><path d="m256 408h64v80h-64z" fill="#b3e4e8"/><path d="m256 408h64v8h-64z" fill="#a8d6da"/><g fill="#6cbae5"><path d="m184 336h16v16h-16z"/><path d="m184 304h16v16h-16z"/><path d="m184 272h16v16h-16z"/><path d="m184 240h16v16h-16z"/><path d="m216 336h16v16h-16z"/><path d="m216 304h16v16h-16z"/><path d="m216 272h16v16h-16z"/><path d="m88 336h16v16h-16z"/><path d="m88 304h16v16h-16z"/><path d="m88 272h16v16h-16z"/><path d="m120 336h16v16h-16z"/><path d="m120 304h16v16h-16z"/><path d="m120 272h16v16h-16z"/><path d="m216 240h16v16h-16z"/><path d="m248 336h16v16h-16z"/><path d="m248 304h16v16h-16z"/><path d="m248 272h16v16h-16z"/><path d="m248 240h16v16h-16z"/><path d="m280 336h16v16h-16z"/><path d="m280 304h16v16h-16z"/><path d="m280 272h16v16h-16z"/><path d="m280 240h16v16h-16z"/><path d="m312 336h16v16h-16z"/><path d="m312 304h16v16h-16z"/><path d="m312 272h16v16h-16z"/><path d="m312 240h16v16h-16z"/></g><path d="m64 376h96v112h-96z" fill="#428dc5"/><path d="m56 440h16v56h-16z" fill="#70400e"/><path d="m104 456h16v40h-16z" fill="#985713"/><path d="m408 336h16v16h-16z" fill="#6cbae5"/><path d="m408 304h16v16h-16z" fill="#6cbae5"/><path d="m408 272h16v16h-16z" fill="#6cbae5"/><path d="m376 336h16v16h-16z" fill="#6cbae5"/><path d="m376 304h16v16h-16z" fill="#6cbae5"/><path d="m376 272h16v16h-16z" fill="#6cbae5"/><path d="m352 376h96v112h-96z" fill="#428dc5" transform="matrix(-1 0 0 -1 800 864)"/><path d="m440 440h16v56h-16z" fill="#70400e"/><path d="m392 464h16v32h-16z" fill="#985713"/><path d="m64 256v-32l96-24v56z" fill="#5e8569"/><path d="m352 216 96 40h-96z" fill="#5e8569"/><path d="m280 440h16v16h-16z" fill="#a8d6da"/><path d="m216 440h16v16h-16z" fill="#aedee2"/><rect fill="#85bc94" height="72" rx="24" width="48" x="88" y="400"/><circle cx="256" cy="120" fill="#85bc94" r="96"/><path d="m320 88h-32v-32h-64v32h-32v64h32v32h64v-32h32z" fill="#ebebeb"/><path d="m256 112a8 8 0 0 0 8-8v-8a8 8 0 0 0 -16 0v8a8 8 0 0 0 8 8z" fill="#85bc94"/><path d="m240 112a8 8 0 0 0 -16 0v8a8 8 0 0 0 16 0z" fill="#85bc94"/><path d="m280 104a8 8 0 0 0 -8 8v8a8 8 0 0 0 16 0v-8a8 8 0 0 0 -8-8z" fill="#85bc94"/><path d="m264 128a8 8 0 0 0 -16 0 8 8 0 0 0 0 16h16a8 8 0 0 0 0-16z" fill="#85bc94"/><rect fill="#85bc94" height="72" rx="24" transform="matrix(-1 0 0 -1 800 872)" width="48" x="376" y="400"/><rect fill="#55785f" height="88" rx="24" width="48" x="40" y="376"/><rect fill="#55785f" height="88" rx="24" transform="matrix(-1 0 0 -1 896 840)" width="48" x="424" y="376"/><path d="m352 256h96v8h-96z" fill="#cbcbcb"/><path d="m64 256h96v8h-96z" fill="#cbcbcb"/><rect fill="#55785f" height="88" rx="24" width="48" x="40" y="376"/><rect fill="#55785f" height="88" rx="24" transform="matrix(-1 0 0 -1 896 840)" width="48" x="424" y="376"/><path d="m216 184a8 8 0 0 0 8 8h64a8 8 0 0 0 8-8v-24h24a8 8 0 0 0 8-8v-64a8 8 0 0 0 -8-8h-24v-24a8 8 0 0 0 -8-8h-64a8 8 0 0 0 -8 8v24h-24a8 8 0 0 0 -8 8v64a8 8 0 0 0 8 8h24zm-16-40v-48h24a8 8 0 0 0 8-8v-24h48v24a8 8 0 0 0 8 8h24v48h-24a8 8 0 0 0 -8 8v24h-48v-24a8 8 0 0 0 -8-8z"/><path d="m256 112a8 8 0 0 0 8-8v-8a8 8 0 0 0 -16 0v8a8 8 0 0 0 8 8z"/><path d="m232 128a8 8 0 0 0 8-8v-8a8 8 0 0 0 -16 0v8a8 8 0 0 0 8 8z"/><path d="m280 128a8 8 0 0 0 8-8v-8a8 8 0 0 0 -16 0v8a8 8 0 0 0 8 8z"/><path d="m248 144h16a8 8 0 0 0 0-16 8 8 0 0 0 -16 0 8 8 0 0 0 0 16z"/><path d="m184 336h16v16h-16z"/><path d="m184 304h16v16h-16z"/><path d="m184 272h16v16h-16z"/><path d="m184 240h16v16h-16z"/><path d="m216 336h16v16h-16z"/><path d="m216 304h16v16h-16z"/><path d="m216 272h16v16h-16z"/><path d="m88 336h16v16h-16z"/><path d="m88 304h16v16h-16z"/><path d="m88 272h16v16h-16z"/><path d="m120 336h16v16h-16z"/><path d="m120 304h16v16h-16z"/><path d="m120 272h16v16h-16z"/><path d="m216 240h16v16h-16z"/><path d="m248 336h16v16h-16z"/><path d="m248 304h16v16h-16z"/><path d="m248 272h16v16h-16z"/><path d="m248 240h16v16h-16z"/><path d="m280 336h16v16h-16z"/><path d="m280 304h16v16h-16z"/><path d="m280 272h16v16h-16z"/><path d="m280 240h16v16h-16z"/><path d="m312 336h16v16h-16z"/><path d="m312 304h16v16h-16z"/><path d="m312 272h16v16h-16z"/><path d="m312 240h16v16h-16z"/><path d="m408 336h16v16h-16z"/><path d="m408 304h16v16h-16z"/><path d="m408 272h16v16h-16z"/><path d="m376 336h16v16h-16z"/><path d="m376 304h16v16h-16z"/><path d="m376 272h16v16h-16z"/><path d="m456 369.013v-113.013a8 8 0 0 0 -4.923-7.385l-91.077-37.949v-50.666a7.994 7.994 0 0 0 -5.21-7.49 104 104 0 1 0 -197.58 0 7.994 7.994 0 0 0 -5.21 7.49v33.754l-89.94 22.485a8 8 0 0 0 -6.06 7.761v145.013a32.056 32.056 0 0 0 -24 30.987v40a32.056 32.056 0 0 0 24 30.987v25.013h400v-25.013a32.056 32.056 0 0 0 24-30.987v-40a32.056 32.056 0 0 0 -24-30.987zm-56 94.987a16.019 16.019 0 0 1 -16-16v-24a16 16 0 0 1 32 0v24a16.019 16.019 0 0 1 -16 16zm-232-64v-16h176v16zm-16 80h-32v-1.013a32.056 32.056 0 0 0 24-30.987v-24a31.978 31.978 0 0 0 -48.2-27.577 31.753 31.753 0 0 0 -4.1-12.423h60.3zm-80-216h80v104h-80zm24 176v-16a16 16 0 0 1 32 0v24a16 16 0 0 1 -32 0zm248-24v64h-16v-64zm16-152h80v104h-80zm48-16h-48v-20zm-152-216a88 88 0 1 1 -88 88 88.1 88.1 0 0 1 88-88zm0 192a104.015 104.015 0 0 0 88-48.637v192.637h-176v-192.637a104.015 104.015 0 0 0 88 48.637zm-104-13.754v37.754h-80v-17.754zm-104 229.754v-40a16 16 0 0 1 32 0v40a16 16 0 0 1 -32 0zm24 30.987a31.927 31.927 0 0 0 12.58-6.509 32.124 32.124 0 0 0 19.42 14.509v1.013h-32zm96-54.987h16v64h-16zm32 0h48v64h-48zm64 64v-64h48v64zm96-72v-24h60.305a31.753 31.753 0 0 0 -4.1 12.423 31.978 31.978 0 0 0 -48.205 27.577v24a32.056 32.056 0 0 0 24 30.987v1.013h-32zm48 72v-1.013a32.124 32.124 0 0 0 19.42-14.509 31.927 31.927 0 0 0 12.58 6.509v9.013zm56-40a16 16 0 0 1 -32 0v-40a16 16 0 0 1 32 0z"/><path d="m280 440h16v16h-16z"/><path d="m216 440h16v16h-16z"/></g></svg>