<svg height="512" viewBox="0 0 512 512" width="512" xmlns="http://www.w3.org/2000/svg"><g id="filled_outline" data-name="filled outline"><path d="m488 136v240h-112v112h-240v-112h-112v-240h112v-112h240v112z" fill="#6b9777"/><path d="m472 136v240h-112v112h-224v-112h-112v-240h112v-112h224v112z" fill="#85bc94"/><path d="m144 336h-8a30.739 30.739 0 0 1 -29.821-23.283l-10.179-40.717-5.3 5.3a52.9 52.9 0 0 0 -14.963 44.889 72.713 72.713 0 0 0 28.353 47.886 29.654 29.654 0 0 0 17.792 5.925h22.118z" fill="#744630"/><path d="m352 472-8 16h-208v-118.3a158.453 158.453 0 0 1 8.12-50.08l4.36-13.07a154.035 154.035 0 0 1 37.24-60.27l.59-.59a158.562 158.562 0 0 0 33.71-49.74c3.14-7.32 6.27-14.64 8.55-19.95 2.07-4.83 3.43-8 3.43-8h-23.02a32.037 32.037 0 0 1 -31.04-24.24l-3.94-15.76-1.03-4.12a16 16 0 0 1 15.52-19.88h27.51a68.355 68.355 0 0 1 29.69-37.02l3.5-2.09a62.405 62.405 0 0 1 59.98-2.31l.35.18a62.378 62.378 0 0 1 34.48 55.79v345.45z" fill="#f3af3e"/><path d="m180 488a36.04 36.04 0 0 1 -36-36v-6a36.174 36.174 0 0 1 14.4-28.8 44.206 44.206 0 0 0 17.6-35.2v-6a8 8 0 0 1 16 0v6a60.287 60.287 0 0 1 -24 48 20.1 20.1 0 0 0 -8 16v6a20 20 0 0 0 40 0v-4a24.028 24.028 0 0 1 24-24 8 8 0 0 1 0 16 8.009 8.009 0 0 0 -8 8v4a36.04 36.04 0 0 1 -36 36z" fill="#cd761f"/><path d="m352 472-8 16h-85.57a50.428 50.428 0 0 1 -50.43-50.43 96.685 96.685 0 0 1 3.73-26.62l1.19-4.16a102.115 102.115 0 0 1 45.67-59.54 21.7 21.7 0 0 0 8.23-8.89l13.18-26.36h-27.09a20.909 20.909 0 0 1 -20.91-20.91v-19.09h24l1.99-5.97a34.6 34.6 0 0 1 24.45-22.64l13.56-3.39v-24l23.37 17.53a45.346 45.346 0 0 1 13.45 16.12 105.866 105.866 0 0 1 11.18 47.34v167.01z" fill="#e08122"/><path d="m293.66 309.66-8 8a8.008 8.008 0 0 1 -5.66 2.34h-4l4-8h-27.09a20.841 20.841 0 0 1 -15.96-7.4 7.937 7.937 0 0 1 3.05-.6h36.69l5.65-5.66a8 8 0 0 1 11.32 11.32z" fill="#cd761f"/><path d="m312 384a8 8 0 0 0 -8 8v57.874a25.452 25.452 0 0 0 -9.6-1.874h-7.45l1.09-1.64a34.965 34.965 0 0 0 -29.1-54.36h-2.94a8 8 0 0 0 0 16h2.94a18.968 18.968 0 0 1 15.79 29.49l-9.39 14.07a8.009 8.009 0 0 0 6.66 12.44h22.4a9.615 9.615 0 0 1 9.6 9.6v14.4h16v-96a8 8 0 0 0 -8-8z" fill="#cd761f"/><path d="m344 120v22.7a24 24 0 0 1 -16.411 22.768 24 24 0 0 1 -15.178 0 24 24 0 0 1 -16.411-22.768v-38.7h32z" fill="#744630"/><g fill="#d18d28"><path d="m269.66 157.66-16 16a8.008 8.008 0 0 1 -5.66 2.34h-19.43c2.07-4.83 3.43-8 3.43-8h-23.02a31.863 31.863 0 0 1 -20.3-7.28 8.012 8.012 0 0 1 3.32-.72h52.69l13.65-13.66a8 8 0 1 1 11.32 11.32z"/><path d="m200 104v16a8 8 0 0 1 -8 8h-18l-1.03-4.12a16 16 0 0 1 15.52-19.88z"/><path d="m224.815 252.238a8 8 0 0 1 -6.393-12.8 147.62 147.62 0 0 0 21.988-41.968 8 8 0 0 1 15.18 5.06 163.6 163.6 0 0 1 -24.369 46.508 7.987 7.987 0 0 1 -6.406 3.2z"/><path d="m168 368a8 8 0 0 1 -8-8 128.8 128.8 0 0 1 25.6-76.8 8 8 0 1 1 12.8 9.6 112.7 112.7 0 0 0 -22.4 67.2 8 8 0 0 1 -8 8z"/><circle cx="256" cy="112" r="8"/></g><circle cx="288" cy="272" fill="#cd761f" r="8"/><path d="m488 128h-104v-104a8 8 0 0 0 -8-8h-240a8 8 0 0 0 -8 8v104h-104a8 8 0 0 0 -8 8v240a8 8 0 0 0 8 8h104v104a8 8 0 0 0 8 8h240a8 8 0 0 0 8-8v-104h104a8 8 0 0 0 8-8v-240a8 8 0 0 0 -8-8zm-359.983 240h-6.137a21.64 21.64 0 0 1 -12.986-4.327 64.764 64.764 0 0 1 -25.234-42.623 45.16 45.16 0 0 1 8.161-32.779l6.6 26.389a38.669 38.669 0 0 0 31.649 28.88 166.33 166.33 0 0 0 -2.053 24.46zm15.983 112v-28a35.8 35.8 0 0 0 10.548 25.462 36.677 36.677 0 0 0 2.826 2.538zm56-32v4a20 20 0 1 1 -40 0v-6a20.1 20.1 0 0 1 8-16 59.986 59.986 0 0 0 24-48v-6a8 8 0 0 0 -16 0v6a43.983 43.983 0 0 1 -17.6 35.2 36.181 36.181 0 0 0 -14.4 28.8v-76.3a150.287 150.287 0 0 1 3.444-32c.011-.051.023-.1.033-.152a150.538 150.538 0 0 1 4.232-15.4l4.362-13.075a146.766 146.766 0 0 1 35.306-57.138l.591-.591a166.139 166.139 0 0 0 35.405-52.244l9.9-23.1h10.727a8 8 0 0 0 5.657-2.343l16-16a8 8 0 0 0 -11.314-11.314l-13.656 13.657h-35.707a23.962 23.962 0 0 1 -23.28-18.181l-1.455-5.819h7.755a16.019 16.019 0 0 0 16-16v-8h8a8 8 0 0 0 7.59-5.47 60.363 60.363 0 0 1 26.2-32.68l3.518-2.1a54.411 54.411 0 0 1 52.2-2.054l.427.219a54.153 54.153 0 0 1 25.574 26.909 7.993 7.993 0 0 0 -3.509-.824h-32a8 8 0 0 0 -8 8v38.7a31.933 31.933 0 0 0 48 27.69v69.032a53.9 53.9 0 0 0 -11.829-12.3l-23.371-17.522a8 8 0 0 0 -12.8 6.4v17.754l-7.5 1.876a42.42 42.42 0 0 0 -30.1 27.87l-.167.5h-18.233a8 8 0 0 0 -8 8v19.1a28.938 28.938 0 0 0 28.905 28.9h14.151l-7.39 14.779a13.637 13.637 0 0 1 -5.191 5.607 109.793 109.793 0 0 0 -49.249 64.2l-1.19 4.163a104.9 104.9 0 0 0 -4.036 28.823 58.881 58.881 0 0 0 .351 6.347 24.133 24.133 0 0 0 -.351 4.081zm-19.5-328c0-.046 0-.092 0-.138a8.058 8.058 0 0 1 .082-1.007c.014-.1.027-.2.045-.294a8.055 8.055 0 0 1 .284-1.125c.014-.04.033-.079.048-.119a7.83 7.83 0 0 1 .425-.968c.048-.093.1-.185.148-.276a8.279 8.279 0 0 1 .656-1 7.949 7.949 0 0 1 6.3-3.072h3.512v8zm155.5 3.313v19.387a16 16 0 0 1 -32 0v-30.7h20.687zm-133.407 356.687a36.288 36.288 0 0 0 7.961-8.994 58.851 58.851 0 0 0 7.766 8.994zm136.463 0h-19.056v-88a8 8 0 0 0 -16 0v57.875a25.459 25.459 0 0 0 -9.6-1.875h-7.45l1.091-1.636a34.968 34.968 0 0 0 -29.097-54.364h-2.944a8 8 0 0 0 0 16h2.944a18.967 18.967 0 0 1 15.783 29.488l-9.383 14.074a8 8 0 0 0 6.656 12.438h22.4a9.614 9.614 0 0 1 9.6 9.6v6.4h-45.572a42.476 42.476 0 0 1 -42.428-42.428 88.893 88.893 0 0 1 3.421-24.425l1.189-4.163a93.853 93.853 0 0 1 42.1-54.879 29.605 29.605 0 0 0 11.271-12.169l12.6-25.2 7.083-7.083a8 8 0 0 0 -11.314-11.314l-5.663 5.661h-23.782a12.919 12.919 0 0 1 -12.905-12.9v-11.1h16a8 8 0 0 0 7.59-5.47l1.99-5.969a26.5 26.5 0 0 1 18.8-17.41l13.561-3.39a8 8 0 0 0 6.059-7.761v-8l10.571 7.929a37.878 37.878 0 0 1 11.1 13.3 98.335 98.335 0 0 1 10.329 43.762v167.009a8 8 0 0 0 2.343 5.657l3.923 3.923zm140.944-112h-104a8 8 0 0 0 -8 8v104h-11.056l2.211-4.422a8 8 0 0 0 -1.5-9.235l-5.655-5.656v-342.137a69.968 69.968 0 0 0 -38.823-62.9l-.436-.223a70.378 70.378 0 0 0 -67.653 2.6l-3.514 2.1a76.358 76.358 0 0 0 -31.107 35.873h-21.977a24 24 0 0 0 -23.281 29.82l4.969 19.879a39.937 39.937 0 0 0 38.8 30.3h10.887l-7.2 16.8a150.147 150.147 0 0 1 -32.013 47.232l-.591.591a162.87 162.87 0 0 0 -39.17 63.4l-4.362 13.073q-1.773 5.324-3.173 10.737a22.689 22.689 0 0 1 -19.417-17.05l-10.178-40.722a8 8 0 0 0 -13.418-3.717l-5.3 5.3a61.194 61.194 0 0 0 -17.223 51.664 80.6 80.6 0 0 0 21.89 44.693h-57.71v-224h104a8 8 0 0 0 8-8v-104h224v104a8 8 0 0 0 8 8h104z"/><path d="m220.021 250.638a8 8 0 0 0 11.2-1.6 163.6 163.6 0 0 0 24.369-46.508 8 8 0 0 0 -15.18-5.06 147.62 147.62 0 0 1 -21.988 41.968 8 8 0 0 0 1.599 11.2z"/><path d="m196.8 281.6a8 8 0 0 0 -11.2 1.6 128.8 128.8 0 0 0 -25.6 76.8 8 8 0 0 0 16 0 112.7 112.7 0 0 1 22.4-67.2 8 8 0 0 0 -1.6-11.2z"/><circle cx="256" cy="112" r="8"/><circle cx="288" cy="272" r="8"/></g></svg>