<svg height="512" viewBox="0 0 512 512" width="512" xmlns="http://www.w3.org/2000/svg"><g id="filled_outline" data-name="filled outline"><path d="m352 286.08v41.92h-192v-41.92a48 48 0 0 1 16.76-36.45l12.54-10.74 26.7-22.89h80l26.7 22.89 12.54 10.74a48 48 0 0 1 16.76 36.45z" fill="#fd9226"/><path d="m322.7 238.89a71.946 71.946 0 0 1 -46.59 17.11h-40.22a71.946 71.946 0 0 1 -46.59-17.11l26.7-22.89h80z" fill="#e08122"/><path d="m240 80-5.287-13.219a92.873 92.873 0 0 0 -34.713-42.781 95.263 95.263 0 0 0 -16 52.844v27.156h56z" fill="#985713"/><path d="m272 80 5.287-13.219a92.873 92.873 0 0 1 34.713-42.781 95.263 95.263 0 0 1 16 52.844v27.156h-56z" fill="#985713"/><path d="m344.411 190.768a72 72 0 0 1 -68.306 49.232h-40.205a72 72 0 0 1 -68.306-49.232 72 72 0 0 1 0-45.536l16.406-49.232a53.9 53.9 0 0 1 44.844-24h54.312a53.9 53.9 0 0 1 44.844 24l16.411 49.232a72 72 0 0 1 0 45.536z" fill="#fd9226"/><circle cx="288" cy="136" fill="#985713" r="16"/><circle cx="224" cy="136" fill="#985713" r="16"/><path d="m273.152 217.62a23.348 23.348 0 0 1 -17.152-7.52 23.324 23.324 0 0 1 -27.578 5.055 8 8 0 1 1 7.156-14.31 7.315 7.315 0 0 0 10.24-4.319l2.561-8.023a8 8 0 0 1 15.242 0l2.561 8.023a7.315 7.315 0 0 0 10.24 4.319 8 8 0 1 1 7.156 14.31 23.3 23.3 0 0 1 -10.426 2.465z" fill="#e08122"/><g fill="#cbcbcb"><path d="m192 168a8 8 0 0 1 -2.2-.31l-56-16a8 8 0 1 1 4.4-15.384l56 16a8 8 0 0 1 -2.2 15.694z"/><path d="m192 192h-56a8 8 0 0 1 0-16h56a8 8 0 0 1 0 16z"/><path d="m144 232a8 8 0 0 1 -2.529-15.591l48-16a8 8 0 0 1 5.06 15.178l-48 16a7.988 7.988 0 0 1 -2.531.413z"/><path d="m320 168a8 8 0 0 1 -2.194-15.694l56-16a8 8 0 0 1 4.4 15.384l-56 16a8 8 0 0 1 -2.206.31z"/><path d="m376 192h-56a8 8 0 0 1 0-16h56a8 8 0 0 1 0 16z"/><path d="m368 232a7.992 7.992 0 0 1 -2.531-.413l-48-16a8 8 0 0 1 5.06-15.178l48 16a8 8 0 0 1 -2.529 15.591z"/></g><path d="m368 296-10.86 54.28a32 32 0 0 1 -31.37 25.72h-139.54a32 32 0 0 1 -31.37-25.72l-10.86-54.28h88l2.94 8.82a22.2 22.2 0 0 0 42.12 0l2.94-8.82z" fill="#428dc5"/><path d="m408 488h-304v-88l24-24h256l24 24z" fill="#dbdbdb"/><path d="m200 408h112v48h-112z" fill="#8aced8"/><path d="m200 408h104v40h-104z" fill="#a8d6da"/><circle cx="152" cy="432" fill="#fd9226" r="16"/><circle cx="360" cy="432" fill="#85bc94" r="16"/><path d="m240 313.19v1.87a20.944 20.944 0 0 1 -20.94 20.94h-6.12a20.944 20.944 0 0 1 -20.94-20.94v-19.06h40l2.94 8.82a22.037 22.037 0 0 0 5.06 8.37z" fill="#3775a4"/><path d="m320 296v19.06a20.944 20.944 0 0 1 -20.94 20.94h-6.12a20.944 20.944 0 0 1 -20.94-20.94v-1.87a22.037 22.037 0 0 0 5.06-8.37l2.94-8.82z" fill="#3775a4"/><path d="m228.422 317.789a20.944 20.944 0 0 1 -9.366 2.211h-6.112a20.944 20.944 0 0 1 -9.366-2.211 20.944 20.944 0 0 1 -11.578-18.733v-19.056a24 24 0 0 1 24-24 24 24 0 0 1 24 24v19.056a20.944 20.944 0 0 1 -11.578 18.733z" fill="#e08122"/><path d="m308.422 317.789a20.944 20.944 0 0 1 -9.366 2.211h-6.112a20.944 20.944 0 0 1 -9.366-2.211 20.944 20.944 0 0 1 -11.578-18.733v-19.056a24 24 0 0 1 24-24 24 24 0 0 1 24 24v19.056a20.944 20.944 0 0 1 -11.578 18.733z" fill="#e08122"/><circle cx="256" cy="256" fill="#fece2f" r="16"/><path d="m240 424h16v16h-16z" fill="#c0f5f9"/><path d="m272 424h16v16h-16z" fill="#c0f5f9"/><path d="m228.422 325.789a20.944 20.944 0 0 1 -9.366 2.211h-6.112a20.944 20.944 0 0 1 -9.366-2.211 20.944 20.944 0 0 1 -11.578-18.733v-19.056a24 24 0 0 1 24-24 24 24 0 0 1 24 24v19.056a20.944 20.944 0 0 1 -11.578 18.733z" fill="#fd9226"/><path d="m308.422 325.789a20.944 20.944 0 0 1 -9.366 2.211h-6.112a20.944 20.944 0 0 1 -9.366-2.211 20.944 20.944 0 0 1 -11.578-18.733v-19.056a24 24 0 0 1 24-24 24 24 0 0 1 24 24v19.056a20.944 20.944 0 0 1 -11.578 18.733z" fill="#fd9226"/><path d="m237.208 173.583a10.1 10.1 0 0 0 5.84 14.1l9.758 3.252a10.1 10.1 0 0 0 6.388 0l9.758-3.252a10.1 10.1 0 0 0 5.84-14.1 10.1 10.1 0 0 0 -9.034-5.583h-19.516a10.1 10.1 0 0 0 -9.034 5.583z" fill="#985713"/><circle cx="288" cy="136" r="16"/><circle cx="224" cy="136" r="16"/><path d="m230.053 170.005a18.1 18.1 0 0 0 10.465 25.267l5.121 1.707a7.289 7.289 0 0 1 -10.061 3.866 8 8 0 1 0 -7.156 14.31 23.324 23.324 0 0 0 27.578-5.055 23.307 23.307 0 0 0 27.578 5.055 8 8 0 1 0 -7.156-14.31 7.289 7.289 0 0 1 -10.061-3.866l5.12-1.707a18.1 18.1 0 0 0 -5.724-35.272h-19.514a18 18 0 0 0 -16.19 10.005zm14.311 7.157a2.089 2.089 0 0 1 1.879-1.162h19.514a2.088 2.088 0 0 1 1.879 1.162 2.1 2.1 0 0 1 -1.215 2.931l-8.963 2.988a7.4 7.4 0 0 0 -2.916 0l-8.964-2.988a2.1 2.1 0 0 1 -1.214-2.931z"/><path d="m122.343 370.343-24 24a8 8 0 0 0 -2.343 5.657v88a8 8 0 0 0 8 8h304a8 8 0 0 0 8-8v-88a8 8 0 0 0 -2.343-5.657l-24-24a8 8 0 0 0 -5.657-2.343h-26.271a39.752 39.752 0 0 0 7.256-16.151l10.86-54.28a8 8 0 0 0 -7.845-9.569h-8v-1.92a55.943 55.943 0 0 0 -19.553-42.524l-14.82-12.7a79.819 79.819 0 0 0 9.873-9.256l29.967 9.989a8 8 0 1 0 5.06-15.178l-25.15-8.384a80.263 80.263 0 0 0 6.623-14.727c.143-.43.267-.866.4-1.3h23.6a8 8 0 0 0 0-16h-20.334a80.954 80.954 0 0 0 -.188-17.816l22.72-6.492a8 8 0 0 0 -4.4-15.384l-21.852 6.243-15.946-47.851v-17.86a103.337 103.337 0 0 0 -17.346-57.282 8 8 0 0 0 -11.092-2.214 100.384 100.384 0 0 0 -37.7 46.463l-.077.193h-27.571l-.075-.189a100.39 100.39 0 0 0 -37.7-46.467 8 8 0 0 0 -11.092 2.214 103.328 103.328 0 0 0 -17.347 57.282v17.86l-15.95 47.849-21.85-6.241a8 8 0 1 0 -4.4 15.384l22.72 6.492a80.954 80.954 0 0 0 -.186 17.816h-20.334a8 8 0 0 0 0 16h23.6c.136.432.26.868.4 1.3a80.263 80.263 0 0 0 6.62 14.729l-25.15 8.384a8 8 0 1 0 5.06 15.178l29.97-9.991a79.819 79.819 0 0 0 9.876 9.253l-14.82 12.7a55.943 55.943 0 0 0 -19.556 42.527v1.92h-8a8 8 0 0 0 -7.845 9.569l10.86 54.28a39.758 39.758 0 0 0 7.256 16.151h-26.271a8 8 0 0 0 -5.657 2.343zm207.691-114.643a39.959 39.959 0 0 1 13.966 30.38v1.92h-16a31.984 31.984 0 0 0 -48.44-27.442 23.911 23.911 0 0 0 -.953-12.608 79.871 79.871 0 0 0 32.846-8.172zm-18.034 32.3v19.056a12.876 12.876 0 0 1 -7.155 11.578 13.024 13.024 0 0 1 -5.789 1.366h-6.112a13.024 13.024 0 0 1 -5.789-1.366 12.876 12.876 0 0 1 -7.155-11.578v-19.056a16 16 0 0 1 32 0zm-2.326-252.34a87.3 87.3 0 0 1 10.313 40.479 61.746 61.746 0 0 0 -32.779-12 84.271 84.271 0 0 1 22.466-28.479zm-113.926 15.9a86.891 86.891 0 0 1 6.578-15.9 84.276 84.276 0 0 1 22.466 28.474 61.746 61.746 0 0 0 -32.779 12 87.005 87.005 0 0 1 3.735-24.579zm-13.548 151.273a64 64 0 0 1 -5.623-10.833h15.423a8 8 0 0 0 0-16h-19.583a64.8 64.8 0 0 1 -.275-13.354l17.66 5.046a8 8 0 1 0 4.4-15.384l-18.749-5.357 15.788-47.364a45.8 45.8 0 0 1 37.603-19.587h54.312a45.8 45.8 0 0 1 37.607 19.587l15.788 47.364-18.751 5.357a8 8 0 1 0 4.4 15.384l17.66-5.046a64.8 64.8 0 0 1 -.277 13.354h-19.583a8 8 0 0 0 0 16h15.423a64 64 0 0 1 -5.627 10.833l-7.266-2.422a8 8 0 0 0 -5.06 15.178l1.048.35a63.937 63.937 0 0 1 -10.025 7.269c-.1.059-.206.115-.305.179a63.909 63.909 0 0 1 -32.083 8.613h-40.205a63.9 63.9 0 0 1 -32.081-8.613c-.1-.065-.208-.122-.313-.182a64 64 0 0 1 -10.019-7.266l1.048-.35a8 8 0 0 0 -5.06-15.178zm81.9 106.617a14.138 14.138 0 0 1 -16.213-.01c.064-.789.106-1.582.106-2.384v-19.056a31.859 31.859 0 0 0 -1.614-10.016 23.932 23.932 0 0 0 19.228 0 31.859 31.859 0 0 0 -1.607 10.016v19.056c0 .805.042 1.602.107 2.394zm-16.1-53.45a8 8 0 1 1 8 8 8.009 8.009 0 0 1 -8-8zm-80 30.08a39.959 39.959 0 0 1 13.966-30.38l18.581-15.926a79.855 79.855 0 0 0 32.846 8.172 23.911 23.911 0 0 0 -.953 12.608 31.984 31.984 0 0 0 -48.44 27.446h-16zm64 1.92v19.056a13.07 13.07 0 0 1 -.436 3.333v.008a12.862 12.862 0 0 1 -6.717 8.237 13.024 13.024 0 0 1 -5.791 1.366h-6.112a13.024 13.024 0 0 1 -5.789-1.366 12.876 12.876 0 0 1 -7.155-11.578v-19.056a16 16 0 0 1 32 0zm-78.241 16h30.241v3.056a28.785 28.785 0 0 0 16 25.888 29.09 29.09 0 0 0 12.934 3.056h6.132a28.991 28.991 0 0 0 23.02-11.4 30.17 30.17 0 0 0 27.824 0 28.994 28.994 0 0 0 23.024 11.4h6.132a29.09 29.09 0 0 0 12.934-3.056 28.785 28.785 0 0 0 16-25.888v-3.056h30.241l-8.941 44.711a24.057 24.057 0 0 1 -23.53 19.289h-139.54a24.056 24.056 0 0 1 -23.525-19.29zm226.927 80 19.314 19.314v76.686h-288v-76.686l19.314-19.314z"/><path d="m200 464h112a8 8 0 0 0 8-8v-48a8 8 0 0 0 -8-8h-112a8 8 0 0 0 -8 8v48a8 8 0 0 0 8 8zm8-48h96v32h-96z"/><path d="m152 456a24 24 0 1 0 -24-24 24.027 24.027 0 0 0 24 24zm0-32a8 8 0 1 1 -8 8 8.009 8.009 0 0 1 8-8z"/><path d="m360 456a24 24 0 1 0 -24-24 24.027 24.027 0 0 0 24 24zm0-32a8 8 0 1 1 -8 8 8.009 8.009 0 0 1 8-8z"/><path d="m240 424h16v16h-16z"/><path d="m272 424h16v16h-16z"/></g></svg>